<svg xmlns="http://www.w3.org/2000/svg" xmlns:xlink="http://www.w3.org/1999/xlink" width="2000" zoomAndPan="magnify" viewBox="0 0 1500 195.000001" height="260" preserveAspectRatio="xMidYMid meet" version="1.0"><defs><g/><clipPath id="e434974bea"><path d="M 3.828125 0 L 1493 0 L 1493 193.402344 L 3.828125 193.402344 Z M 3.828125 0 " clip-rule="nonzero"/></clipPath><clipPath id="2303f24dee"><path d="M 3.824219 118.785156 L 3.824219 74.613281 C 3.824219 54.824219 11.6875 35.847656 25.679688 21.851562 C 39.671875 7.859375 58.652344 -0.00390625 78.441406 -0.00390625 L 1421.554688 -0.00390625 C 1441.34375 -0.00390625 1460.324219 7.859375 1474.316406 21.851562 C 1488.308594 35.847656 1496.171875 54.824219 1496.171875 74.613281 L 1496.171875 118.785156 C 1496.171875 138.574219 1488.308594 157.550781 1474.316406 171.546875 C 1460.324219 185.539062 1441.34375 193.402344 1421.554688 193.402344 L 78.441406 193.402344 C 58.652344 193.402344 39.671875 185.539062 25.679688 171.546875 C 11.6875 157.550781 3.824219 138.574219 3.824219 118.785156 " clip-rule="nonzero"/></clipPath></defs><g clip-path="url(#e434974bea)"><g clip-path="url(#2303f24dee)"><path fill="#3793cb" d="M 3.824219 193.402344 L 3.824219 -3.101562 L 1492.703125 -3.101562 L 1492.703125 193.402344 Z M 3.824219 193.402344 " fill-opacity="1" fill-rule="nonzero"/></g></g><g fill="#f4faf8" fill-opacity="1"><g transform="translate(1342.208493, 68.834304)"><g><path d="M 13.203125 -23.109375 C 15.609375 -23.109375 17.863281 -22.492188 19.96875 -21.265625 L 16.9375 -16.71875 C 15.875 -17.71875 14.65625 -18.21875 13.28125 -18.21875 C 12.570312 -18.21875 11.921875 -18.007812 11.328125 -17.59375 C 10.742188 -17.1875 10.453125 -16.6875 10.453125 -16.09375 C 10.453125 -15.65625 10.660156 -15.269531 11.078125 -14.9375 C 11.492188 -14.613281 12.257812 -14.289062 13.375 -13.96875 C 14.882812 -13.507812 15.976562 -13.066406 16.65625 -12.640625 C 17.332031 -12.210938 17.859375 -11.6875 18.234375 -11.0625 C 18.617188 -10.4375 18.8125 -9.65625 18.8125 -8.71875 C 18.8125 -7.363281 18.460938 -5.929688 17.765625 -4.421875 C 17.066406 -2.910156 15.925781 -1.707031 14.34375 -0.8125 C 12.757812 0.0820312 10.882812 0.550781 8.71875 0.59375 C 5.925781 0.59375 3.414062 -0.257812 1.1875 -1.96875 L 4.453125 -6.6875 C 6.003906 -5.132812 7.601562 -4.359375 9.25 -4.359375 C 10.164062 -4.359375 10.9375 -4.597656 11.5625 -5.078125 C 12.195312 -5.554688 12.515625 -6.160156 12.515625 -6.890625 C 12.515625 -7.847656 11.554688 -8.585938 9.640625 -9.109375 C 7.335938 -9.742188 5.847656 -10.425781 5.171875 -11.15625 C 4.492188 -11.882812 4.15625 -12.851562 4.15625 -14.0625 C 4.15625 -16.613281 5.023438 -18.757812 6.765625 -20.5 C 8.503906 -22.238281 10.648438 -23.109375 13.203125 -23.109375 Z M 13.203125 -23.109375 "/></g></g></g><g fill="#f4faf8" fill-opacity="1"><g transform="translate(1360.571039, 68.834304)"><g><path d="M 20.359375 -14.953125 C 19.898438 -15.753906 19.25 -16.367188 18.40625 -16.796875 C 17.5625 -17.222656 16.628906 -17.4375 15.609375 -17.4375 C 13.722656 -17.4375 12.070312 -16.707031 10.65625 -15.25 C 9.25 -13.800781 8.546875 -12.082031 8.546875 -10.09375 C 8.546875 -8.601562 9.019531 -7.394531 9.96875 -6.46875 C 10.925781 -5.539062 12.191406 -5.078125 13.765625 -5.078125 C 14.722656 -5.078125 15.679688 -5.289062 16.640625 -5.71875 C 17.609375 -6.144531 18.460938 -6.726562 19.203125 -7.46875 L 18.0625 -0.453125 C 17.644531 -0.304688 16.910156 -0.0976562 15.859375 0.171875 C 14.816406 0.453125 13.78125 0.59375 12.75 0.59375 C 10.9375 0.59375 9.242188 0.203125 7.671875 -0.578125 C 6.097656 -1.367188 4.828125 -2.472656 3.859375 -3.890625 C 2.898438 -5.316406 2.410156 -6.976562 2.390625 -8.875 C 2.390625 -11.414062 3.015625 -13.765625 4.265625 -15.921875 C 5.523438 -18.085938 7.265625 -19.828125 9.484375 -21.140625 C 11.703125 -22.453125 13.984375 -23.109375 16.328125 -23.109375 C 18.003906 -23.109375 19.726562 -22.726562 21.5 -21.96875 Z M 20.359375 -14.953125 "/></g></g></g><g fill="#f4faf8" fill-opacity="1"><g transform="translate(1380.277179, 68.834304)"><g><path d="M 27.671875 -13.4375 C 27.671875 -11.269531 27.046875 -9.019531 25.796875 -6.6875 C 24.546875 -4.351562 22.773438 -2.53125 20.484375 -1.21875 C 18.191406 0.09375 15.734375 0.75 13.109375 0.75 C 9.941406 0.75 7.375 -0.179688 5.40625 -2.046875 C 3.4375 -3.910156 2.453125 -6.363281 2.453125 -9.40625 C 2.453125 -11.914062 3.113281 -14.226562 4.4375 -16.34375 C 5.757812 -18.46875 7.554688 -20.148438 9.828125 -21.390625 C 12.109375 -22.640625 14.46875 -23.265625 16.90625 -23.265625 C 18.832031 -23.265625 20.632812 -22.84375 22.3125 -22 C 24 -21.164062 25.3125 -20.003906 26.25 -18.515625 C 27.195312 -17.035156 27.671875 -15.34375 27.671875 -13.4375 Z M 14 -4.921875 C 15.351562 -4.921875 16.601562 -5.296875 17.75 -6.046875 C 18.894531 -6.796875 19.804688 -7.757812 20.484375 -8.9375 C 21.160156 -10.125 21.5 -11.296875 21.5 -12.453125 C 21.5 -13.878906 20.957031 -15.09375 19.875 -16.09375 C 18.789062 -17.09375 17.488281 -17.59375 15.96875 -17.59375 C 14.800781 -17.59375 13.640625 -17.269531 12.484375 -16.625 C 11.328125 -15.988281 10.394531 -15.132812 9.6875 -14.0625 C 8.976562 -12.988281 8.625 -11.796875 8.625 -10.484375 C 8.625 -8.867188 9.125 -7.535156 10.125 -6.484375 C 11.132812 -5.441406 12.425781 -4.921875 14 -4.921875 Z M 14 -4.921875 "/></g></g></g><g fill="#f4faf8" fill-opacity="1"><g transform="translate(1406.761059, 68.834304)"><g><path d="M 14.359375 -22.515625 C 16.390625 -22.515625 18.015625 -22.035156 19.234375 -21.078125 C 20.460938 -20.117188 21.078125 -18.742188 21.078125 -16.953125 C 21.078125 -15.046875 20.507812 -13.359375 19.375 -11.890625 C 18.238281 -10.429688 16.785156 -9.539062 15.015625 -9.21875 L 20.625 0 L 13.34375 0 L 9.203125 -8.65625 L 9.140625 -8.65625 L 7.765625 0 L 1.90625 0 L 5.46875 -22.515625 Z M 9.734375 -12.421875 L 10.546875 -12.421875 C 11.910156 -12.421875 12.972656 -12.707031 13.734375 -13.28125 C 14.492188 -13.863281 14.875 -14.710938 14.875 -15.828125 C 14.875 -17.296875 13.660156 -18.03125 11.234375 -18.03125 L 10.625 -18.03125 Z M 9.734375 -12.421875 "/></g></g></g><g fill="#f4faf8" fill-opacity="1"><g transform="translate(1427.064369, 68.834304)"><g><path d="M 18.28125 -22.515625 L 17.5 -17.5625 L 10.546875 -17.5625 L 9.9375 -13.796875 L 16.546875 -13.796875 L 15.765625 -8.84375 L 9.171875 -8.84375 L 8.546875 -4.953125 L 15.5 -4.953125 L 14.71875 0 L 1.90625 0 L 5.46875 -22.515625 Z M 18.28125 -22.515625 "/></g></g></g><g fill="#f4faf8" fill-opacity="1"><g transform="translate(690.604292, 68.834304)"><g><path d="M 14.359375 -22.515625 C 16.390625 -22.515625 18.015625 -22.035156 19.234375 -21.078125 C 20.460938 -20.117188 21.078125 -18.742188 21.078125 -16.953125 C 21.078125 -15.046875 20.507812 -13.359375 19.375 -11.890625 C 18.238281 -10.429688 16.785156 -9.539062 15.015625 -9.21875 L 20.625 0 L 13.34375 0 L 9.203125 -8.65625 L 9.140625 -8.65625 L 7.765625 0 L 1.90625 0 L 5.46875 -22.515625 Z M 9.734375 -12.421875 L 10.546875 -12.421875 C 11.910156 -12.421875 12.972656 -12.707031 13.734375 -13.28125 C 14.492188 -13.863281 14.875 -14.710938 14.875 -15.828125 C 14.875 -17.296875 13.660156 -18.03125 11.234375 -18.03125 L 10.625 -18.03125 Z M 9.734375 -12.421875 "/></g></g></g><g fill="#f4faf8" fill-opacity="1"><g transform="translate(710.907602, 68.834304)"><g><path d="M 27.671875 -13.4375 C 27.671875 -11.269531 27.046875 -9.019531 25.796875 -6.6875 C 24.546875 -4.351562 22.773438 -2.53125 20.484375 -1.21875 C 18.191406 0.09375 15.734375 0.75 13.109375 0.75 C 9.941406 0.75 7.375 -0.179688 5.40625 -2.046875 C 3.4375 -3.910156 2.453125 -6.363281 2.453125 -9.40625 C 2.453125 -11.914062 3.113281 -14.226562 4.4375 -16.34375 C 5.757812 -18.46875 7.554688 -20.148438 9.828125 -21.390625 C 12.109375 -22.640625 14.46875 -23.265625 16.90625 -23.265625 C 18.832031 -23.265625 20.632812 -22.84375 22.3125 -22 C 24 -21.164062 25.3125 -20.003906 26.25 -18.515625 C 27.195312 -17.035156 27.671875 -15.34375 27.671875 -13.4375 Z M 14 -4.921875 C 15.351562 -4.921875 16.601562 -5.296875 17.75 -6.046875 C 18.894531 -6.796875 19.804688 -7.757812 20.484375 -8.9375 C 21.160156 -10.125 21.5 -11.296875 21.5 -12.453125 C 21.5 -13.878906 20.957031 -15.09375 19.875 -16.09375 C 18.789062 -17.09375 17.488281 -17.59375 15.96875 -17.59375 C 14.800781 -17.59375 13.640625 -17.269531 12.484375 -16.625 C 11.328125 -15.988281 10.394531 -15.132812 9.6875 -14.0625 C 8.976562 -12.988281 8.625 -11.796875 8.625 -10.484375 C 8.625 -8.867188 9.125 -7.535156 10.125 -6.484375 C 11.132812 -5.441406 12.425781 -4.921875 14 -4.921875 Z M 14 -4.921875 "/></g></g></g><g fill="#f4faf8" fill-opacity="1"><g transform="translate(737.391482, 68.834304)"><g><path d="M 11.203125 -22.515625 L 9.34375 -10.625 C 9.164062 -9.550781 9.078125 -8.675781 9.078125 -8 C 9.078125 -6.863281 9.320312 -6 9.8125 -5.40625 C 10.300781 -4.820312 11.140625 -4.53125 12.328125 -4.53125 C 13.785156 -4.53125 14.894531 -5.003906 15.65625 -5.953125 C 16.425781 -6.898438 16.960938 -8.390625 17.265625 -10.421875 L 19.140625 -22.515625 L 25 -22.515625 L 22.96875 -9.5625 C 22.5625 -6.925781 21.867188 -4.921875 20.890625 -3.546875 C 19.921875 -2.179688 18.625 -1.148438 17 -0.453125 C 15.382812 0.242188 13.5625 0.59375 11.53125 0.59375 C 8.78125 0.59375 6.664062 0.00390625 5.1875 -1.171875 C 3.71875 -2.359375 2.984375 -4.085938 2.984375 -6.359375 C 2.984375 -6.773438 3.003906 -7.234375 3.046875 -7.734375 C 3.085938 -8.234375 3.851562 -13.160156 5.34375 -22.515625 Z M 11.203125 -22.515625 "/></g></g></g><g fill="#f4faf8" fill-opacity="1"><g transform="translate(760.620846, 68.834304)"><g><path d="M 11.3125 -22.515625 L 19.859375 -8.75 L 19.921875 -8.75 L 22.09375 -22.515625 L 27.953125 -22.515625 L 24.390625 0 L 18.546875 0 L 10 -13.796875 L 9.9375 -13.796875 L 7.765625 0 L 1.90625 0 L 5.46875 -22.515625 Z M 11.3125 -22.515625 "/></g></g></g><g fill="#f4faf8" fill-opacity="1"><g transform="translate(786.925564, 68.834304)"><g><path d="M 13.796875 -22.515625 C 15.671875 -22.515625 17.347656 -22.097656 18.828125 -21.265625 C 20.304688 -20.441406 21.46875 -19.300781 22.3125 -17.84375 C 23.164062 -16.394531 23.59375 -14.847656 23.59375 -13.203125 C 23.59375 -10.929688 22.976562 -8.773438 21.75 -6.734375 C 20.53125 -4.691406 18.875 -3.054688 16.78125 -1.828125 C 14.6875 -0.609375 12.503906 0 10.234375 0 L 1.90625 0 L 5.46875 -22.515625 Z M 8.546875 -4.953125 L 9.671875 -4.953125 C 12.046875 -4.953125 13.929688 -5.65625 15.328125 -7.0625 C 16.734375 -8.46875 17.4375 -10.285156 17.4375 -12.515625 C 17.4375 -14.023438 16.960938 -15.242188 16.015625 -16.171875 C 15.066406 -17.097656 13.660156 -17.5625 11.796875 -17.5625 L 10.546875 -17.5625 Z M 8.546875 -4.953125 "/></g></g></g><g fill="#f4faf8" fill-opacity="1"><g transform="translate(122.227846, 68.834304)"><g><path d="M 13.703125 -22.515625 L 16.390625 -10.484375 L 23.109375 -22.515625 L 28.9375 -22.515625 L 28.78125 0 L 22.9375 0 L 23.34375 -12.953125 L 23.296875 -12.953125 L 15.828125 0 L 13.5 0 L 10.390625 -12.953125 L 10.328125 -12.953125 L 6.390625 0 L 0.5625 0 L 7.9375 -22.515625 Z M 13.703125 -22.515625 "/></g></g></g><g fill="#f4faf8" fill-opacity="1"><g transform="translate(151.578074, 68.834304)"><g><path d="M 18.484375 -22.515625 L 23.40625 0 L 17.171875 0 L 16.328125 -3.90625 L 8.265625 -3.90625 L 6.09375 0 L -0.125 0 L 12.09375 -22.515625 Z M 10.59375 -8.390625 L 15.46875 -8.390625 L 14.21875 -15.5625 L 14.15625 -15.5625 Z M 10.59375 -8.390625 "/></g></g></g><g fill="#f4faf8" fill-opacity="1"><g transform="translate(174.897009, 68.834304)"><g><path d="M 14.578125 -22.515625 C 16.742188 -22.515625 18.453125 -22.023438 19.703125 -21.046875 C 20.960938 -20.078125 21.59375 -18.644531 21.59375 -16.75 C 21.59375 -15.257812 21.265625 -13.726562 20.609375 -12.15625 C 19.953125 -10.582031 18.882812 -9.394531 17.40625 -8.59375 C 15.9375 -7.800781 14.285156 -7.425781 12.453125 -7.46875 L 8.953125 -7.46875 L 7.765625 0 L 1.90625 0 L 5.46875 -22.515625 Z M 10.5625 -17.796875 L 9.703125 -12.1875 L 11.140625 -12.1875 C 12.785156 -12.1875 13.898438 -12.484375 14.484375 -13.078125 C 15.078125 -13.671875 15.375 -14.566406 15.375 -15.765625 C 15.375 -16.503906 15.128906 -17.023438 14.640625 -17.328125 C 14.160156 -17.640625 13.378906 -17.796875 12.296875 -17.796875 Z M 10.5625 -17.796875 "/></g></g></g></svg>