<svg xmlns="http://www.w3.org/2000/svg" xmlns:xlink="http://www.w3.org/1999/xlink" width="42" zoomAndPan="magnify" viewBox="0 0 31.5 31.499999" height="42" preserveAspectRatio="xMidYMid meet" version="1.0"><defs><clipPath id="dee32e28fb"><path d="M 1 1 L 30 1 L 30 30 L 1 30 Z M 1 1 " clip-rule="nonzero"/></clipPath><clipPath id="34ee00fe51"><path d="M 0 25.832031 L 26.144531 -0.3125 L 31.867188 5.40625 L 5.71875 31.550781 Z M 0 25.832031 " clip-rule="nonzero"/></clipPath><clipPath id="84dfa87009"><path d="M 2.832031 23 L 23.003906 2.828125 C 24.570312 1.261719 27.105469 1.261719 28.667969 2.828125 C 30.234375 4.390625 30.234375 6.925781 28.667969 8.492188 L 8.496094 28.664062 C 6.933594 30.226562 4.394531 30.226562 2.832031 28.664062 C 1.269531 27.101562 1.269531 24.5625 2.832031 23 " clip-rule="nonzero"/></clipPath><clipPath id="3a531775c3"><path d="M 1 1 L 30 1 L 30 30 L 1 30 Z M 1 1 " clip-rule="nonzero"/></clipPath><clipPath id="6764ec7d7e"><path d="M 5.660156 0.00390625 L 31.804688 26.148438 L 26.085938 31.867188 L -0.0585938 5.722656 Z M 5.660156 0.00390625 " clip-rule="nonzero"/></clipPath><clipPath id="13ca91ed93"><path d="M 8.492188 2.835938 L 28.664062 23.007812 C 30.230469 24.570312 30.230469 27.105469 28.664062 28.671875 C 27.101562 30.234375 24.566406 30.234375 23 28.671875 L 2.828125 8.5 C 1.265625 6.933594 1.265625 4.398438 2.828125 2.835938 C 4.390625 1.269531 6.929688 1.269531 8.492188 2.835938 " clip-rule="nonzero"/></clipPath></defs><g clip-path="url(#dee32e28fb)"><g clip-path="url(#34ee00fe51)"><g clip-path="url(#84dfa87009)"><path fill="#ffffff" d="M 0 25.832031 L 25.738281 0.09375 L 31.457031 5.8125 L 5.71875 31.550781 Z M 0 25.832031 " fill-opacity="1" fill-rule="nonzero"/></g></g></g><g clip-path="url(#3a531775c3)"><g clip-path="url(#6764ec7d7e)"><g clip-path="url(#13ca91ed93)"><path fill="#ffffff" d="M 5.660156 0.00390625 L 31.398438 25.742188 L 25.679688 31.460938 L -0.0585938 5.722656 Z M 5.660156 0.00390625 " fill-opacity="1" fill-rule="nonzero"/></g></g></g></svg>