<svg xmlns="http://www.w3.org/2000/svg" xmlns:xlink="http://www.w3.org/1999/xlink" width="175" zoomAndPan="magnify" viewBox="0 0 131.25 66" height="88" preserveAspectRatio="xMidYMid meet" version="1.0"><defs><g/><clipPath id="7ad1543e77"><path d="M 0 0.1875 L 130.503906 0.1875 L 130.503906 65.722656 L 0 65.722656 Z M 0 0.1875 " clip-rule="nonzero"/></clipPath><clipPath id="3aebd92127"><path d="M 30.574219 0.1875 L 99.824219 0.1875 C 107.933594 0.1875 115.710938 3.410156 121.445312 9.144531 C 127.179688 14.875 130.398438 22.652344 130.398438 30.761719 L 130.398438 34.878906 C 130.398438 42.988281 127.179688 50.761719 121.445312 56.496094 C 115.710938 62.230469 107.933594 65.453125 99.824219 65.453125 L 30.574219 65.453125 C 22.464844 65.453125 14.6875 62.230469 8.957031 56.496094 C 3.222656 50.761719 0 42.988281 0 34.878906 L 0 30.761719 C 0 22.652344 3.222656 14.875 8.957031 9.144531 C 14.6875 3.410156 22.464844 0.1875 30.574219 0.1875 " clip-rule="nonzero"/></clipPath></defs><g clip-path="url(#7ad1543e77)"><g clip-path="url(#3aebd92127)"><path fill="#f3f3f3" d="M 0 0.1875 L 130.363281 0.1875 L 130.363281 65.722656 L 0 65.722656 Z M 0 0.1875 " fill-opacity="1" fill-rule="nonzero"/></g></g><g fill="#000000" fill-opacity="1"><g transform="translate(21.766246, 38.965909)"><g><path d="M 9.125 -14.984375 L 10.90625 -6.96875 L 15.390625 -14.984375 L 19.265625 -14.984375 L 19.15625 0 L 15.265625 0 L 15.546875 -8.625 L 15.5 -8.625 L 10.53125 0 L 8.984375 0 L 6.921875 -8.625 L 6.875 -8.625 L 4.25 0 L 0.375 0 L 5.28125 -14.984375 Z M 9.125 -14.984375 "/></g></g></g><g fill="#000000" fill-opacity="1"><g transform="translate(41.306836, 38.965909)"><g><path d="M 12.15625 -14.984375 L 11.640625 -11.6875 L 7.015625 -11.6875 L 6.625 -9.1875 L 11.015625 -9.1875 L 10.5 -5.890625 L 6.109375 -5.890625 L 5.6875 -3.296875 L 10.3125 -3.296875 L 9.796875 0 L 1.265625 0 L 3.640625 -14.984375 Z M 12.15625 -14.984375 "/></g></g></g><g fill="#000000" fill-opacity="1"><g transform="translate(52.240027, 38.965909)"><g><path d="M 9.1875 -14.984375 C 10.425781 -14.984375 11.539062 -14.707031 12.53125 -14.15625 C 13.519531 -13.613281 14.296875 -12.859375 14.859375 -11.890625 C 15.421875 -10.921875 15.703125 -9.882812 15.703125 -8.78125 C 15.703125 -7.269531 15.289062 -5.832031 14.46875 -4.46875 C 13.65625 -3.113281 12.550781 -2.03125 11.15625 -1.21875 C 9.769531 -0.40625 8.320312 0 6.8125 0 L 1.265625 0 L 3.640625 -14.984375 Z M 5.6875 -3.296875 L 6.4375 -3.296875 C 8.007812 -3.296875 9.265625 -3.765625 10.203125 -4.703125 C 11.140625 -5.640625 11.609375 -6.847656 11.609375 -8.328125 C 11.609375 -9.335938 11.289062 -10.148438 10.65625 -10.765625 C 10.03125 -11.378906 9.09375 -11.6875 7.84375 -11.6875 L 7.015625 -11.6875 Z M 5.6875 -3.296875 "/></g></g></g><g fill="#000000" fill-opacity="1"><g transform="translate(67.188674, 38.965909)"><g><path d="M 7.53125 -14.984375 L 5.171875 0 L 1.265625 0 L 3.640625 -14.984375 Z M 7.53125 -14.984375 "/></g></g></g><g fill="#000000" fill-opacity="1"><g transform="translate(73.629318, 38.965909)"><g><path d="M 7.453125 -14.984375 L 6.21875 -7.078125 C 6.101562 -6.359375 6.046875 -5.773438 6.046875 -5.328125 C 6.046875 -4.566406 6.207031 -3.988281 6.53125 -3.59375 C 6.851562 -3.207031 7.410156 -3.015625 8.203125 -3.015625 C 9.171875 -3.015625 9.910156 -3.328125 10.421875 -3.953125 C 10.929688 -4.585938 11.285156 -5.582031 11.484375 -6.9375 L 12.734375 -14.984375 L 16.640625 -14.984375 L 15.28125 -6.359375 C 15.019531 -4.609375 14.5625 -3.273438 13.90625 -2.359375 C 13.257812 -1.453125 12.394531 -0.765625 11.3125 -0.296875 C 10.238281 0.160156 9.023438 0.390625 7.671875 0.390625 C 5.835938 0.390625 4.429688 0 3.453125 -0.78125 C 2.472656 -1.570312 1.984375 -2.722656 1.984375 -4.234375 C 1.984375 -4.515625 1.992188 -4.816406 2.015625 -5.140625 C 2.046875 -5.472656 2.5625 -8.753906 3.5625 -14.984375 Z M 7.453125 -14.984375 "/></g></g></g><g fill="#000000" fill-opacity="1"><g transform="translate(89.094803, 38.965909)"><g><path d="M 9.125 -14.984375 L 10.90625 -6.96875 L 15.390625 -14.984375 L 19.265625 -14.984375 L 19.15625 0 L 15.265625 0 L 15.546875 -8.625 L 15.5 -8.625 L 10.53125 0 L 8.984375 0 L 6.921875 -8.625 L 6.875 -8.625 L 4.25 0 L 0.375 0 L 5.28125 -14.984375 Z M 9.125 -14.984375 "/></g></g></g></svg>