<svg xmlns="http://www.w3.org/2000/svg" xmlns:xlink="http://www.w3.org/1999/xlink" width="734" zoomAndPan="magnify" viewBox="0 0 550.5 187.499995" height="250" preserveAspectRatio="xMidYMid meet" version="1.0"><defs><filter x="0%" y="0%" width="100%" height="100%" id="0c5e0848a6"><feColorMatrix values="0 0 0 0 1 0 0 0 0 1 0 0 0 0 1 0 0 0 1 0" color-interpolation-filters="sRGB"/></filter><g/><clipPath id="9dab0e2e62"><path d="M 0.484375 0 L 549.519531 0 L 549.519531 187 L 0.484375 187 Z M 0.484375 0 " clip-rule="nonzero"/></clipPath><mask id="d9f22f97af"><g filter="url(#0c5e0848a6)"><rect x="-55.05" width="660.6" fill="#000000" y="-18.749999" height="224.999994" fill-opacity="0.749"/></g></mask><clipPath id="b896ced7a0"><path d="M 0.484375 0 L 549.519531 0 L 549.519531 187 L 0.484375 187 Z M 0.484375 0 " clip-rule="nonzero"/></clipPath><clipPath id="9224d77ef3"><path d="M 31.179688 0 L 519.3125 0 C 536.265625 0 550.007812 13.742188 550.007812 30.695312 L 550.007812 156.476562 C 550.007812 173.429688 536.265625 187.171875 519.3125 187.171875 L 31.179688 187.171875 C 14.226562 187.171875 0.484375 173.429688 0.484375 156.476562 L 0.484375 30.695312 C 0.484375 13.742188 14.226562 0 31.179688 0 " clip-rule="nonzero"/></clipPath><clipPath id="f32757e1a6"><rect x="0" width="550" y="0" height="187"/></clipPath></defs><g clip-path="url(#9dab0e2e62)"><g mask="url(#d9f22f97af)"><g transform="matrix(1, 0, 0, 1, 0.000000000000000056, 0)"><g clip-path="url(#f32757e1a6)"><g clip-path="url(#b896ced7a0)"><g clip-path="url(#9224d77ef3)"><path fill="#3793cb" d="M 0.484375 0 L 550.167969 0 L 550.167969 186.933594 L 0.484375 186.933594 Z M 0.484375 0 " fill-opacity="1" fill-rule="nonzero"/></g></g></g></g></g></g><g fill="#f3f3f3" fill-opacity="1"><g transform="translate(142.857677, 54.165595)"><g><path d="M 11.03125 -19.3125 C 13.039062 -19.3125 14.925781 -18.796875 16.6875 -17.765625 L 14.140625 -13.96875 C 13.265625 -14.800781 12.253906 -15.21875 11.109375 -15.21875 C 10.503906 -15.21875 9.957031 -15.046875 9.46875 -14.703125 C 8.976562 -14.367188 8.734375 -13.953125 8.734375 -13.453125 C 8.734375 -13.085938 8.90625 -12.765625 9.25 -12.484375 C 9.601562 -12.210938 10.242188 -11.941406 11.171875 -11.671875 C 12.441406 -11.296875 13.359375 -10.925781 13.921875 -10.5625 C 14.484375 -10.207031 14.921875 -9.765625 15.234375 -9.234375 C 15.554688 -8.710938 15.71875 -8.0625 15.71875 -7.28125 C 15.71875 -6.15625 15.425781 -4.957031 14.84375 -3.6875 C 14.257812 -2.425781 13.304688 -1.421875 11.984375 -0.671875 C 10.660156 0.078125 9.09375 0.46875 7.28125 0.5 C 4.957031 0.5 2.863281 -0.210938 1 -1.640625 L 3.71875 -5.59375 C 5.019531 -4.289062 6.359375 -3.640625 7.734375 -3.640625 C 8.503906 -3.640625 9.148438 -3.835938 9.671875 -4.234375 C 10.191406 -4.640625 10.453125 -5.148438 10.453125 -5.765625 C 10.453125 -6.566406 9.65625 -7.179688 8.0625 -7.609375 C 6.132812 -8.140625 4.882812 -8.707031 4.3125 -9.3125 C 3.75 -9.925781 3.46875 -10.738281 3.46875 -11.75 C 3.46875 -13.882812 4.191406 -15.675781 5.640625 -17.125 C 7.097656 -18.582031 8.894531 -19.3125 11.03125 -19.3125 Z M 11.03125 -19.3125 "/></g></g></g><g fill="#f3f3f3" fill-opacity="1"><g transform="translate(158.199106, 54.165595)"><g><path d="M 15.75 -7.65625 C 15.75 -7.144531 15.679688 -6.472656 15.546875 -5.640625 L 5.984375 -5.640625 C 5.972656 -5.554688 5.960938 -5.453125 5.953125 -5.328125 C 5.941406 -5.203125 5.9375 -5.070312 5.9375 -4.9375 C 5.9375 -3.519531 6.753906 -2.804688 8.390625 -2.796875 C 9.421875 -2.796875 10.203125 -3.1875 10.734375 -3.96875 L 15.09375 -3.96875 C 14.582031 -2.625 13.675781 -1.554688 12.375 -0.765625 C 11.082031 0.0234375 9.585938 0.421875 7.890625 0.421875 C 5.867188 0.421875 4.289062 -0.0664062 3.15625 -1.046875 C 2.03125 -2.023438 1.46875 -3.375 1.46875 -5.09375 C 1.46875 -6.59375 1.828125 -7.976562 2.546875 -9.25 C 3.273438 -10.53125 4.273438 -11.507812 5.546875 -12.1875 C 6.828125 -12.875 8.179688 -13.21875 9.609375 -13.21875 C 11.566406 -13.21875 13.078125 -12.738281 14.140625 -11.78125 C 15.210938 -10.832031 15.75 -9.457031 15.75 -7.65625 Z M 11.734375 -8.265625 L 11.734375 -8.28125 C 11.710938 -8.882812 11.484375 -9.367188 11.046875 -9.734375 C 10.617188 -10.097656 10.085938 -10.28125 9.453125 -10.28125 C 8.785156 -10.28125 8.179688 -10.101562 7.640625 -9.75 C 7.109375 -9.40625 6.71875 -8.910156 6.46875 -8.265625 Z M 11.734375 -8.265625 "/></g></g></g><g fill="#f3f3f3" fill-opacity="1"><g transform="translate(173.415807, 54.165595)"><g><path d="M 9.3125 -20.71875 L 6.03125 0 L 1.5 0 L 4.765625 -20.71875 Z M 9.3125 -20.71875 "/></g></g></g><g fill="#f3f3f3" fill-opacity="1"><g transform="translate(180.949328, 54.165595)"><g><path d="M 15.75 -7.65625 C 15.75 -7.144531 15.679688 -6.472656 15.546875 -5.640625 L 5.984375 -5.640625 C 5.972656 -5.554688 5.960938 -5.453125 5.953125 -5.328125 C 5.941406 -5.203125 5.9375 -5.070312 5.9375 -4.9375 C 5.9375 -3.519531 6.753906 -2.804688 8.390625 -2.796875 C 9.421875 -2.796875 10.203125 -3.1875 10.734375 -3.96875 L 15.09375 -3.96875 C 14.582031 -2.625 13.675781 -1.554688 12.375 -0.765625 C 11.082031 0.0234375 9.585938 0.421875 7.890625 0.421875 C 5.867188 0.421875 4.289062 -0.0664062 3.15625 -1.046875 C 2.03125 -2.023438 1.46875 -3.375 1.46875 -5.09375 C 1.46875 -6.59375 1.828125 -7.976562 2.546875 -9.25 C 3.273438 -10.53125 4.273438 -11.507812 5.546875 -12.1875 C 6.828125 -12.875 8.179688 -13.21875 9.609375 -13.21875 C 11.566406 -13.21875 13.078125 -12.738281 14.140625 -11.78125 C 15.210938 -10.832031 15.75 -9.457031 15.75 -7.65625 Z M 11.734375 -8.265625 L 11.734375 -8.28125 C 11.710938 -8.882812 11.484375 -9.367188 11.046875 -9.734375 C 10.617188 -10.097656 10.085938 -10.28125 9.453125 -10.28125 C 8.785156 -10.28125 8.179688 -10.101562 7.640625 -9.75 C 7.109375 -9.40625 6.71875 -8.910156 6.46875 -8.265625 Z M 11.734375 -8.265625 "/></g></g></g><g fill="#f3f3f3" fill-opacity="1"><g transform="translate(196.166029, 54.165595)"><g><path d="M 12.109375 -8.640625 C 11.398438 -9.234375 10.664062 -9.53125 9.90625 -9.53125 C 8.957031 -9.53125 8.109375 -9.171875 7.359375 -8.453125 C 6.609375 -7.742188 6.234375 -6.875 6.234375 -5.84375 C 6.234375 -5.0625 6.488281 -4.4375 7 -3.96875 C 7.507812 -3.5 8.171875 -3.265625 8.984375 -3.265625 C 9.828125 -3.265625 10.625 -3.554688 11.375 -4.140625 L 10.78125 -0.296875 C 9.71875 0.179688 8.570312 0.421875 7.34375 0.421875 C 5.726562 0.421875 4.34375 -0.0976562 3.1875 -1.140625 C 2.039062 -2.191406 1.46875 -3.523438 1.46875 -5.140625 C 1.46875 -6.523438 1.832031 -7.835938 2.5625 -9.078125 C 3.300781 -10.328125 4.300781 -11.320312 5.5625 -12.0625 C 6.832031 -12.800781 8.222656 -13.1875 9.734375 -13.21875 C 10.910156 -13.21875 11.898438 -12.972656 12.703125 -12.484375 Z M 12.109375 -8.640625 "/></g></g></g><g fill="#f3f3f3" fill-opacity="1"><g transform="translate(208.214671, 54.165595)"><g><path d="M 9.109375 -16.640625 L 8.484375 -12.796875 L 11.046875 -12.796875 L 10.453125 -9.0625 L 7.890625 -9.0625 L 6.46875 0 L 1.921875 0 L 3.34375 -9.0625 L 1.875 -9.0625 L 2.46875 -12.796875 L 3.9375 -12.796875 L 4.5625 -16.640625 Z M 9.109375 -16.640625 "/></g></g></g><g fill="#f3f3f3" fill-opacity="1"><g transform="translate(217.195027, 54.165595)"><g/></g></g><g fill="#f3f3f3" fill-opacity="1"><g transform="translate(225.751302, 54.165595)"><g><path d="M 6.890625 -12.796875 L 9.28125 -6.234375 L 13.65625 -12.796875 L 18.8125 -12.796875 L 5.515625 6.390625 L 0.421875 6.390625 L 6.09375 -1.75 L 1.640625 -12.796875 Z M 6.890625 -12.796875 "/></g></g></g><g fill="#f3f3f3" fill-opacity="1"><g transform="translate(242.065611, 54.165595)"><g><path d="M 17.09375 -7.515625 C 17.09375 -6.078125 16.703125 -4.75 15.921875 -3.53125 C 15.140625 -2.3125 14.054688 -1.347656 12.671875 -0.640625 C 11.296875 0.0664062 9.816406 0.421875 8.234375 0.421875 C 6.222656 0.421875 4.59375 -0.0859375 3.34375 -1.109375 C 2.09375 -2.128906 1.46875 -3.5 1.46875 -5.21875 C 1.46875 -6.675781 1.863281 -8.03125 2.65625 -9.28125 C 3.445312 -10.53125 4.519531 -11.5 5.875 -12.1875 C 7.226562 -12.875 8.6875 -13.21875 10.25 -13.21875 C 12.28125 -13.21875 13.925781 -12.703125 15.1875 -11.671875 C 16.457031 -10.640625 17.09375 -9.253906 17.09375 -7.515625 Z M 8.8125 -3.515625 C 9.789062 -3.515625 10.609375 -3.847656 11.265625 -4.515625 C 11.921875 -5.179688 12.25 -5.988281 12.25 -6.9375 C 12.25 -7.613281 12.019531 -8.171875 11.5625 -8.609375 C 11.101562 -9.054688 10.484375 -9.28125 9.703125 -9.28125 C 8.773438 -9.28125 7.976562 -8.945312 7.3125 -8.28125 C 6.644531 -7.613281 6.3125 -6.789062 6.3125 -5.8125 C 6.3125 -5.113281 6.53125 -4.554688 6.96875 -4.140625 C 7.414062 -3.722656 8.03125 -3.515625 8.8125 -3.515625 Z M 8.8125 -3.515625 "/></g></g></g><g fill="#f3f3f3" fill-opacity="1"><g transform="translate(258.579476, 54.165595)"><g><path d="M 7.984375 -12.796875 L 6.90625 -5.96875 C 6.894531 -5.832031 6.878906 -5.675781 6.859375 -5.5 C 6.847656 -5.320312 6.84375 -5.148438 6.84375 -4.984375 C 6.84375 -4.335938 7 -3.875 7.3125 -3.59375 C 7.625 -3.320312 8.097656 -3.1875 8.734375 -3.1875 C 9.492188 -3.1875 10.09375 -3.378906 10.53125 -3.765625 C 10.976562 -4.160156 11.296875 -4.957031 11.484375 -6.15625 C 11.679688 -7.351562 12.03125 -9.566406 12.53125 -12.796875 L 17.0625 -12.796875 L 15.84375 -5.09375 C 15.257812 -1.414062 12.695312 0.421875 8.15625 0.421875 C 6.125 0.421875 4.609375 0.0625 3.609375 -0.65625 C 2.617188 -1.382812 2.125 -2.476562 2.125 -3.9375 C 2.125 -4.125 2.132812 -4.332031 2.15625 -4.5625 C 2.1875 -4.800781 2.207031 -4.96875 2.21875 -5.0625 L 3.4375 -12.796875 Z M 7.984375 -12.796875 "/></g></g></g><g fill="#f3f3f3" fill-opacity="1"><g transform="translate(275.018512, 54.165595)"><g><path d="M 12.484375 -8.609375 C 12.078125 -8.890625 11.453125 -9.03125 10.609375 -9.03125 C 9.546875 -9.03125 8.707031 -8.722656 8.09375 -8.109375 C 7.488281 -7.492188 7.078125 -6.519531 6.859375 -5.1875 L 6.03125 0 L 1.5 0 L 3.515625 -12.796875 L 8.0625 -12.796875 L 7.734375 -10.703125 L 7.78125 -10.703125 C 8.863281 -12.210938 10.390625 -12.96875 12.359375 -12.96875 L 13.15625 -12.96875 Z M 12.484375 -8.609375 "/></g></g></g><g fill="#f3f3f3" fill-opacity="1"><g transform="translate(286.318787, 54.165595)"><g/></g></g><g fill="#f3f3f3" fill-opacity="1"><g transform="translate(294.875062, 54.165595)"><g><path d="M 18.9375 -20.71875 L 15.671875 0 L 11.125 0 L 11.359375 -1.421875 L 11.296875 -1.421875 C 10.835938 -0.828125 10.226562 -0.367188 9.46875 -0.046875 C 8.707031 0.265625 7.929688 0.421875 7.140625 0.421875 C 5.535156 0.421875 4.222656 -0.101562 3.203125 -1.15625 C 2.179688 -2.21875 1.671875 -3.570312 1.671875 -5.21875 C 1.671875 -6.5625 2.019531 -7.859375 2.71875 -9.109375 C 3.414062 -10.367188 4.34375 -11.367188 5.5 -12.109375 C 6.65625 -12.847656 7.90625 -13.21875 9.25 -13.21875 C 10.019531 -13.21875 10.726562 -13.078125 11.375 -12.796875 C 12.03125 -12.515625 12.554688 -12.097656 12.953125 -11.546875 L 14.390625 -20.71875 Z M 8.90625 -3.515625 C 9.882812 -3.515625 10.703125 -3.851562 11.359375 -4.53125 C 12.023438 -5.21875 12.359375 -6.003906 12.359375 -6.890625 C 12.359375 -7.640625 12.125 -8.222656 11.65625 -8.640625 C 11.1875 -9.066406 10.570312 -9.28125 9.8125 -9.28125 C 8.84375 -9.28125 8.03125 -8.9375 7.375 -8.25 C 6.726562 -7.570312 6.40625 -6.757812 6.40625 -5.8125 C 6.40625 -5.113281 6.628906 -4.554688 7.078125 -4.140625 C 7.535156 -3.722656 8.144531 -3.515625 8.90625 -3.515625 Z M 8.90625 -3.515625 "/></g></g></g><g fill="#f3f3f3" fill-opacity="1"><g transform="translate(311.887839, 54.165595)"><g><path d="M 9.140625 -18.109375 C 9.140625 -17.328125 8.832031 -16.640625 8.21875 -16.046875 C 7.613281 -15.460938 6.925781 -15.171875 6.15625 -15.171875 C 5.5625 -15.171875 5.050781 -15.375 4.625 -15.78125 C 4.207031 -16.1875 4 -16.707031 4 -17.34375 C 4 -18.09375 4.304688 -18.765625 4.921875 -19.359375 C 5.535156 -19.960938 6.222656 -20.265625 6.984375 -20.265625 C 7.597656 -20.265625 8.109375 -20.054688 8.515625 -19.640625 C 8.929688 -19.222656 9.140625 -18.710938 9.140625 -18.109375 Z M 8.0625 -12.796875 L 6.03125 0 L 1.5 0 L 3.515625 -12.796875 Z M 8.0625 -12.796875 "/></g></g></g><g fill="#f3f3f3" fill-opacity="1"><g transform="translate(319.421359, 54.165595)"><g><path d="M 11 -20.953125 C 11.75 -20.953125 12.382812 -20.804688 12.90625 -20.515625 L 12.28125 -16.59375 C 11.707031 -16.875 11.195312 -17.015625 10.75 -17.015625 C 10.15625 -17.015625 9.710938 -16.816406 9.421875 -16.421875 C 9.128906 -16.035156 8.929688 -15.519531 8.828125 -14.875 L 8.515625 -12.796875 L 11.671875 -12.796875 L 11.078125 -9.0625 L 7.90625 -9.0625 L 6.484375 0 L 1.953125 0 L 3.375 -9.0625 L 1.765625 -9.0625 L 2.375 -12.796875 L 3.96875 -12.796875 L 4.234375 -14.421875 C 4.472656 -15.984375 4.800781 -17.070312 5.21875 -17.6875 C 5.632812 -18.300781 6.164062 -18.875 6.8125 -19.40625 C 7.457031 -19.945312 8.148438 -20.335938 8.890625 -20.578125 C 9.628906 -20.828125 10.332031 -20.953125 11 -20.953125 Z M 11 -20.953125 "/></g></g></g><g fill="#f3f3f3" fill-opacity="1"><g transform="translate(329.100185, 54.165595)"><g><path d="M 11 -20.953125 C 11.75 -20.953125 12.382812 -20.804688 12.90625 -20.515625 L 12.28125 -16.59375 C 11.707031 -16.875 11.195312 -17.015625 10.75 -17.015625 C 10.15625 -17.015625 9.710938 -16.816406 9.421875 -16.421875 C 9.128906 -16.035156 8.929688 -15.519531 8.828125 -14.875 L 8.515625 -12.796875 L 11.671875 -12.796875 L 11.078125 -9.0625 L 7.90625 -9.0625 L 6.484375 0 L 1.953125 0 L 3.375 -9.0625 L 1.765625 -9.0625 L 2.375 -12.796875 L 3.96875 -12.796875 L 4.234375 -14.421875 C 4.472656 -15.984375 4.800781 -17.070312 5.21875 -17.6875 C 5.632812 -18.300781 6.164062 -18.875 6.8125 -19.40625 C 7.457031 -19.945312 8.148438 -20.335938 8.890625 -20.578125 C 9.628906 -20.828125 10.332031 -20.953125 11 -20.953125 Z M 11 -20.953125 "/></g></g></g><g fill="#f3f3f3" fill-opacity="1"><g transform="translate(338.77901, 54.165595)"><g><path d="M 9.140625 -18.109375 C 9.140625 -17.328125 8.832031 -16.640625 8.21875 -16.046875 C 7.613281 -15.460938 6.925781 -15.171875 6.15625 -15.171875 C 5.5625 -15.171875 5.050781 -15.375 4.625 -15.78125 C 4.207031 -16.1875 4 -16.707031 4 -17.34375 C 4 -18.09375 4.304688 -18.765625 4.921875 -19.359375 C 5.535156 -19.960938 6.222656 -20.265625 6.984375 -20.265625 C 7.597656 -20.265625 8.109375 -20.054688 8.515625 -19.640625 C 8.929688 -19.222656 9.140625 -18.710938 9.140625 -18.109375 Z M 8.0625 -12.796875 L 6.03125 0 L 1.5 0 L 3.515625 -12.796875 Z M 8.0625 -12.796875 "/></g></g></g><g fill="#f3f3f3" fill-opacity="1"><g transform="translate(346.312542, 54.165595)"><g><path d="M 12.109375 -8.640625 C 11.398438 -9.234375 10.664062 -9.53125 9.90625 -9.53125 C 8.957031 -9.53125 8.109375 -9.171875 7.359375 -8.453125 C 6.609375 -7.742188 6.234375 -6.875 6.234375 -5.84375 C 6.234375 -5.0625 6.488281 -4.4375 7 -3.96875 C 7.507812 -3.5 8.171875 -3.265625 8.984375 -3.265625 C 9.828125 -3.265625 10.625 -3.554688 11.375 -4.140625 L 10.78125 -0.296875 C 9.71875 0.179688 8.570312 0.421875 7.34375 0.421875 C 5.726562 0.421875 4.34375 -0.0976562 3.1875 -1.140625 C 2.039062 -2.191406 1.46875 -3.523438 1.46875 -5.140625 C 1.46875 -6.523438 1.832031 -7.835938 2.5625 -9.078125 C 3.300781 -10.328125 4.300781 -11.320312 5.5625 -12.0625 C 6.832031 -12.800781 8.222656 -13.1875 9.734375 -13.21875 C 10.910156 -13.21875 11.898438 -12.972656 12.703125 -12.484375 Z M 12.109375 -8.640625 "/></g></g></g><g fill="#f3f3f3" fill-opacity="1"><g transform="translate(358.361195, 54.165595)"><g><path d="M 7.984375 -12.796875 L 6.90625 -5.96875 C 6.894531 -5.832031 6.878906 -5.675781 6.859375 -5.5 C 6.847656 -5.320312 6.84375 -5.148438 6.84375 -4.984375 C 6.84375 -4.335938 7 -3.875 7.3125 -3.59375 C 7.625 -3.320312 8.097656 -3.1875 8.734375 -3.1875 C 9.492188 -3.1875 10.09375 -3.378906 10.53125 -3.765625 C 10.976562 -4.160156 11.296875 -4.957031 11.484375 -6.15625 C 11.679688 -7.351562 12.03125 -9.566406 12.53125 -12.796875 L 17.0625 -12.796875 L 15.84375 -5.09375 C 15.257812 -1.414062 12.695312 0.421875 8.15625 0.421875 C 6.125 0.421875 4.609375 0.0625 3.609375 -0.65625 C 2.617188 -1.382812 2.125 -2.476562 2.125 -3.9375 C 2.125 -4.125 2.132812 -4.332031 2.15625 -4.5625 C 2.1875 -4.800781 2.207031 -4.96875 2.21875 -5.0625 L 3.4375 -12.796875 Z M 7.984375 -12.796875 "/></g></g></g><g fill="#f3f3f3" fill-opacity="1"><g transform="translate(374.800231, 54.165595)"><g><path d="M 9.3125 -20.71875 L 6.03125 0 L 1.5 0 L 4.765625 -20.71875 Z M 9.3125 -20.71875 "/></g></g></g><g fill="#f3f3f3" fill-opacity="1"><g transform="translate(382.333741, 54.165595)"><g><path d="M 9.109375 -16.640625 L 8.484375 -12.796875 L 11.046875 -12.796875 L 10.453125 -9.0625 L 7.890625 -9.0625 L 6.46875 0 L 1.921875 0 L 3.34375 -9.0625 L 1.875 -9.0625 L 2.46875 -12.796875 L 3.9375 -12.796875 L 4.5625 -16.640625 Z M 9.109375 -16.640625 "/></g></g></g><g fill="#f3f3f3" fill-opacity="1"><g transform="translate(391.314097, 54.165595)"><g><path d="M 6.890625 -12.796875 L 9.28125 -6.234375 L 13.65625 -12.796875 L 18.8125 -12.796875 L 5.515625 6.390625 L 0.421875 6.390625 L 6.09375 -1.75 L 1.640625 -12.796875 Z M 6.890625 -12.796875 "/></g></g></g></svg>