<svg xmlns="http://www.w3.org/2000/svg" xmlns:xlink="http://www.w3.org/1999/xlink" width="175" zoomAndPan="magnify" viewBox="0 0 131.25 66" height="88" preserveAspectRatio="xMidYMid meet" version="1.0"><defs><g/><clipPath id="06190347ba"><path d="M 0 0.1875 L 130.503906 0.1875 L 130.503906 65.722656 L 0 65.722656 Z M 0 0.1875 " clip-rule="nonzero"/></clipPath><clipPath id="d2994373e7"><path d="M 30.574219 0.1875 L 99.824219 0.1875 C 107.933594 0.1875 115.710938 3.410156 121.445312 9.144531 C 127.179688 14.875 130.398438 22.652344 130.398438 30.761719 L 130.398438 34.878906 C 130.398438 42.988281 127.179688 50.761719 121.445312 56.496094 C 115.710938 62.230469 107.933594 65.453125 99.824219 65.453125 L 30.574219 65.453125 C 22.464844 65.453125 14.6875 62.230469 8.957031 56.496094 C 3.222656 50.761719 0 42.988281 0 34.878906 L 0 30.761719 C 0 22.652344 3.222656 14.875 8.957031 9.144531 C 14.6875 3.410156 22.464844 0.1875 30.574219 0.1875 " clip-rule="nonzero"/></clipPath></defs><g clip-path="url(#06190347ba)"><g clip-path="url(#d2994373e7)"><path fill="#f3f3f3" d="M 0 0.1875 L 130.363281 0.1875 L 130.363281 65.722656 L 0 65.722656 Z M 0 0.1875 " fill-opacity="1" fill-rule="nonzero"/></g></g><g fill="#000000" fill-opacity="1"><g transform="translate(35.224497, 38.965909)"><g><path d="M 7.53125 -14.984375 L 6.625 -9.203125 L 12.25 -9.203125 L 13.15625 -14.984375 L 17.046875 -14.984375 L 14.6875 0 L 10.796875 0 L 11.765625 -6.140625 L 6.140625 -6.140625 L 5.171875 0 L 1.265625 0 L 3.640625 -14.984375 Z M 7.53125 -14.984375 "/></g></g></g><g fill="#000000" fill-opacity="1"><g transform="translate(51.186951, 38.965909)"><g><path d="M 12.296875 -14.984375 L 15.578125 0 L 11.421875 0 L 10.875 -2.609375 L 5.5 -2.609375 L 4.046875 0 L -0.078125 0 L 8.046875 -14.984375 Z M 7.0625 -5.578125 L 10.296875 -5.578125 L 9.453125 -10.359375 L 9.421875 -10.359375 Z M 7.0625 -5.578125 "/></g></g></g><g fill="#000000" fill-opacity="1"><g transform="translate(66.712074, 38.965909)"><g><path d="M 9.5625 -14.984375 C 10.914062 -14.984375 12 -14.664062 12.8125 -14.03125 C 13.625 -13.394531 14.03125 -12.476562 14.03125 -11.28125 C 14.03125 -10.007812 13.648438 -8.882812 12.890625 -7.90625 C 12.140625 -6.9375 11.175781 -6.347656 10 -6.140625 L 13.734375 0 L 8.890625 0 L 6.125 -5.765625 L 6.078125 -5.765625 L 5.171875 0 L 1.265625 0 L 3.640625 -14.984375 Z M 6.484375 -8.265625 L 7.015625 -8.265625 C 7.929688 -8.265625 8.640625 -8.457031 9.140625 -8.84375 C 9.640625 -9.226562 9.890625 -9.789062 9.890625 -10.53125 C 9.890625 -11.507812 9.082031 -12 7.46875 -12 L 7.078125 -12 Z M 6.484375 -8.265625 "/></g></g></g><g fill="#000000" fill-opacity="1"><g transform="translate(80.229474, 38.965909)"><g><path d="M 9.1875 -14.984375 C 10.425781 -14.984375 11.539062 -14.707031 12.53125 -14.15625 C 13.519531 -13.613281 14.296875 -12.859375 14.859375 -11.890625 C 15.421875 -10.921875 15.703125 -9.882812 15.703125 -8.78125 C 15.703125 -7.269531 15.289062 -5.832031 14.46875 -4.46875 C 13.65625 -3.113281 12.550781 -2.03125 11.15625 -1.21875 C 9.769531 -0.40625 8.320312 0 6.8125 0 L 1.265625 0 L 3.640625 -14.984375 Z M 5.6875 -3.296875 L 6.4375 -3.296875 C 8.007812 -3.296875 9.265625 -3.765625 10.203125 -4.703125 C 11.140625 -5.640625 11.609375 -6.847656 11.609375 -8.328125 C 11.609375 -9.335938 11.289062 -10.148438 10.65625 -10.765625 C 10.03125 -11.378906 9.09375 -11.6875 7.84375 -11.6875 L 7.015625 -11.6875 Z M 5.6875 -3.296875 "/></g></g></g></svg>