<svg xmlns="http://www.w3.org/2000/svg" xmlns:xlink="http://www.w3.org/1999/xlink" width="40" zoomAndPan="magnify" viewBox="0 0 30 30.000001" height="40" preserveAspectRatio="xMidYMid meet" version="1.0"><defs><clipPath id="c71000669f"><path d="M 0.625 0.777344 L 18.042969 0.777344 L 18.042969 28.359375 L 0.625 28.359375 Z M 0.625 0.777344 " clip-rule="nonzero"/></clipPath><clipPath id="6302782e19"><path d="M 7.941406 0.777344 L 10.726562 0.777344 C 12.664062 0.777344 14.527344 1.546875 15.898438 2.910156 C 17.273438 4.277344 18.042969 6.132812 18.042969 8.0625 L 18.042969 21.074219 C 18.042969 23.003906 17.273438 24.859375 15.898438 26.226562 C 14.527344 27.589844 12.664062 28.359375 10.726562 28.359375 L 7.941406 28.359375 C 6 28.359375 4.140625 27.589844 2.765625 26.226562 C 1.394531 24.859375 0.625 23.003906 0.625 21.074219 L 0.625 8.0625 C 0.625 6.132812 1.394531 4.277344 2.765625 2.910156 C 4.140625 1.546875 6 0.777344 7.941406 0.777344 " clip-rule="nonzero"/></clipPath><clipPath id="a228f581ed"><path d="M 8 11.417969 L 24.339844 11.417969 L 24.339844 17.667969 L 8 17.667969 Z M 8 11.417969 " clip-rule="nonzero"/></clipPath><clipPath id="1973853185"><path d="M 24.339844 14.519531 C 24.339844 16.230469 22.953125 17.617188 21.242188 17.617188 L 11.21875 17.617188 C 9.507812 17.617188 8.121094 16.230469 8.121094 14.519531 C 8.121094 12.804688 9.507812 11.417969 11.21875 11.417969 L 21.242188 11.417969 C 22.953125 11.417969 24.339844 12.804688 24.339844 14.519531 " clip-rule="nonzero"/></clipPath><clipPath id="f9c978cfa0"><path d="M 19.164062 10 L 27.476562 10 L 27.476562 19 L 19.164062 19 Z M 19.164062 10 " clip-rule="nonzero"/></clipPath><clipPath id="2bf87c9532"><path d="M 26.359375 16.320312 L 22.3125 18.628906 C 21.660156 19.003906 20.859375 19 20.210938 18.625 C 19.5625 18.246094 19.164062 17.550781 19.164062 16.800781 L 19.164062 12.234375 C 19.164062 11.484375 19.5625 10.789062 20.210938 10.414062 C 20.859375 10.035156 21.660156 10.035156 22.3125 10.40625 L 26.359375 12.71875 C 27.003906 13.085938 27.402344 13.773438 27.402344 14.519531 C 27.402344 15.261719 27.003906 15.949219 26.359375 16.320312 " clip-rule="nonzero"/></clipPath></defs><g clip-path="url(#c71000669f)"><g clip-path="url(#6302782e19)"><path stroke-linecap="butt" transform="matrix(0.732002, 0, 0, 0.728803, 0.623537, 0.778165)" fill="none" stroke-linejoin="miter" d="M 9.997066 -0.00112652 L 13.801915 -0.00112652 C 16.448766 -0.00112652 18.994226 1.054757 20.867301 2.925332 C 22.745711 4.801268 23.796981 7.34718 23.796981 9.994928 L 23.796981 27.848472 C 23.796981 30.49622 22.745711 33.042132 20.867301 34.918067 C 18.994226 36.788643 16.448766 37.844526 13.801915 37.844526 L 9.997066 37.844526 C 7.344878 37.844526 4.804754 36.788643 2.926343 34.918067 C 1.053269 33.042132 0.00199919 30.49622 0.00199919 27.848472 L 0.00199919 9.994928 C 0.00199919 7.34718 1.053269 4.801268 2.926343 2.925332 C 4.804754 1.054757 7.344878 -0.00112652 9.997066 -0.00112652 " stroke="#435c5f" stroke-width="12" stroke-opacity="1" stroke-miterlimit="4"/></g></g><g clip-path="url(#a228f581ed)"><g clip-path="url(#1973853185)"><path fill="#435c5f" d="M 24.339844 11.417969 L 24.339844 17.667969 L 8.167969 17.667969 L 8.167969 11.417969 Z M 24.339844 11.417969 " fill-opacity="1" fill-rule="nonzero"/></g></g><g clip-path="url(#f9c978cfa0)"><g clip-path="url(#2bf87c9532)"><path fill="#435c5f" d="M 29.507812 8.605469 L 29.507812 20.429688 L 19.164062 20.429688 L 19.164062 8.605469 Z M 29.507812 8.605469 " fill-opacity="1" fill-rule="nonzero"/></g></g></svg>