<svg xmlns="http://www.w3.org/2000/svg" xmlns:xlink="http://www.w3.org/1999/xlink" width="175" zoomAndPan="magnify" viewBox="0 0 131.25 66" height="88" preserveAspectRatio="xMidYMid meet" version="1.0"><defs><filter x="0%" y="0%" width="100%" height="100%" id="4eea347c99"><feColorMatrix values="0 0 0 0 1 0 0 0 0 1 0 0 0 0 1 0 0 0 1 0" color-interpolation-filters="sRGB"/></filter><g/><clipPath id="6b1103daf9"><path d="M 0 0.1875 L 130.503906 0.1875 L 130.503906 65.8125 L 0 65.8125 Z M 0 0.1875 " clip-rule="nonzero"/></clipPath><mask id="d0666735fa"><g filter="url(#4eea347c99)"><rect x="-13.125" width="157.5" fill="#000000" y="-6.6" height="79.2" fill-opacity="0.698"/></g></mask><clipPath id="8d73debf6c"><path d="M 0.105469 0.546875 L 130.503906 0.546875 L 130.503906 65.8125 L 0.105469 65.8125 Z M 0.105469 0.546875 " clip-rule="nonzero"/></clipPath><clipPath id="8e93a2fe60"><path d="M 30.679688 0.546875 L 99.929688 0.546875 C 108.039062 0.546875 115.816406 3.769531 121.550781 9.503906 C 127.28125 15.238281 130.503906 23.011719 130.503906 31.121094 L 130.503906 35.238281 C 130.503906 43.347656 127.28125 51.125 121.550781 56.855469 C 115.816406 62.589844 108.039062 65.8125 99.929688 65.8125 L 30.679688 65.8125 C 22.570312 65.8125 14.792969 62.589844 9.058594 56.855469 C 3.324219 51.125 0.105469 43.347656 0.105469 35.238281 L 0.105469 31.121094 C 0.105469 23.011719 3.324219 15.238281 9.058594 9.503906 C 14.792969 3.769531 22.570312 0.546875 30.679688 0.546875 " clip-rule="nonzero"/></clipPath><clipPath id="81613350e3"><rect x="0" width="131" y="0" height="66"/></clipPath></defs><g clip-path="url(#6b1103daf9)"><g mask="url(#d0666735fa)"><g transform="matrix(1, 0, 0, 1, 0, 0.000000000000003497)"><g clip-path="url(#81613350e3)"><g clip-path="url(#8d73debf6c)"><g clip-path="url(#8e93a2fe60)"><path fill="#f3f3f3" d="M 0.105469 0.546875 L 130.46875 0.546875 L 130.46875 66.082031 L 0.105469 66.082031 Z M 0.105469 0.546875 " fill-opacity="1" fill-rule="nonzero"/></g></g><g fill="#000000" fill-opacity="1"><g transform="translate(43.473291, 39.325698)"><g><path d="M 12.15625 -14.984375 L 11.640625 -11.6875 L 7.015625 -11.6875 L 6.625 -9.1875 L 11.015625 -9.1875 L 10.5 -5.890625 L 6.109375 -5.890625 L 5.6875 -3.296875 L 10.3125 -3.296875 L 9.796875 0 L 1.265625 0 L 3.640625 -14.984375 Z M 12.15625 -14.984375 "/></g></g></g><g fill="#000000" fill-opacity="1"><g transform="translate(54.406482, 39.325698)"><g><path d="M 8.0625 -14.984375 L 9.765625 -11.109375 L 12.640625 -14.984375 L 17.4375 -14.984375 L 11.546875 -8.015625 L 15.828125 0 L 11.125 0 L 8.765625 -4.890625 L 4.546875 0 L -0.15625 0 L 6.96875 -8.015625 L 3.28125 -14.984375 Z M 8.0625 -14.984375 "/></g></g></g><g fill="#000000" fill-opacity="1"><g transform="translate(70.090639, 39.325698)"><g><path d="M 7.53125 -14.984375 L 5.171875 0 L 1.265625 0 L 3.640625 -14.984375 Z M 7.53125 -14.984375 "/></g></g></g><g fill="#000000" fill-opacity="1"><g transform="translate(76.531282, 39.325698)"><g><path d="M 12.8125 -14.984375 L 12.296875 -11.6875 L 9.078125 -11.6875 L 7.234375 0 L 3.34375 0 L 5.1875 -11.6875 L 1.96875 -11.6875 L 2.484375 -14.984375 Z M 12.8125 -14.984375 "/></g></g></g></g></g></g></g></svg>