<svg xmlns="http://www.w3.org/2000/svg" xmlns:xlink="http://www.w3.org/1999/xlink" width="175" zoomAndPan="magnify" viewBox="0 0 131.25 66" height="88" preserveAspectRatio="xMidYMid meet" version="1.0"><defs><filter x="0%" y="0%" width="100%" height="100%" id="f5b6657811"><feColorMatrix values="0 0 0 0 1 0 0 0 0 1 0 0 0 0 1 0 0 0 1 0" color-interpolation-filters="sRGB"/></filter><g/><clipPath id="7bd5d8012a"><path d="M 0 0.1875 L 130.503906 0.1875 L 130.503906 65.8125 L 0 65.8125 Z M 0 0.1875 " clip-rule="nonzero"/></clipPath><mask id="709e3f7fc6"><g filter="url(#f5b6657811)"><rect x="-13.125" width="157.5" fill="#000000" y="-6.6" height="79.2" fill-opacity="0.698"/></g></mask><clipPath id="060fb28ac2"><path d="M 0 0.1875 L 130.503906 0.1875 L 130.503906 65.722656 L 0 65.722656 Z M 0 0.1875 " clip-rule="nonzero"/></clipPath><clipPath id="05357ce906"><path d="M 30.574219 0.1875 L 99.824219 0.1875 C 107.933594 0.1875 115.710938 3.410156 121.445312 9.144531 C 127.179688 14.875 130.398438 22.652344 130.398438 30.761719 L 130.398438 34.878906 C 130.398438 42.988281 127.179688 50.761719 121.445312 56.496094 C 115.710938 62.230469 107.933594 65.453125 99.824219 65.453125 L 30.574219 65.453125 C 22.464844 65.453125 14.6875 62.230469 8.957031 56.496094 C 3.222656 50.761719 0 42.988281 0 34.878906 L 0 30.761719 C 0 22.652344 3.222656 14.875 8.957031 9.144531 C 14.6875 3.410156 22.464844 0.1875 30.574219 0.1875 " clip-rule="nonzero"/></clipPath><clipPath id="7c1a2bfa11"><rect x="0" width="131" y="0" height="66"/></clipPath></defs><g clip-path="url(#7bd5d8012a)"><g mask="url(#709e3f7fc6)"><g transform="matrix(1, 0, 0, 1, 0, 0.000000000000003469)"><g clip-path="url(#7c1a2bfa11)"><g clip-path="url(#060fb28ac2)"><g clip-path="url(#05357ce906)"><path fill="#f3f3f3" d="M 0 0.1875 L 130.363281 0.1875 L 130.363281 65.722656 L 0 65.722656 Z M 0 0.1875 " fill-opacity="1" fill-rule="nonzero"/></g></g><g fill="#000000" fill-opacity="1"><g transform="translate(8.634255, 37.474432)"><g><path d="M 5.65625 -11.25 L 4.265625 -2.484375 L 7.78125 -2.484375 L 7.390625 0 L 0.953125 0 L 2.734375 -11.25 Z M 5.65625 -11.25 "/></g></g></g><g fill="#000000" fill-opacity="1"><g transform="translate(16.017062, 37.474432)"><g><path d="M 9.125 -11.25 L 8.75 -8.78125 L 5.265625 -8.78125 L 4.96875 -6.890625 L 8.265625 -6.890625 L 7.875 -4.421875 L 4.578125 -4.421875 L 4.265625 -2.484375 L 7.75 -2.484375 L 7.359375 0 L 0.953125 0 L 2.734375 -11.25 Z M 9.125 -11.25 "/></g></g></g><g fill="#000000" fill-opacity="1"><g transform="translate(24.220176, 37.474432)"><g><path d="M 9.234375 -11.25 L 11.703125 0 L 8.578125 0 L 8.15625 -1.953125 L 4.140625 -1.953125 L 3.046875 0 L -0.0625 0 L 6.046875 -11.25 Z M 5.296875 -4.1875 L 7.734375 -4.1875 L 7.109375 -7.78125 L 7.078125 -7.78125 Z M 5.296875 -4.1875 "/></g></g></g><g fill="#000000" fill-opacity="1"><g transform="translate(35.868598, 37.474432)"><g><path d="M 6.890625 -11.25 C 7.828125 -11.25 8.664062 -11.039062 9.40625 -10.625 C 10.144531 -10.21875 10.722656 -9.648438 11.140625 -8.921875 C 11.566406 -8.191406 11.78125 -7.414062 11.78125 -6.59375 C 11.78125 -5.457031 11.472656 -4.378906 10.859375 -3.359375 C 10.253906 -2.335938 9.425781 -1.519531 8.375 -0.90625 C 7.332031 -0.300781 6.25 0 5.125 0 L 0.953125 0 L 2.734375 -11.25 Z M 4.265625 -2.484375 L 4.828125 -2.484375 C 6.015625 -2.484375 6.957031 -2.832031 7.65625 -3.53125 C 8.363281 -4.226562 8.71875 -5.132812 8.71875 -6.25 C 8.71875 -7.007812 8.476562 -7.617188 8 -8.078125 C 7.53125 -8.546875 6.828125 -8.78125 5.890625 -8.78125 L 5.265625 -8.78125 Z M 4.265625 -2.484375 "/></g></g></g><g fill="#000000" fill-opacity="1"><g transform="translate(47.084501, 37.474432)"><g><path d="M 9.125 -11.25 L 8.75 -8.78125 L 5.265625 -8.78125 L 4.96875 -6.890625 L 8.265625 -6.890625 L 7.875 -4.421875 L 4.578125 -4.421875 L 4.265625 -2.484375 L 7.75 -2.484375 L 7.359375 0 L 0.953125 0 L 2.734375 -11.25 Z M 9.125 -11.25 "/></g></g></g><g fill="#000000" fill-opacity="1"><g transform="translate(55.287615, 37.474432)"><g><path d="M 7.171875 -11.25 C 8.191406 -11.25 9.003906 -11.007812 9.609375 -10.53125 C 10.222656 -10.050781 10.53125 -9.363281 10.53125 -8.46875 C 10.53125 -7.519531 10.242188 -6.675781 9.671875 -5.9375 C 9.109375 -5.207031 8.382812 -4.765625 7.5 -4.609375 L 10.3125 0 L 6.671875 0 L 4.59375 -4.328125 L 4.5625 -4.328125 L 3.875 0 L 0.953125 0 L 2.734375 -11.25 Z M 4.859375 -6.203125 L 5.265625 -6.203125 C 5.953125 -6.203125 6.484375 -6.347656 6.859375 -6.640625 C 7.242188 -6.929688 7.4375 -7.351562 7.4375 -7.90625 C 7.4375 -8.644531 6.828125 -9.015625 5.609375 -9.015625 L 5.3125 -9.015625 Z M 4.859375 -6.203125 "/></g></g></g><g fill="#000000" fill-opacity="1"><g transform="translate(65.429653, 37.474432)"><g><path d="M 6.96875 -11.25 C 7.875 -11.25 8.578125 -11.066406 9.078125 -10.703125 C 9.585938 -10.335938 9.84375 -9.789062 9.84375 -9.0625 C 9.84375 -7.570312 9.289062 -6.5625 8.1875 -6.03125 L 8.1875 -6 C 9.457031 -5.832031 10.09375 -5.109375 10.09375 -3.828125 C 10.09375 -2.628906 9.679688 -1.691406 8.859375 -1.015625 C 8.035156 -0.335938 6.925781 0 5.53125 0 L 0.953125 0 L 2.734375 -11.25 Z M 5.3125 -9.015625 L 4.96875 -6.828125 L 5.359375 -6.828125 C 6.492188 -6.828125 7.0625 -7.269531 7.0625 -8.15625 C 7.0625 -8.445312 6.953125 -8.660156 6.734375 -8.796875 C 6.515625 -8.941406 6.140625 -9.015625 5.609375 -9.015625 Z M 4.234375 -2.234375 L 4.890625 -2.234375 C 5.722656 -2.234375 6.304688 -2.359375 6.640625 -2.609375 C 6.972656 -2.859375 7.140625 -3.207031 7.140625 -3.65625 C 7.140625 -4.007812 7.007812 -4.265625 6.75 -4.421875 C 6.5 -4.578125 6.0625 -4.65625 5.4375 -4.65625 L 4.609375 -4.65625 Z M 4.234375 -2.234375 "/></g></g></g><g fill="#000000" fill-opacity="1"><g transform="translate(75.526948, 37.474432)"><g><path d="M 13.828125 -6.71875 C 13.828125 -5.632812 13.515625 -4.507812 12.890625 -3.34375 C 12.265625 -2.175781 11.378906 -1.265625 10.234375 -0.609375 C 9.085938 0.046875 7.859375 0.375 6.546875 0.375 C 4.960938 0.375 3.675781 -0.0859375 2.6875 -1.015625 C 1.707031 -1.953125 1.21875 -3.179688 1.21875 -4.703125 C 1.21875 -5.953125 1.546875 -7.109375 2.203125 -8.171875 C 2.867188 -9.234375 3.769531 -10.070312 4.90625 -10.6875 C 6.050781 -11.3125 7.234375 -11.625 8.453125 -11.625 C 9.410156 -11.625 10.3125 -11.414062 11.15625 -11 C 12 -10.582031 12.65625 -10 13.125 -9.25 C 13.59375 -8.507812 13.828125 -7.664062 13.828125 -6.71875 Z M 7 -2.46875 C 7.675781 -2.46875 8.300781 -2.648438 8.875 -3.015625 C 9.445312 -3.390625 9.898438 -3.875 10.234375 -4.46875 C 10.578125 -5.0625 10.75 -5.644531 10.75 -6.21875 C 10.75 -6.9375 10.476562 -7.539062 9.9375 -8.03125 C 9.394531 -8.53125 8.742188 -8.78125 7.984375 -8.78125 C 7.398438 -8.78125 6.816406 -8.617188 6.234375 -8.296875 C 5.660156 -7.984375 5.195312 -7.554688 4.84375 -7.015625 C 4.488281 -6.484375 4.3125 -5.890625 4.3125 -5.234375 C 4.3125 -4.429688 4.5625 -3.769531 5.0625 -3.25 C 5.5625 -2.726562 6.207031 -2.46875 7 -2.46875 Z M 7 -2.46875 "/></g></g></g><g fill="#000000" fill-opacity="1"><g transform="translate(88.756344, 37.474432)"><g><path d="M 9.234375 -11.25 L 11.703125 0 L 8.578125 0 L 8.15625 -1.953125 L 4.140625 -1.953125 L 3.046875 0 L -0.0625 0 L 6.046875 -11.25 Z M 5.296875 -4.1875 L 7.734375 -4.1875 L 7.109375 -7.78125 L 7.078125 -7.78125 Z M 5.296875 -4.1875 "/></g></g></g><g fill="#000000" fill-opacity="1"><g transform="translate(100.404766, 37.474432)"><g><path d="M 7.171875 -11.25 C 8.191406 -11.25 9.003906 -11.007812 9.609375 -10.53125 C 10.222656 -10.050781 10.53125 -9.363281 10.53125 -8.46875 C 10.53125 -7.519531 10.242188 -6.675781 9.671875 -5.9375 C 9.109375 -5.207031 8.382812 -4.765625 7.5 -4.609375 L 10.3125 0 L 6.671875 0 L 4.59375 -4.328125 L 4.5625 -4.328125 L 3.875 0 L 0.953125 0 L 2.734375 -11.25 Z M 4.859375 -6.203125 L 5.265625 -6.203125 C 5.953125 -6.203125 6.484375 -6.347656 6.859375 -6.640625 C 7.242188 -6.929688 7.4375 -7.351562 7.4375 -7.90625 C 7.4375 -8.644531 6.828125 -9.015625 5.609375 -9.015625 L 5.3125 -9.015625 Z M 4.859375 -6.203125 "/></g></g></g><g fill="#000000" fill-opacity="1"><g transform="translate(110.546804, 37.474432)"><g><path d="M 6.890625 -11.25 C 7.828125 -11.25 8.664062 -11.039062 9.40625 -10.625 C 10.144531 -10.21875 10.722656 -9.648438 11.140625 -8.921875 C 11.566406 -8.191406 11.78125 -7.414062 11.78125 -6.59375 C 11.78125 -5.457031 11.472656 -4.378906 10.859375 -3.359375 C 10.253906 -2.335938 9.425781 -1.519531 8.375 -0.90625 C 7.332031 -0.300781 6.25 0 5.125 0 L 0.953125 0 L 2.734375 -11.25 Z M 4.265625 -2.484375 L 4.828125 -2.484375 C 6.015625 -2.484375 6.957031 -2.832031 7.65625 -3.53125 C 8.363281 -4.226562 8.71875 -5.132812 8.71875 -6.25 C 8.71875 -7.007812 8.476562 -7.617188 8 -8.078125 C 7.53125 -8.546875 6.828125 -8.78125 5.890625 -8.78125 L 5.265625 -8.78125 Z M 4.265625 -2.484375 "/></g></g></g></g></g></g></g></svg>