<svg xmlns="http://www.w3.org/2000/svg" xmlns:xlink="http://www.w3.org/1999/xlink" width="75" zoomAndPan="magnify" viewBox="0 0 56.25 56.249997" height="75" preserveAspectRatio="xMidYMid meet" version="1.0"><defs><g/><clipPath id="c12a22d586"><path d="M 0 0 L 55.511719 0 L 55.511719 55.5 L 0 55.5 Z M 0 0 " clip-rule="nonzero"/></clipPath><clipPath id="49cdec9815"><path d="M 213.410156 55.5 L 27.753906 55.5 C 12.425781 55.5 0 43.074219 0 27.746094 C 0 12.414062 12.425781 -0.0117188 27.753906 -0.0117188 L 213.410156 -0.0117188 C 228.738281 -0.0117188 241.164062 12.414062 241.164062 27.746094 C 241.164062 43.074219 228.738281 55.5 213.410156 55.5 " clip-rule="nonzero"/></clipPath><clipPath id="8e9cae402b"><path d="M 11.683594 10.085938 L 47.019531 10.085938 L 47.019531 45.421875 L 11.683594 45.421875 Z M 11.683594 10.085938 " clip-rule="nonzero"/></clipPath><clipPath id="c969fd365a"><path d="M 29.351562 10.085938 C 19.59375 10.085938 11.683594 17.996094 11.683594 27.753906 C 11.683594 37.511719 19.59375 45.421875 29.351562 45.421875 C 39.109375 45.421875 47.019531 37.511719 47.019531 27.753906 C 47.019531 17.996094 39.109375 10.085938 29.351562 10.085938 " clip-rule="nonzero"/></clipPath></defs><g clip-path="url(#c12a22d586)"><g clip-path="url(#49cdec9815)"><path fill="#3793cb" d="M 241.164062 55.5 L 0 55.5 L 0 -1.023438 L 241.164062 -1.023438 Z M 241.164062 55.5 " fill-opacity="1" fill-rule="nonzero"/></g></g><g clip-path="url(#8e9cae402b)"><g clip-path="url(#c969fd365a)"><path fill="#f4faf8" d="M 11.683594 10.085938 L 47.019531 10.085938 L 47.019531 45.421875 L 11.683594 45.421875 Z M 11.683594 10.085938 " fill-opacity="1" fill-rule="nonzero"/></g></g><g fill="#3793cb" fill-opacity="1"><g transform="translate(23.036311, 37.704578)"><g><path d="M 9.890625 -19.609375 C 9.890625 -18.765625 9.5625 -18.019531 8.90625 -17.375 C 8.25 -16.738281 7.503906 -16.421875 6.671875 -16.421875 C 6.023438 -16.421875 5.472656 -16.640625 5.015625 -17.078125 C 4.554688 -17.523438 4.328125 -18.09375 4.328125 -18.78125 C 4.328125 -19.582031 4.660156 -20.304688 5.328125 -20.953125 C 5.992188 -21.609375 6.738281 -21.9375 7.5625 -21.9375 C 8.226562 -21.9375 8.78125 -21.710938 9.21875 -21.265625 C 9.664062 -20.816406 9.890625 -20.265625 9.890625 -19.609375 Z M 8.71875 -13.859375 L 6.53125 0 L 1.625 0 L 3.8125 -13.859375 Z M 8.71875 -13.859375 "/></g></g></g></svg>