<svg xmlns="http://www.w3.org/2000/svg" xmlns:xlink="http://www.w3.org/1999/xlink" width="75" zoomAndPan="magnify" viewBox="0 0 56.25 56.249997" height="75" preserveAspectRatio="xMidYMid meet" version="1.0"><defs><clipPath id="58da1c1ec3"><path d="M 0 0 L 55.511719 0 L 55.511719 55.511719 L 0 55.511719 Z M 0 0 " clip-rule="nonzero"/></clipPath><clipPath id="81d9b1ca4e"><path d="M -157.898438 0 L 27.753906 0 C 43.082031 0 55.511719 12.425781 55.511719 27.753906 C 55.511719 43.082031 43.082031 55.511719 27.753906 55.511719 L -157.898438 55.511719 C -173.226562 55.511719 -185.652344 43.082031 -185.652344 27.753906 C -185.652344 12.425781 -173.226562 0 -157.898438 0 " clip-rule="nonzero"/></clipPath><clipPath id="42ab48bbbd"><path d="M 15.238281 22.0625 L 37 22.0625 L 37 44 L 15.238281 44 Z M 15.238281 22.0625 " clip-rule="nonzero"/></clipPath><clipPath id="4fae214dc4"><path d="M 18.941406 22.0625 L 33.375 22.0625 C 34.359375 22.0625 35.300781 22.449219 35.992188 23.144531 C 36.6875 23.839844 37.078125 24.78125 37.078125 25.761719 L 37.078125 40.125 C 37.078125 41.109375 36.6875 42.050781 35.992188 42.742188 C 35.300781 43.4375 34.359375 43.828125 33.375 43.828125 L 18.941406 43.828125 C 17.960938 43.828125 17.019531 43.4375 16.324219 42.742188 C 15.628906 42.050781 15.238281 41.109375 15.238281 40.125 L 15.238281 25.761719 C 15.238281 24.78125 15.628906 23.839844 16.324219 23.144531 C 17.019531 22.449219 17.960938 22.0625 18.941406 22.0625 " clip-rule="nonzero"/></clipPath><clipPath id="9e8866a23b"><path d="M 10.144531 13 L 42 13 L 42 28.246094 L 10.144531 28.246094 Z M 10.144531 13 " clip-rule="nonzero"/></clipPath><clipPath id="1d16933c9c"><path d="M 28.871094 14.199219 L 41.113281 25.558594 C 41.550781 25.964844 41.695312 26.597656 41.476562 27.152344 C 41.261719 27.710938 40.722656 28.074219 40.125 28.074219 L 12.191406 28.074219 C 11.59375 28.074219 11.058594 27.710938 10.839844 27.152344 C 10.621094 26.597656 10.765625 25.964844 11.203125 25.558594 L 23.445312 14.199219 C 24.976562 12.78125 27.339844 12.78125 28.871094 14.199219 " clip-rule="nonzero"/></clipPath></defs><g clip-path="url(#58da1c1ec3)"><g clip-path="url(#81d9b1ca4e)"><path fill="#3793cb" d="M -185.652344 0 L 55.511719 0 L 55.511719 56.523438 L -185.652344 56.523438 Z M -185.652344 0 " fill-opacity="1" fill-rule="nonzero"/></g></g><g clip-path="url(#42ab48bbbd)"><g clip-path="url(#4fae214dc4)"><path fill="#f4faf8" d="M 15.238281 22.0625 L 36.96875 22.0625 L 36.96875 43.789062 L 15.238281 43.789062 Z M 15.238281 22.0625 " fill-opacity="1" fill-rule="nonzero"/></g></g><g clip-path="url(#9e8866a23b)"><g clip-path="url(#1d16933c9c)"><path fill="#f4faf8" d="M 8.488281 11.683594 L 43.828125 11.683594 L 43.828125 28.246094 L 8.488281 28.246094 Z M 8.488281 11.683594 " fill-opacity="1" fill-rule="nonzero"/></g></g></svg>