<svg xmlns="http://www.w3.org/2000/svg" xmlns:xlink="http://www.w3.org/1999/xlink" width="500" zoomAndPan="magnify" viewBox="0 0 375 187.499995" height="250" preserveAspectRatio="xMidYMid meet" version="1.0"><defs><filter x="0%" y="0%" width="100%" height="100%" id="1f58a76c1c"><feColorMatrix values="0 0 0 0 1 0 0 0 0 1 0 0 0 0 1 0 0 0 1 0" color-interpolation-filters="sRGB"/></filter><g/><clipPath id="1ddcd3b7eb"><path d="M 0.5 0 L 374.5 0 L 374.5 187 L 0.5 187 Z M 0.5 0 " clip-rule="nonzero"/></clipPath><mask id="9ddc7cc858"><g filter="url(#1f58a76c1c)"><rect x="-37.5" width="450" fill="#000000" y="-18.749999" height="224.999994" fill-opacity="0.749"/></g></mask><clipPath id="fd70295243"><path d="M 0.5 0 L 374.5 0 L 374.5 187 L 0.5 187 Z M 0.5 0 " clip-rule="nonzero"/></clipPath><clipPath id="4d2ff5ea24"><path d="M 31.167969 0 L 344.878906 0 C 361.816406 0 375.546875 13.730469 375.546875 30.667969 L 375.546875 156.332031 C 375.546875 173.269531 361.816406 187 344.878906 187 L 31.167969 187 C 14.230469 187 0.5 173.269531 0.5 156.332031 L 0.5 30.667969 C 0.5 13.730469 14.230469 0 31.167969 0 " clip-rule="nonzero"/></clipPath><clipPath id="35c7221191"><rect x="0" width="375" y="0" height="187"/></clipPath></defs><g clip-path="url(#1ddcd3b7eb)"><g mask="url(#9ddc7cc858)"><g transform="matrix(1, 0, 0, 1, 0, 0)"><g clip-path="url(#35c7221191)"><g clip-path="url(#fd70295243)"><g clip-path="url(#4d2ff5ea24)"><path fill="#3793cb" d="M 0.5 0 L 376.042969 0 L 376.042969 187.773438 L 0.5 187.773438 Z M 0.5 0 " fill-opacity="1" fill-rule="nonzero"/></g></g></g></g></g></g><g fill="#f3f3f3" fill-opacity="1"><g transform="translate(74.442289, 36.917001)"><g><path d="M 15.421875 -18.796875 L 19.53125 0 L 14.328125 0 L 13.625 -3.265625 L 6.90625 -3.265625 L 5.078125 0 L -0.09375 0 L 10.09375 -18.796875 Z M 8.84375 -7 L 12.90625 -7 L 11.859375 -12.984375 L 11.8125 -12.984375 Z M 8.84375 -7 "/></g></g></g><g fill="#f3f3f3" fill-opacity="1"><g transform="translate(93.906975, 36.917001)"><g><path d="M 12.46875 -8.59375 C 12.0625 -8.875 11.4375 -9.015625 10.59375 -9.015625 C 9.53125 -9.015625 8.691406 -8.707031 8.078125 -8.09375 C 7.472656 -7.476562 7.066406 -6.507812 6.859375 -5.1875 L 6.03125 0 L 1.5 0 L 3.515625 -12.78125 L 8.046875 -12.78125 L 7.71875 -10.6875 L 7.78125 -10.6875 C 8.851562 -12.195312 10.375 -12.953125 12.34375 -12.953125 L 13.140625 -12.953125 Z M 12.46875 -8.59375 "/></g></g></g><g fill="#f3f3f3" fill-opacity="1"><g transform="translate(105.196996, 36.917001)"><g><path d="M 15.71875 -7.65625 C 15.71875 -7.132812 15.65625 -6.457031 15.53125 -5.625 L 5.984375 -5.625 C 5.960938 -5.539062 5.945312 -5.4375 5.9375 -5.3125 C 5.9375 -5.195312 5.9375 -5.070312 5.9375 -4.9375 C 5.9375 -3.519531 6.75 -2.804688 8.375 -2.796875 C 9.40625 -2.796875 10.1875 -3.1875 10.71875 -3.96875 L 15.078125 -3.96875 C 14.566406 -2.613281 13.660156 -1.539062 12.359375 -0.75 C 11.066406 0.03125 9.570312 0.421875 7.875 0.421875 C 5.863281 0.421875 4.289062 -0.0664062 3.15625 -1.046875 C 2.03125 -2.023438 1.46875 -3.367188 1.46875 -5.078125 C 1.46875 -6.578125 1.828125 -7.96875 2.546875 -9.25 C 3.273438 -10.53125 4.273438 -11.507812 5.546875 -12.1875 C 6.816406 -12.863281 8.164062 -13.203125 9.59375 -13.203125 C 11.550781 -13.203125 13.0625 -12.722656 14.125 -11.765625 C 15.1875 -10.816406 15.71875 -9.445312 15.71875 -7.65625 Z M 11.71875 -8.25 L 11.71875 -8.28125 C 11.695312 -8.875 11.46875 -9.351562 11.03125 -9.71875 C 10.601562 -10.082031 10.078125 -10.265625 9.453125 -10.265625 C 8.785156 -10.265625 8.179688 -10.085938 7.640625 -9.734375 C 7.097656 -9.390625 6.703125 -8.894531 6.453125 -8.25 Z M 11.71875 -8.25 "/></g></g></g><g fill="#f3f3f3" fill-opacity="1"><g transform="translate(120.399888, 36.917001)"><g/></g></g><g fill="#f3f3f3" fill-opacity="1"><g transform="translate(128.948398, 36.917001)"><g><path d="M 6.875 -12.78125 L 9.265625 -6.234375 L 13.625 -12.78125 L 18.796875 -12.78125 L 5.5 6.375 L 0.421875 6.375 L 6.078125 -1.75 L 1.640625 -12.78125 Z M 6.875 -12.78125 "/></g></g></g><g fill="#f3f3f3" fill-opacity="1"><g transform="translate(145.247901, 36.917001)"><g><path d="M 17.078125 -7.5 C 17.078125 -6.070312 16.6875 -4.742188 15.90625 -3.515625 C 15.125 -2.296875 14.039062 -1.332031 12.65625 -0.625 C 11.28125 0.0703125 9.800781 0.421875 8.21875 0.421875 C 6.207031 0.421875 4.578125 -0.0859375 3.328125 -1.109375 C 2.085938 -2.128906 1.46875 -3.492188 1.46875 -5.203125 C 1.46875 -6.671875 1.863281 -8.023438 2.65625 -9.265625 C 3.445312 -10.515625 4.519531 -11.484375 5.875 -12.171875 C 7.226562 -12.859375 8.6875 -13.203125 10.25 -13.203125 C 12.269531 -13.203125 13.910156 -12.6875 15.171875 -11.65625 C 16.441406 -10.632812 17.078125 -9.25 17.078125 -7.5 Z M 8.796875 -3.515625 C 9.773438 -3.515625 10.59375 -3.84375 11.25 -4.5 C 11.90625 -5.164062 12.234375 -5.972656 12.234375 -6.921875 C 12.234375 -7.609375 12.003906 -8.171875 11.546875 -8.609375 C 11.085938 -9.046875 10.46875 -9.265625 9.6875 -9.265625 C 8.757812 -9.265625 7.960938 -8.929688 7.296875 -8.265625 C 6.640625 -7.609375 6.3125 -6.789062 6.3125 -5.8125 C 6.3125 -5.113281 6.53125 -4.554688 6.96875 -4.140625 C 7.40625 -3.722656 8.015625 -3.515625 8.796875 -3.515625 Z M 8.796875 -3.515625 "/></g></g></g><g fill="#f3f3f3" fill-opacity="1"><g transform="translate(161.746781, 36.917001)"><g><path d="M 7.96875 -12.78125 L 6.90625 -5.953125 C 6.882812 -5.816406 6.863281 -5.660156 6.84375 -5.484375 C 6.832031 -5.316406 6.828125 -5.148438 6.828125 -4.984375 C 6.828125 -4.335938 6.984375 -3.875 7.296875 -3.59375 C 7.617188 -3.320312 8.09375 -3.1875 8.71875 -3.1875 C 9.488281 -3.1875 10.09375 -3.378906 10.53125 -3.765625 C 10.96875 -4.160156 11.28125 -4.957031 11.46875 -6.15625 C 11.664062 -7.351562 12.015625 -9.5625 12.515625 -12.78125 L 17.046875 -12.78125 L 15.828125 -5.078125 C 15.242188 -1.410156 12.6875 0.421875 8.15625 0.421875 C 6.125 0.421875 4.609375 0.0625 3.609375 -0.65625 C 2.617188 -1.382812 2.125 -2.476562 2.125 -3.9375 C 2.125 -4.125 2.132812 -4.332031 2.15625 -4.5625 C 2.175781 -4.789062 2.195312 -4.957031 2.21875 -5.0625 L 3.4375 -12.78125 Z M 7.96875 -12.78125 "/></g></g></g><g fill="#f3f3f3" fill-opacity="1"><g transform="translate(178.170898, 36.917001)"><g/></g></g><g fill="#f3f3f3" fill-opacity="1"><g transform="translate(186.719409, 36.917001)"><g><path d="M 9.34375 -13.203125 C 10.9375 -13.203125 12.300781 -12.929688 13.4375 -12.390625 L 11.4375 -9.5 C 10.675781 -9.914062 9.90625 -10.125 9.125 -10.125 C 8.6875 -10.125 8.3125 -10.035156 8 -9.859375 C 7.695312 -9.679688 7.546875 -9.4375 7.546875 -9.125 C 7.546875 -8.675781 7.992188 -8.375 8.890625 -8.21875 C 10.222656 -8.007812 11.171875 -7.640625 11.734375 -7.109375 C 12.296875 -6.578125 12.578125 -5.894531 12.578125 -5.0625 C 12.578125 -3.476562 11.929688 -2.164062 10.640625 -1.125 C 9.359375 -0.09375 7.710938 0.421875 5.703125 0.421875 C 3.890625 0.421875 2.265625 -0.0664062 0.828125 -1.046875 L 2.96875 -4.21875 C 3.46875 -3.8125 4.046875 -3.492188 4.703125 -3.265625 C 5.359375 -3.035156 5.910156 -2.921875 6.359375 -2.921875 C 6.773438 -2.921875 7.140625 -3.019531 7.453125 -3.21875 C 7.765625 -3.414062 7.921875 -3.6875 7.921875 -4.03125 C 7.921875 -4.300781 7.785156 -4.515625 7.515625 -4.671875 C 7.242188 -4.828125 6.820312 -4.960938 6.25 -5.078125 C 4.988281 -5.328125 4.117188 -5.671875 3.640625 -6.109375 C 3.171875 -6.554688 2.9375 -7.171875 2.9375 -7.953125 C 2.9375 -9.492188 3.554688 -10.753906 4.796875 -11.734375 C 6.035156 -12.710938 7.550781 -13.203125 9.34375 -13.203125 Z M 9.34375 -13.203125 "/></g></g></g><g fill="#f3f3f3" fill-opacity="1"><g transform="translate(199.504793, 36.917001)"><g><path d="M 7.96875 -12.78125 L 6.90625 -5.953125 C 6.882812 -5.816406 6.863281 -5.660156 6.84375 -5.484375 C 6.832031 -5.316406 6.828125 -5.148438 6.828125 -4.984375 C 6.828125 -4.335938 6.984375 -3.875 7.296875 -3.59375 C 7.617188 -3.320312 8.09375 -3.1875 8.71875 -3.1875 C 9.488281 -3.1875 10.09375 -3.378906 10.53125 -3.765625 C 10.96875 -4.160156 11.28125 -4.957031 11.46875 -6.15625 C 11.664062 -7.351562 12.015625 -9.5625 12.515625 -12.78125 L 17.046875 -12.78125 L 15.828125 -5.078125 C 15.242188 -1.410156 12.6875 0.421875 8.15625 0.421875 C 6.125 0.421875 4.609375 0.0625 3.609375 -0.65625 C 2.617188 -1.382812 2.125 -2.476562 2.125 -3.9375 C 2.125 -4.125 2.132812 -4.332031 2.15625 -4.5625 C 2.175781 -4.789062 2.195312 -4.957031 2.21875 -5.0625 L 3.4375 -12.78125 Z M 7.96875 -12.78125 "/></g></g></g><g fill="#f3f3f3" fill-opacity="1"><g transform="translate(215.928911, 36.917001)"><g><path d="M 12.46875 -8.59375 C 12.0625 -8.875 11.4375 -9.015625 10.59375 -9.015625 C 9.53125 -9.015625 8.691406 -8.707031 8.078125 -8.09375 C 7.472656 -7.476562 7.066406 -6.507812 6.859375 -5.1875 L 6.03125 0 L 1.5 0 L 3.515625 -12.78125 L 8.046875 -12.78125 L 7.71875 -10.6875 L 7.78125 -10.6875 C 8.851562 -12.195312 10.375 -12.953125 12.34375 -12.953125 L 13.140625 -12.953125 Z M 12.46875 -8.59375 "/></g></g></g><g fill="#f3f3f3" fill-opacity="1"><g transform="translate(227.218931, 36.917001)"><g><path d="M 15.71875 -7.65625 C 15.71875 -7.132812 15.65625 -6.457031 15.53125 -5.625 L 5.984375 -5.625 C 5.960938 -5.539062 5.945312 -5.4375 5.9375 -5.3125 C 5.9375 -5.195312 5.9375 -5.070312 5.9375 -4.9375 C 5.9375 -3.519531 6.75 -2.804688 8.375 -2.796875 C 9.40625 -2.796875 10.1875 -3.1875 10.71875 -3.96875 L 15.078125 -3.96875 C 14.566406 -2.613281 13.660156 -1.539062 12.359375 -0.75 C 11.066406 0.03125 9.570312 0.421875 7.875 0.421875 C 5.863281 0.421875 4.289062 -0.0664062 3.15625 -1.046875 C 2.03125 -2.023438 1.46875 -3.367188 1.46875 -5.078125 C 1.46875 -6.578125 1.828125 -7.96875 2.546875 -9.25 C 3.273438 -10.53125 4.273438 -11.507812 5.546875 -12.1875 C 6.816406 -12.863281 8.164062 -13.203125 9.59375 -13.203125 C 11.550781 -13.203125 13.0625 -12.722656 14.125 -11.765625 C 15.1875 -10.816406 15.71875 -9.445312 15.71875 -7.65625 Z M 11.71875 -8.25 L 11.71875 -8.28125 C 11.695312 -8.875 11.46875 -9.351562 11.03125 -9.71875 C 10.601562 -10.082031 10.078125 -10.265625 9.453125 -10.265625 C 8.785156 -10.265625 8.179688 -10.085938 7.640625 -9.734375 C 7.097656 -9.390625 6.703125 -8.894531 6.453125 -8.25 Z M 11.71875 -8.25 "/></g></g></g><g fill="#f3f3f3" fill-opacity="1"><g transform="translate(242.421823, 36.917001)"><g/></g></g><g fill="#f3f3f3" fill-opacity="1"><g transform="translate(250.970334, 36.917001)"><g><path d="M 6.875 -12.78125 L 9.265625 -6.234375 L 13.625 -12.78125 L 18.796875 -12.78125 L 5.5 6.375 L 0.421875 6.375 L 6.078125 -1.75 L 1.640625 -12.78125 Z M 6.875 -12.78125 "/></g></g></g><g fill="#f3f3f3" fill-opacity="1"><g transform="translate(267.269837, 36.917001)"><g><path d="M 17.078125 -7.5 C 17.078125 -6.070312 16.6875 -4.742188 15.90625 -3.515625 C 15.125 -2.296875 14.039062 -1.332031 12.65625 -0.625 C 11.28125 0.0703125 9.800781 0.421875 8.21875 0.421875 C 6.207031 0.421875 4.578125 -0.0859375 3.328125 -1.109375 C 2.085938 -2.128906 1.46875 -3.492188 1.46875 -5.203125 C 1.46875 -6.671875 1.863281 -8.023438 2.65625 -9.265625 C 3.445312 -10.515625 4.519531 -11.484375 5.875 -12.171875 C 7.226562 -12.859375 8.6875 -13.203125 10.25 -13.203125 C 12.269531 -13.203125 13.910156 -12.6875 15.171875 -11.65625 C 16.441406 -10.632812 17.078125 -9.25 17.078125 -7.5 Z M 8.796875 -3.515625 C 9.773438 -3.515625 10.59375 -3.84375 11.25 -4.5 C 11.90625 -5.164062 12.234375 -5.972656 12.234375 -6.921875 C 12.234375 -7.609375 12.003906 -8.171875 11.546875 -8.609375 C 11.085938 -9.046875 10.46875 -9.265625 9.6875 -9.265625 C 8.757812 -9.265625 7.960938 -8.929688 7.296875 -8.265625 C 6.640625 -7.609375 6.3125 -6.789062 6.3125 -5.8125 C 6.3125 -5.113281 6.53125 -4.554688 6.96875 -4.140625 C 7.40625 -3.722656 8.015625 -3.515625 8.796875 -3.515625 Z M 8.796875 -3.515625 "/></g></g></g><g fill="#f3f3f3" fill-opacity="1"><g transform="translate(283.768716, 36.917001)"><g><path d="M 7.96875 -12.78125 L 6.90625 -5.953125 C 6.882812 -5.816406 6.863281 -5.660156 6.84375 -5.484375 C 6.832031 -5.316406 6.828125 -5.148438 6.828125 -4.984375 C 6.828125 -4.335938 6.984375 -3.875 7.296875 -3.59375 C 7.617188 -3.320312 8.09375 -3.1875 8.71875 -3.1875 C 9.488281 -3.1875 10.09375 -3.378906 10.53125 -3.765625 C 10.96875 -4.160156 11.28125 -4.957031 11.46875 -6.15625 C 11.664062 -7.351562 12.015625 -9.5625 12.515625 -12.78125 L 17.046875 -12.78125 L 15.828125 -5.078125 C 15.242188 -1.410156 12.6875 0.421875 8.15625 0.421875 C 6.125 0.421875 4.609375 0.0625 3.609375 -0.65625 C 2.617188 -1.382812 2.125 -2.476562 2.125 -3.9375 C 2.125 -4.125 2.132812 -4.332031 2.15625 -4.5625 C 2.175781 -4.789062 2.195312 -4.957031 2.21875 -5.0625 L 3.4375 -12.78125 Z M 7.96875 -12.78125 "/></g></g></g><g fill="#f3f3f3" fill-opacity="1"><g transform="translate(89.748857, 71.315884)"><g><path d="M 6.671875 -12.78125 L 8.765625 -5.859375 L 13.078125 -12.78125 L 15.78125 -12.78125 L 17.890625 -5.859375 L 22.203125 -12.78125 L 27.21875 -12.78125 L 18.515625 0 L 15.578125 0 L 13.53125 -7 L 9.25 0 L 6.3125 0 L 1.640625 -12.78125 Z M 6.671875 -12.78125 "/></g></g></g><g fill="#f3f3f3" fill-opacity="1"><g transform="translate(114.571949, 71.315884)"><g><path d="M 12.953125 -12.78125 L 17.5 -12.78125 L 15.46875 0 L 10.9375 0 L 11.171875 -1.421875 L 11.109375 -1.421875 C 10.648438 -0.816406 10.039062 -0.359375 9.28125 -0.046875 C 8.53125 0.265625 7.753906 0.421875 6.953125 0.421875 C 5.359375 0.421875 4.050781 -0.109375 3.03125 -1.171875 C 2.007812 -2.234375 1.5 -3.578125 1.5 -5.203125 C 1.5 -6.535156 1.832031 -7.820312 2.5 -9.0625 C 3.175781 -10.300781 4.097656 -11.300781 5.265625 -12.0625 C 6.441406 -12.820312 7.710938 -13.203125 9.078125 -13.203125 C 9.835938 -13.203125 10.546875 -13.0625 11.203125 -12.78125 C 11.859375 -12.5 12.378906 -12.082031 12.765625 -11.53125 Z M 8.71875 -3.515625 C 9.695312 -3.515625 10.515625 -3.847656 11.171875 -4.515625 C 11.828125 -5.191406 12.15625 -5.992188 12.15625 -6.921875 C 12.15625 -7.585938 11.929688 -8.144531 11.484375 -8.59375 C 11.035156 -9.039062 10.414062 -9.265625 9.625 -9.265625 C 8.707031 -9.265625 7.910156 -8.925781 7.234375 -8.25 C 6.566406 -7.582031 6.234375 -6.769531 6.234375 -5.8125 C 6.234375 -5.113281 6.445312 -4.554688 6.875 -4.140625 C 7.3125 -3.722656 7.925781 -3.515625 8.71875 -3.515625 Z M 8.71875 -3.515625 "/></g></g></g><g fill="#f3f3f3" fill-opacity="1"><g transform="translate(131.569287, 71.315884)"><g><path d="M 10.4375 0 L 11.5625 -7.046875 C 11.59375 -7.316406 11.613281 -7.5 11.625 -7.59375 C 11.632812 -7.695312 11.640625 -7.78125 11.640625 -7.84375 C 11.640625 -9.007812 11.066406 -9.59375 9.921875 -9.59375 C 8.359375 -9.59375 7.410156 -8.601562 7.078125 -6.625 L 6.03125 0 L 1.5 0 L 3.515625 -12.78125 L 8.046875 -12.78125 L 7.796875 -11.140625 L 7.84375 -11.140625 C 8.945312 -12.515625 10.421875 -13.203125 12.265625 -13.203125 C 14.984375 -13.191406 16.34375 -11.890625 16.34375 -9.296875 C 16.34375 -9.078125 16.332031 -8.851562 16.3125 -8.625 C 16.300781 -8.394531 15.859375 -5.519531 14.984375 0 Z M 10.4375 0 "/></g></g></g><g fill="#f3f3f3" fill-opacity="1"><g transform="translate(148.043246, 71.315884)"><g><path d="M 9.09375 -16.625 L 8.46875 -12.78125 L 11.046875 -12.78125 L 10.4375 -9.046875 L 7.875 -9.046875 L 6.453125 0 L 1.921875 0 L 3.34375 -9.046875 L 1.875 -9.046875 L 2.46875 -12.78125 L 3.9375 -12.78125 L 4.5625 -16.625 Z M 9.09375 -16.625 "/></g></g></g><g fill="#f3f3f3" fill-opacity="1"><g transform="translate(157.015453, 71.315884)"><g/></g></g><g fill="#f3f3f3" fill-opacity="1"><g transform="translate(165.563963, 71.315884)"><g><path d="M 9.09375 -16.625 L 8.46875 -12.78125 L 11.046875 -12.78125 L 10.4375 -9.046875 L 7.875 -9.046875 L 6.453125 0 L 1.921875 0 L 3.34375 -9.046875 L 1.875 -9.046875 L 2.46875 -12.78125 L 3.9375 -12.78125 L 4.5625 -16.625 Z M 9.09375 -16.625 "/></g></g></g><g fill="#f3f3f3" fill-opacity="1"><g transform="translate(174.53617, 71.315884)"><g><path d="M 17.078125 -7.5 C 17.078125 -6.070312 16.6875 -4.742188 15.90625 -3.515625 C 15.125 -2.296875 14.039062 -1.332031 12.65625 -0.625 C 11.28125 0.0703125 9.800781 0.421875 8.21875 0.421875 C 6.207031 0.421875 4.578125 -0.0859375 3.328125 -1.109375 C 2.085938 -2.128906 1.46875 -3.492188 1.46875 -5.203125 C 1.46875 -6.671875 1.863281 -8.023438 2.65625 -9.265625 C 3.445312 -10.515625 4.519531 -11.484375 5.875 -12.171875 C 7.226562 -12.859375 8.6875 -13.203125 10.25 -13.203125 C 12.269531 -13.203125 13.910156 -12.6875 15.171875 -11.65625 C 16.441406 -10.632812 17.078125 -9.25 17.078125 -7.5 Z M 8.796875 -3.515625 C 9.773438 -3.515625 10.59375 -3.84375 11.25 -4.5 C 11.90625 -5.164062 12.234375 -5.972656 12.234375 -6.921875 C 12.234375 -7.609375 12.003906 -8.171875 11.546875 -8.609375 C 11.085938 -9.046875 10.46875 -9.265625 9.6875 -9.265625 C 8.757812 -9.265625 7.960938 -8.929688 7.296875 -8.265625 C 6.640625 -7.609375 6.3125 -6.789062 6.3125 -5.8125 C 6.3125 -5.113281 6.53125 -4.554688 6.96875 -4.140625 C 7.40625 -3.722656 8.015625 -3.515625 8.796875 -3.515625 Z M 8.796875 -3.515625 "/></g></g></g><g fill="#f3f3f3" fill-opacity="1"><g transform="translate(191.035049, 71.315884)"><g/></g></g><g fill="#f3f3f3" fill-opacity="1"><g transform="translate(199.583559, 71.315884)"><g><path d="M 9.296875 -20.6875 L 6.03125 0 L 1.5 0 L 4.765625 -20.6875 Z M 9.296875 -20.6875 "/></g></g></g><g fill="#f3f3f3" fill-opacity="1"><g transform="translate(207.110243, 71.315884)"><g><path d="M 15.71875 -7.65625 C 15.71875 -7.132812 15.65625 -6.457031 15.53125 -5.625 L 5.984375 -5.625 C 5.960938 -5.539062 5.945312 -5.4375 5.9375 -5.3125 C 5.9375 -5.195312 5.9375 -5.070312 5.9375 -4.9375 C 5.9375 -3.519531 6.75 -2.804688 8.375 -2.796875 C 9.40625 -2.796875 10.1875 -3.1875 10.71875 -3.96875 L 15.078125 -3.96875 C 14.566406 -2.613281 13.660156 -1.539062 12.359375 -0.75 C 11.066406 0.03125 9.570312 0.421875 7.875 0.421875 C 5.863281 0.421875 4.289062 -0.0664062 3.15625 -1.046875 C 2.03125 -2.023438 1.46875 -3.367188 1.46875 -5.078125 C 1.46875 -6.578125 1.828125 -7.96875 2.546875 -9.25 C 3.273438 -10.53125 4.273438 -11.507812 5.546875 -12.1875 C 6.816406 -12.863281 8.164062 -13.203125 9.59375 -13.203125 C 11.550781 -13.203125 13.0625 -12.722656 14.125 -11.765625 C 15.1875 -10.816406 15.71875 -9.445312 15.71875 -7.65625 Z M 11.71875 -8.25 L 11.71875 -8.28125 C 11.695312 -8.875 11.46875 -9.351562 11.03125 -9.71875 C 10.601562 -10.082031 10.078125 -10.265625 9.453125 -10.265625 C 8.785156 -10.265625 8.179688 -10.085938 7.640625 -9.734375 C 7.097656 -9.390625 6.703125 -8.894531 6.453125 -8.25 Z M 11.71875 -8.25 "/></g></g></g><g fill="#f3f3f3" fill-opacity="1"><g transform="translate(222.313136, 71.315884)"><g><path d="M 12.953125 -12.78125 L 17.5 -12.78125 L 15.46875 0 L 10.9375 0 L 11.171875 -1.421875 L 11.109375 -1.421875 C 10.648438 -0.816406 10.039062 -0.359375 9.28125 -0.046875 C 8.53125 0.265625 7.753906 0.421875 6.953125 0.421875 C 5.359375 0.421875 4.050781 -0.109375 3.03125 -1.171875 C 2.007812 -2.234375 1.5 -3.578125 1.5 -5.203125 C 1.5 -6.535156 1.832031 -7.820312 2.5 -9.0625 C 3.175781 -10.300781 4.097656 -11.300781 5.265625 -12.0625 C 6.441406 -12.820312 7.710938 -13.203125 9.078125 -13.203125 C 9.835938 -13.203125 10.546875 -13.0625 11.203125 -12.78125 C 11.859375 -12.5 12.378906 -12.082031 12.765625 -11.53125 Z M 8.71875 -3.515625 C 9.695312 -3.515625 10.515625 -3.847656 11.171875 -4.515625 C 11.828125 -5.191406 12.15625 -5.992188 12.15625 -6.921875 C 12.15625 -7.585938 11.929688 -8.144531 11.484375 -8.59375 C 11.035156 -9.039062 10.414062 -9.265625 9.625 -9.265625 C 8.707031 -9.265625 7.910156 -8.925781 7.234375 -8.25 C 6.566406 -7.582031 6.234375 -6.769531 6.234375 -5.8125 C 6.234375 -5.113281 6.445312 -4.554688 6.875 -4.140625 C 7.3125 -3.722656 7.925781 -3.515625 8.71875 -3.515625 Z M 8.71875 -3.515625 "/></g></g></g><g fill="#f3f3f3" fill-opacity="1"><g transform="translate(239.310473, 71.315884)"><g><path d="M 6.734375 -12.78125 L 8.765625 -6.234375 L 12.828125 -12.78125 L 17.921875 -12.78125 L 9.21875 0 L 6.328125 0 L 1.640625 -12.78125 Z M 6.734375 -12.78125 "/></g></g></g><g fill="#f3f3f3" fill-opacity="1"><g transform="translate(254.837368, 71.315884)"><g><path d="M 15.71875 -7.65625 C 15.71875 -7.132812 15.65625 -6.457031 15.53125 -5.625 L 5.984375 -5.625 C 5.960938 -5.539062 5.945312 -5.4375 5.9375 -5.3125 C 5.9375 -5.195312 5.9375 -5.070312 5.9375 -4.9375 C 5.9375 -3.519531 6.75 -2.804688 8.375 -2.796875 C 9.40625 -2.796875 10.1875 -3.1875 10.71875 -3.96875 L 15.078125 -3.96875 C 14.566406 -2.613281 13.660156 -1.539062 12.359375 -0.75 C 11.066406 0.03125 9.570312 0.421875 7.875 0.421875 C 5.863281 0.421875 4.289062 -0.0664062 3.15625 -1.046875 C 2.03125 -2.023438 1.46875 -3.367188 1.46875 -5.078125 C 1.46875 -6.578125 1.828125 -7.96875 2.546875 -9.25 C 3.273438 -10.53125 4.273438 -11.507812 5.546875 -12.1875 C 6.816406 -12.863281 8.164062 -13.203125 9.59375 -13.203125 C 11.550781 -13.203125 13.0625 -12.722656 14.125 -11.765625 C 15.1875 -10.816406 15.71875 -9.445312 15.71875 -7.65625 Z M 11.71875 -8.25 L 11.71875 -8.28125 C 11.695312 -8.875 11.46875 -9.351562 11.03125 -9.71875 C 10.601562 -10.082031 10.078125 -10.265625 9.453125 -10.265625 C 8.785156 -10.265625 8.179688 -10.085938 7.640625 -9.734375 C 7.097656 -9.390625 6.703125 -8.894531 6.453125 -8.25 Z M 11.71875 -8.25 "/></g></g></g><g fill="#f3f3f3" fill-opacity="1"><g transform="translate(270.04026, 71.315884)"><g><path d="M 4.4375 -1.96875 C 4.4375 -2.851562 4.78125 -3.632812 5.46875 -4.3125 C 6.15625 -4.988281 6.945312 -5.328125 7.84375 -5.328125 C 8.5625 -5.328125 9.148438 -5.09375 9.609375 -4.625 C 10.078125 -4.164062 10.3125 -3.585938 10.3125 -2.890625 C 10.3125 -1.972656 9.972656 -1.175781 9.296875 -0.5 C 8.617188 0.164062 7.828125 0.5 6.921875 0.5 C 6.210938 0.5 5.617188 0.269531 5.140625 -0.1875 C 4.671875 -0.65625 4.4375 -1.25 4.4375 -1.96875 Z M 5.625 -6.28125 L 6.40625 -11.109375 C 6.820312 -11.023438 7.160156 -10.984375 7.421875 -10.984375 C 8.367188 -11.003906 9.210938 -11.28125 9.953125 -11.8125 C 10.691406 -12.34375 11.0625 -12.988281 11.0625 -13.75 C 11.0625 -14.21875 10.910156 -14.597656 10.609375 -14.890625 C 10.316406 -15.179688 9.953125 -15.328125 9.515625 -15.328125 C 9.003906 -15.328125 8.5625 -15.164062 8.1875 -14.84375 C 7.8125 -14.53125 7.566406 -14.0625 7.453125 -13.4375 L 2.5 -13.4375 C 2.78125 -15.144531 3.660156 -16.546875 5.140625 -17.640625 C 6.617188 -18.742188 8.320312 -19.296875 10.25 -19.296875 C 11.925781 -19.296875 13.285156 -18.796875 14.328125 -17.796875 C 15.378906 -16.796875 15.90625 -15.582031 15.90625 -14.15625 C 15.90625 -13.351562 15.695312 -12.539062 15.28125 -11.71875 C 14.875 -10.894531 14.242188 -10.15625 13.390625 -9.5 C 12.535156 -8.84375 11.5625 -8.359375 10.46875 -8.046875 L 10.1875 -6.28125 Z M 5.625 -6.28125 "/></g></g></g></svg>