<svg xmlns="http://www.w3.org/2000/svg" xmlns:xlink="http://www.w3.org/1999/xlink" width="175" zoomAndPan="magnify" viewBox="0 0 131.25 66" height="88" preserveAspectRatio="xMidYMid meet" version="1.0"><defs><g/><clipPath id="62872515d3"><path d="M 0 0.1875 L 130.503906 0.1875 L 130.503906 65.722656 L 0 65.722656 Z M 0 0.1875 " clip-rule="nonzero"/></clipPath><clipPath id="14b2e7f993"><path d="M 30.574219 0.1875 L 99.824219 0.1875 C 107.933594 0.1875 115.710938 3.410156 121.445312 9.144531 C 127.179688 14.875 130.398438 22.652344 130.398438 30.761719 L 130.398438 34.878906 C 130.398438 42.988281 127.179688 50.761719 121.445312 56.496094 C 115.710938 62.230469 107.933594 65.453125 99.824219 65.453125 L 30.574219 65.453125 C 22.464844 65.453125 14.6875 62.230469 8.957031 56.496094 C 3.222656 50.761719 0 42.988281 0 34.878906 L 0 30.761719 C 0 22.652344 3.222656 14.875 8.957031 9.144531 C 14.6875 3.410156 22.464844 0.1875 30.574219 0.1875 " clip-rule="nonzero"/></clipPath></defs><g clip-path="url(#62872515d3)"><g clip-path="url(#14b2e7f993)"><path fill="#f3f3f3" d="M 0 0.1875 L 130.011719 0.1875 L 130.011719 65.722656 L 0 65.722656 Z M 0 0.1875 " fill-opacity="1" fill-rule="nonzero"/></g></g><g fill="#000000" fill-opacity="1"><g transform="translate(46.527098, 38.965909)"><g><path d="M 6.65625 -14.984375 L 8.828125 -10.90625 L 12.265625 -14.984375 L 16.9375 -14.984375 L 10.171875 -7.1875 L 9.046875 0 L 5.140625 0 L 6.28125 -7.1875 L 1.984375 -14.984375 Z M 6.65625 -14.984375 "/></g></g></g><g fill="#000000" fill-opacity="1"><g transform="translate(60.720357, 38.965909)"><g><path d="M 12.15625 -14.984375 L 11.640625 -11.6875 L 7.015625 -11.6875 L 6.625 -9.1875 L 11.015625 -9.1875 L 10.5 -5.890625 L 6.109375 -5.890625 L 5.6875 -3.296875 L 10.3125 -3.296875 L 9.796875 0 L 1.265625 0 L 3.640625 -14.984375 Z M 12.15625 -14.984375 "/></g></g></g><g fill="#000000" fill-opacity="1"><g transform="translate(71.653548, 38.965909)"><g><path d="M 8.78125 -15.390625 C 10.382812 -15.390625 11.890625 -14.976562 13.296875 -14.15625 L 11.265625 -11.125 C 10.566406 -11.789062 9.757812 -12.125 8.84375 -12.125 C 8.363281 -12.125 7.925781 -11.988281 7.53125 -11.71875 C 7.144531 -11.445312 6.953125 -11.113281 6.953125 -10.71875 C 6.953125 -10.425781 7.09375 -10.171875 7.375 -9.953125 C 7.65625 -9.734375 8.164062 -9.515625 8.90625 -9.296875 C 9.914062 -8.992188 10.644531 -8.695312 11.09375 -8.40625 C 11.539062 -8.125 11.890625 -7.773438 12.140625 -7.359375 C 12.390625 -6.941406 12.515625 -6.421875 12.515625 -5.796875 C 12.515625 -4.898438 12.28125 -3.945312 11.8125 -2.9375 C 11.351562 -1.9375 10.597656 -1.132812 9.546875 -0.53125 C 8.492188 0.0625 7.242188 0.367188 5.796875 0.390625 C 3.941406 0.390625 2.273438 -0.175781 0.796875 -1.3125 L 2.96875 -4.453125 C 4 -3.421875 5.0625 -2.90625 6.15625 -2.90625 C 6.769531 -2.90625 7.285156 -3.0625 7.703125 -3.375 C 8.117188 -3.695312 8.328125 -4.101562 8.328125 -4.59375 C 8.328125 -5.226562 7.691406 -5.71875 6.421875 -6.0625 C 4.878906 -6.488281 3.882812 -6.941406 3.4375 -7.421875 C 2.988281 -7.910156 2.765625 -8.554688 2.765625 -9.359375 C 2.765625 -11.054688 3.34375 -12.484375 4.5 -13.640625 C 5.65625 -14.804688 7.082031 -15.390625 8.78125 -15.390625 Z M 8.78125 -15.390625 "/></g></g></g></svg>