<svg xmlns="http://www.w3.org/2000/svg" xmlns:xlink="http://www.w3.org/1999/xlink" width="175" zoomAndPan="magnify" viewBox="0 0 131.25 66" height="88" preserveAspectRatio="xMidYMid meet" version="1.0"><defs><g/><clipPath id="aa3224a3f5"><path d="M 0 0.1875 L 130.503906 0.1875 L 130.503906 65.722656 L 0 65.722656 Z M 0 0.1875 " clip-rule="nonzero"/></clipPath><clipPath id="771f1bd485"><path d="M 30.574219 0.1875 L 99.824219 0.1875 C 107.933594 0.1875 115.710938 3.410156 121.445312 9.144531 C 127.179688 14.875 130.398438 22.652344 130.398438 30.761719 L 130.398438 34.878906 C 130.398438 42.988281 127.179688 50.761719 121.445312 56.496094 C 115.710938 62.230469 107.933594 65.453125 99.824219 65.453125 L 30.574219 65.453125 C 22.464844 65.453125 14.6875 62.230469 8.957031 56.496094 C 3.222656 50.761719 0 42.988281 0 34.878906 L 0 30.761719 C 0 22.652344 3.222656 14.875 8.957031 9.144531 C 14.6875 3.410156 22.464844 0.1875 30.574219 0.1875 " clip-rule="nonzero"/></clipPath></defs><g clip-path="url(#aa3224a3f5)"><g clip-path="url(#771f1bd485)"><path fill="#f3f3f3" d="M 0 0.1875 L 130.011719 0.1875 L 130.011719 65.722656 L 0 65.722656 Z M 0 0.1875 " fill-opacity="1" fill-rule="nonzero"/></g></g><g fill="#000000" fill-opacity="1"><g transform="translate(47.622401, 38.965909)"><g><path d="M 7.53125 -14.984375 L 13.21875 -5.828125 L 13.25 -5.828125 L 14.703125 -14.984375 L 18.609375 -14.984375 L 16.234375 0 L 12.34375 0 L 6.65625 -9.1875 L 6.625 -9.1875 L 5.171875 0 L 1.265625 0 L 3.640625 -14.984375 Z M 7.53125 -14.984375 "/></g></g></g><g fill="#000000" fill-opacity="1"><g transform="translate(65.135379, 38.965909)"><g><path d="M 18.421875 -8.9375 C 18.421875 -7.5 18.003906 -6.003906 17.171875 -4.453125 C 16.335938 -2.898438 15.15625 -1.6875 13.625 -0.8125 C 12.101562 0.0625 10.46875 0.5 8.71875 0.5 C 6.613281 0.5 4.90625 -0.117188 3.59375 -1.359375 C 2.28125 -2.597656 1.625 -4.234375 1.625 -6.265625 C 1.625 -7.929688 2.0625 -9.46875 2.9375 -10.875 C 3.820312 -12.289062 5.023438 -13.410156 6.546875 -14.234375 C 8.066406 -15.066406 9.632812 -15.484375 11.25 -15.484375 C 12.53125 -15.484375 13.726562 -15.203125 14.84375 -14.640625 C 15.96875 -14.085938 16.84375 -13.316406 17.46875 -12.328125 C 18.101562 -11.347656 18.421875 -10.21875 18.421875 -8.9375 Z M 9.328125 -3.28125 C 10.222656 -3.28125 11.050781 -3.523438 11.8125 -4.015625 C 12.570312 -4.515625 13.175781 -5.160156 13.625 -5.953125 C 14.082031 -6.742188 14.3125 -7.519531 14.3125 -8.28125 C 14.3125 -9.238281 13.945312 -10.046875 13.21875 -10.703125 C 12.5 -11.367188 11.640625 -11.703125 10.640625 -11.703125 C 9.847656 -11.703125 9.066406 -11.488281 8.296875 -11.0625 C 7.535156 -10.644531 6.921875 -10.078125 6.453125 -9.359375 C 5.984375 -8.640625 5.75 -7.84375 5.75 -6.96875 C 5.75 -5.894531 6.082031 -5.007812 6.75 -4.3125 C 7.414062 -3.625 8.273438 -3.28125 9.328125 -3.28125 Z M 9.328125 -3.28125 "/></g></g></g></svg>