<svg xmlns="http://www.w3.org/2000/svg" xmlns:xlink="http://www.w3.org/1999/xlink" width="600" zoomAndPan="magnify" viewBox="0 0 450 546.750001" height="729" preserveAspectRatio="xMidYMid meet" version="1.0"><defs><filter x="0%" y="0%" width="100%" height="100%" id="158b554322"><feColorMatrix values="0 0 0 0 1 0 0 0 0 1 0 0 0 0 1 0 0 0 1 0" color-interpolation-filters="sRGB"/></filter><g/><clipPath id="e227d3053f"><path d="M 0.101562 0 L 449.894531 0 L 449.894531 546.5 L 0.101562 546.5 Z M 0.101562 0 " clip-rule="nonzero"/></clipPath><mask id="754246c51a"><g filter="url(#158b554322)"><rect x="-45" width="540" fill="#000000" y="-54.675" height="656.100001" fill-opacity="0.498"/></g></mask><clipPath id="df51e6e215"><path d="M 0.203125 0 L 449.894531 0 L 449.894531 546.5 L 0.203125 546.5 Z M 0.203125 0 " clip-rule="nonzero"/></clipPath><clipPath id="cc3e7c2ce9"><path d="M 38.433594 0 L 411.460938 0 C 432.574219 0 449.691406 17.117188 449.691406 38.234375 L 449.691406 508.269531 C 449.691406 529.382812 432.574219 546.5 411.460938 546.5 L 38.433594 546.5 C 17.320312 546.5 0.203125 529.382812 0.203125 508.269531 L 0.203125 38.234375 C 0.203125 17.117188 17.320312 0 38.433594 0 " clip-rule="nonzero"/></clipPath><clipPath id="078bcbe93a"><rect x="0" width="450" y="0" height="547"/></clipPath></defs><g clip-path="url(#e227d3053f)"><g mask="url(#754246c51a)"><g transform="matrix(1, 0, 0, 1, 0.000000000000000014, -0.000000000000096893)"><g clip-path="url(#078bcbe93a)"><g clip-path="url(#df51e6e215)"><g clip-path="url(#cc3e7c2ce9)"><path fill="#ffffff" d="M 0.203125 0 L 451.554688 0 L 451.554688 546.175781 L 0.203125 546.175781 Z M 0.203125 0 " fill-opacity="1" fill-rule="nonzero"/></g></g></g></g></g></g><g fill="#000000" fill-opacity="1"><g transform="translate(176.247996, 78.817328)"><g><path d="M 2.28125 0 L 2.28125 -26.15625 L 7.796875 -26.15625 L 7.796875 -4.5625 L 19.015625 -4.5625 L 19.015625 0 Z M 2.28125 0 "/></g></g></g><g fill="#000000" fill-opacity="1"><g transform="translate(196.655616, 78.817328)"><g><path d="M 11.03125 0.390625 C 9.050781 0.390625 7.335938 -0.03125 5.890625 -0.875 C 4.453125 -1.726562 3.335938 -2.914062 2.546875 -4.4375 C 1.765625 -5.957031 1.375 -7.722656 1.375 -9.734375 C 1.375 -11.753906 1.765625 -13.523438 2.546875 -15.046875 C 3.335938 -16.566406 4.453125 -17.75 5.890625 -18.59375 C 7.335938 -19.445312 9.050781 -19.875 11.03125 -19.875 C 13.019531 -19.875 14.734375 -19.445312 16.171875 -18.59375 C 17.617188 -17.75 18.734375 -16.566406 19.515625 -15.046875 C 20.296875 -13.523438 20.6875 -11.753906 20.6875 -9.734375 C 20.6875 -7.722656 20.296875 -5.957031 19.515625 -4.4375 C 18.734375 -2.914062 17.617188 -1.726562 16.171875 -0.875 C 14.734375 -0.03125 13.019531 0.390625 11.03125 0.390625 Z M 11.0625 -3.828125 C 12.40625 -3.828125 13.421875 -4.390625 14.109375 -5.515625 C 14.804688 -6.640625 15.15625 -8.054688 15.15625 -9.765625 C 15.15625 -11.484375 14.804688 -12.90625 14.109375 -14.03125 C 13.421875 -15.15625 12.40625 -15.71875 11.0625 -15.71875 C 9.6875 -15.71875 8.648438 -15.15625 7.953125 -14.03125 C 7.253906 -12.90625 6.90625 -11.484375 6.90625 -9.765625 C 6.90625 -8.054688 7.253906 -6.640625 7.953125 -5.515625 C 8.648438 -4.390625 9.6875 -3.828125 11.0625 -3.828125 Z M 11.0625 -3.828125 "/></g></g></g><g fill="#000000" fill-opacity="1"><g transform="translate(218.723428, 78.817328)"><g><path d="M 11.015625 7.640625 C 8.367188 7.640625 6.289062 7.117188 4.78125 6.078125 C 3.28125 5.035156 2.367188 3.773438 2.046875 2.296875 L 7.078125 1.625 C 7.296875 2.15625 7.726562 2.640625 8.375 3.078125 C 9.019531 3.515625 9.941406 3.734375 11.140625 3.734375 C 12.316406 3.734375 13.289062 3.453125 14.0625 2.890625 C 14.832031 2.328125 15.21875 1.398438 15.21875 0.109375 L 15.21875 -3.46875 L 15 -3.46875 C 14.632812 -2.664062 14 -1.929688 13.09375 -1.265625 C 12.195312 -0.609375 10.96875 -0.28125 9.40625 -0.28125 C 7.925781 -0.28125 6.582031 -0.625 5.375 -1.3125 C 4.175781 -2 3.21875 -3.050781 2.5 -4.46875 C 1.789062 -5.882812 1.4375 -7.675781 1.4375 -9.84375 C 1.4375 -12.070312 1.800781 -13.925781 2.53125 -15.40625 C 3.257812 -16.894531 4.226562 -18.007812 5.4375 -18.75 C 6.644531 -19.5 7.960938 -19.875 9.390625 -19.875 C 10.484375 -19.875 11.398438 -19.6875 12.140625 -19.3125 C 12.890625 -18.945312 13.492188 -18.488281 13.953125 -17.9375 C 14.410156 -17.394531 14.757812 -16.859375 15 -16.328125 L 15.203125 -16.328125 L 15.203125 -19.625 L 20.609375 -19.625 L 20.609375 0.1875 C 20.609375 1.8125 20.195312 3.175781 19.375 4.28125 C 18.550781 5.394531 17.421875 6.234375 15.984375 6.796875 C 14.546875 7.359375 12.890625 7.640625 11.015625 7.640625 Z M 11.125 -4.375 C 12.4375 -4.375 13.453125 -4.859375 14.171875 -5.828125 C 14.890625 -6.796875 15.25 -8.144531 15.25 -9.875 C 15.25 -11.59375 14.890625 -12.96875 14.171875 -14 C 13.460938 -15.03125 12.445312 -15.546875 11.125 -15.546875 C 9.78125 -15.546875 8.753906 -15.015625 8.046875 -13.953125 C 7.347656 -12.898438 7 -11.539062 7 -9.875 C 7 -8.175781 7.351562 -6.832031 8.0625 -5.84375 C 8.769531 -4.863281 9.789062 -4.375 11.125 -4.375 Z M 11.125 -4.375 "/></g></g></g><g fill="#000000" fill-opacity="1"><g transform="translate(241.493628, 78.817328)"><g><path d="M 2.171875 0 L 2.171875 -19.625 L 7.609375 -19.625 L 7.609375 0 Z M 4.90625 -22.15625 C 4.101562 -22.15625 3.410156 -22.421875 2.828125 -22.953125 C 2.253906 -23.492188 1.96875 -24.144531 1.96875 -24.90625 C 1.96875 -25.664062 2.253906 -26.3125 2.828125 -26.84375 C 3.410156 -27.382812 4.101562 -27.65625 4.90625 -27.65625 C 5.71875 -27.65625 6.410156 -27.382812 6.984375 -26.84375 C 7.566406 -26.3125 7.859375 -25.664062 7.859375 -24.90625 C 7.859375 -24.144531 7.566406 -23.492188 6.984375 -22.953125 C 6.410156 -22.421875 5.71875 -22.15625 4.90625 -22.15625 Z M 4.90625 -22.15625 "/></g></g></g><g fill="#000000" fill-opacity="1"><g transform="translate(251.276006, 78.817328)"><g><path d="M 7.609375 -11.34375 L 7.609375 0 L 2.171875 0 L 2.171875 -19.625 L 7.359375 -19.625 L 7.359375 -16.15625 L 7.59375 -16.15625 C 8.03125 -17.300781 8.753906 -18.207031 9.765625 -18.875 C 10.785156 -19.539062 12.023438 -19.875 13.484375 -19.875 C 15.523438 -19.875 17.164062 -19.210938 18.40625 -17.890625 C 19.644531 -16.578125 20.265625 -14.773438 20.265625 -12.484375 L 20.265625 0 L 14.8125 0 L 14.8125 -11.515625 C 14.820312 -12.722656 14.515625 -13.664062 13.890625 -14.34375 C 13.273438 -15.019531 12.421875 -15.359375 11.328125 -15.359375 C 10.234375 -15.359375 9.34375 -15.003906 8.65625 -14.296875 C 7.96875 -13.597656 7.617188 -12.613281 7.609375 -11.34375 Z M 7.609375 -11.34375 "/></g></g></g></svg>