<svg xmlns="http://www.w3.org/2000/svg" xmlns:xlink="http://www.w3.org/1999/xlink" width="448" zoomAndPan="magnify" viewBox="0 0 336 36.750001" height="49" preserveAspectRatio="xMidYMid meet" version="1.0"><defs><filter x="0%" y="0%" width="100%" height="100%" id="52a8fb93eb"><feColorMatrix values="0 0 0 0 1 0 0 0 0 1 0 0 0 0 1 0 0 0 1 0" color-interpolation-filters="sRGB"/></filter><g/><clipPath id="18dfeffa71"><path d="M 1.136719 0 L 334.863281 0 L 334.863281 36.5 L 1.136719 36.5 Z M 1.136719 0 " clip-rule="nonzero"/></clipPath><mask id="07af461d88"><g filter="url(#52a8fb93eb)"><rect x="-33.6" width="403.2" fill="#000000" y="-3.675" height="44.100001" fill-opacity="0.498"/></g></mask><clipPath id="071ea9a33d"><path d="M 0.136719 0 L 333.863281 0 L 333.863281 36.5 L 0.136719 36.5 Z M 0.136719 0 " clip-rule="nonzero"/></clipPath><clipPath id="ab843b1e8d"><path d="M 18.578125 0 L 315.421875 0 C 325.609375 0 333.863281 8.257812 333.863281 18.441406 C 333.863281 28.628906 325.609375 36.886719 315.421875 36.886719 L 18.578125 36.886719 C 8.390625 36.886719 0.136719 28.628906 0.136719 18.441406 C 0.136719 8.257812 8.390625 0 18.578125 0 " clip-rule="nonzero"/></clipPath><clipPath id="139cbd19d8"><rect x="0" width="334" y="0" height="37"/></clipPath><mask id="c9c000bff5"><g filter="url(#52a8fb93eb)"><rect x="-33.6" width="403.2" fill="#000000" y="-3.675" height="44.100001" fill-opacity="0.498"/></g></mask><clipPath id="fb71d6dc91"><rect x="0" width="49" y="0" height="19"/></clipPath></defs><g clip-path="url(#18dfeffa71)"><g mask="url(#07af461d88)"><g transform="matrix(1, 0, 0, 1, 1, 0.000000000000002571)"><g clip-path="url(#139cbd19d8)"><g clip-path="url(#071ea9a33d)"><g clip-path="url(#ab843b1e8d)"><path fill="#545454" d="M 0.136719 0 L 335.671875 0 L 335.671875 37.699219 L 0.136719 37.699219 Z M 0.136719 0 " fill-opacity="1" fill-rule="nonzero"/></g></g></g></g></g></g><g mask="url(#c9c000bff5)"><g transform="matrix(1, 0, 0, 1, 143, 9)"><g clip-path="url(#fb71d6dc91)"><g fill="#ffffff" fill-opacity="1"><g transform="translate(1.718556, 14.655385)"><g><path d="M 0.9375 0 L 0.9375 -10.828125 L 3.234375 -10.828125 L 3.234375 -1.890625 L 7.875 -1.890625 L 7.875 0 Z M 0.9375 0 "/></g></g></g><g fill="#ffffff" fill-opacity="1"><g transform="translate(10.170542, 14.655385)"><g><path d="M 10.890625 -5.421875 C 10.890625 -4.234375 10.664062 -3.222656 10.21875 -2.390625 C 9.78125 -1.566406 9.175781 -0.9375 8.40625 -0.5 C 7.644531 -0.0703125 6.785156 0.140625 5.828125 0.140625 C 4.859375 0.140625 3.988281 -0.0703125 3.21875 -0.5 C 2.457031 -0.9375 1.851562 -1.570312 1.40625 -2.40625 C 0.96875 -3.238281 0.75 -4.242188 0.75 -5.421875 C 0.75 -6.597656 0.96875 -7.597656 1.40625 -8.421875 C 1.851562 -9.253906 2.457031 -9.890625 3.21875 -10.328125 C 3.988281 -10.765625 4.859375 -10.984375 5.828125 -10.984375 C 6.785156 -10.984375 7.644531 -10.765625 8.40625 -10.328125 C 9.175781 -9.890625 9.78125 -9.253906 10.21875 -8.421875 C 10.664062 -7.597656 10.890625 -6.597656 10.890625 -5.421875 Z M 8.578125 -5.421875 C 8.578125 -6.566406 8.320312 -7.441406 7.8125 -8.046875 C 7.3125 -8.648438 6.648438 -8.953125 5.828125 -8.953125 C 4.992188 -8.953125 4.328125 -8.648438 3.828125 -8.046875 C 3.328125 -7.441406 3.078125 -6.566406 3.078125 -5.421875 C 3.078125 -4.273438 3.328125 -3.394531 3.828125 -2.78125 C 4.328125 -2.175781 4.992188 -1.875 5.828125 -1.875 C 6.648438 -1.875 7.3125 -2.175781 7.8125 -2.78125 C 8.320312 -3.394531 8.578125 -4.273438 8.578125 -5.421875 Z M 8.578125 -5.421875 "/></g></g></g><g fill="#ffffff" fill-opacity="1"><g transform="translate(21.81715, 14.655385)"><g><path d="M 8.125 -7.328125 C 7.976562 -7.835938 7.707031 -8.234375 7.3125 -8.515625 C 6.925781 -8.804688 6.441406 -8.953125 5.859375 -8.953125 C 5.023438 -8.953125 4.351562 -8.644531 3.84375 -8.03125 C 3.332031 -7.425781 3.078125 -6.554688 3.078125 -5.421875 C 3.078125 -4.296875 3.328125 -3.421875 3.828125 -2.796875 C 4.328125 -2.179688 5.007812 -1.875 5.875 -1.875 C 6.632812 -1.875 7.234375 -2.070312 7.671875 -2.46875 C 8.109375 -2.863281 8.332031 -3.398438 8.34375 -4.078125 L 6.015625 -4.078125 L 6.015625 -5.796875 L 10.546875 -5.796875 L 10.546875 -4.4375 C 10.546875 -3.488281 10.34375 -2.671875 9.9375 -1.984375 C 9.539062 -1.296875 8.988281 -0.769531 8.28125 -0.40625 C 7.582031 -0.0390625 6.773438 0.140625 5.859375 0.140625 C 4.847656 0.140625 3.957031 -0.0820312 3.1875 -0.53125 C 2.414062 -0.976562 1.816406 -1.613281 1.390625 -2.4375 C 0.960938 -3.269531 0.75 -4.257812 0.75 -5.40625 C 0.75 -6.570312 0.972656 -7.570312 1.421875 -8.40625 C 1.867188 -9.238281 2.472656 -9.875 3.234375 -10.3125 C 4.003906 -10.757812 4.863281 -10.984375 5.8125 -10.984375 C 6.632812 -10.984375 7.375 -10.828125 8.03125 -10.515625 C 8.695312 -10.203125 9.238281 -9.769531 9.65625 -9.21875 C 10.082031 -8.675781 10.347656 -8.046875 10.453125 -7.328125 Z M 8.125 -7.328125 "/></g></g></g><g fill="#ffffff" fill-opacity="1"><g transform="translate(33.146415, 14.655385)"><g><path d="M 3.234375 -10.828125 L 3.234375 0 L 0.9375 0 L 0.9375 -10.828125 Z M 3.234375 -10.828125 "/></g></g></g><g fill="#ffffff" fill-opacity="1"><g transform="translate(37.324807, 14.655385)"><g><path d="M 10 -10.828125 L 10 0 L 8.015625 0 L 3.3125 -6.8125 L 3.234375 -6.8125 L 3.234375 0 L 0.9375 0 L 0.9375 -10.828125 L 2.953125 -10.828125 L 7.625 -4.015625 L 7.71875 -4.015625 L 7.71875 -10.828125 Z M 10 -10.828125 "/></g></g></g></g></g></g></svg>