<svg xmlns="http://www.w3.org/2000/svg" xmlns:xlink="http://www.w3.org/1999/xlink" width="1365" zoomAndPan="magnify" viewBox="0 0 1023.75 174.749997" height="233" preserveAspectRatio="xMidYMid meet" version="1.0"><defs><g/><clipPath id="d07fbc0cf4"><path d="M 947 12 L 1011 12 L 1011 76 L 947 76 Z M 947 12 " clip-rule="nonzero"/></clipPath><clipPath id="b1a2e6e21c"><path d="M 970.851562 0.00390625 L 1023.136719 35.101562 L 988.039062 87.390625 L 935.75 52.289062 Z M 970.851562 0.00390625 " clip-rule="nonzero"/></clipPath><clipPath id="b3c5c0ec2e"><path d="M 996.992188 17.550781 C 982.554688 7.859375 962.992188 11.707031 953.300781 26.148438 C 943.609375 40.585938 947.457031 60.148438 961.894531 69.839844 C 976.332031 79.53125 995.894531 75.683594 1005.589844 61.246094 C 1015.28125 46.808594 1011.433594 27.246094 996.992188 17.550781 " clip-rule="nonzero"/></clipPath><clipPath id="6184c20324"><path d="M 938 48 L 986 48 L 986 105 L 938 105 Z M 938 48 " clip-rule="nonzero"/></clipPath><clipPath id="fe689e7dc0"><path d="M 954.546875 115.664062 L 921.867188 93.726562 L 952.582031 47.976562 L 985.257812 69.910156 Z M 954.546875 115.664062 " clip-rule="nonzero"/></clipPath><clipPath id="594920c872"><path d="M 938.382812 104.8125 L 952.933594 48.210938 L 985.257812 69.910156 L 938.382812 104.8125 " clip-rule="nonzero"/></clipPath><clipPath id="28b60bdaa8"><path d="M 959 24 L 999 24 L 999 64 L 959 64 Z M 959 24 " clip-rule="nonzero"/></clipPath><clipPath id="aa3d3705b9"><path d="M 974.125 16.683594 L 1006.453125 38.386719 L 984.753906 70.714844 L 952.425781 49.011719 Z M 974.125 16.683594 " clip-rule="nonzero"/></clipPath><clipPath id="f3a115a886"><path d="M 990.289062 27.535156 C 981.363281 21.542969 969.269531 23.921875 963.273438 32.847656 C 957.28125 41.777344 959.660156 53.871094 968.589844 59.863281 C 977.515625 65.855469 989.609375 63.476562 995.601562 54.550781 C 1001.59375 45.621094 999.214844 33.527344 990.289062 27.535156 " clip-rule="nonzero"/></clipPath></defs><g clip-path="url(#d07fbc0cf4)"><g clip-path="url(#b1a2e6e21c)"><g clip-path="url(#b3c5c0ec2e)"><path fill="#3793cb" d="M 970.851562 0.00390625 L 1023.136719 35.101562 L 988.039062 87.390625 L 935.75 52.289062 Z M 970.851562 0.00390625 " fill-opacity="1" fill-rule="nonzero"/></g></g></g><g clip-path="url(#6184c20324)"><g clip-path="url(#fe689e7dc0)"><g clip-path="url(#594920c872)"><path fill="#3793cb" d="M 954.546875 115.664062 L 921.867188 93.726562 L 952.582031 47.976562 L 985.257812 69.910156 Z M 954.546875 115.664062 " fill-opacity="1" fill-rule="nonzero"/></g></g></g><g clip-path="url(#28b60bdaa8)"><g clip-path="url(#aa3d3705b9)"><g clip-path="url(#f3a115a886)"><path fill="#f4faf8" d="M 974.125 16.683594 L 1006.453125 38.386719 L 984.753906 70.714844 L 952.425781 49.011719 Z M 974.125 16.683594 " fill-opacity="1" fill-rule="nonzero"/></g></g></g><g fill="#000000" fill-opacity="1"><g transform="translate(0.628867, 149.579967)"><g><path d="M 33.359375 -66.375 L 58.546875 -25.796875 L 58.71875 -25.796875 L 65.140625 -66.375 L 82.390625 -66.375 L 71.921875 0 L 54.671875 0 L 29.484375 -40.671875 L 29.3125 -40.671875 L 22.890625 0 L 5.640625 0 L 16.109375 -66.375 Z M 33.359375 -66.375 "/></g></g></g><g fill="#000000" fill-opacity="1"><g transform="translate(78.18635, 149.579967)"><g><path d="M 33.359375 -66.375 L 22.890625 0 L 5.640625 0 L 16.109375 -66.375 Z M 33.359375 -66.375 "/></g></g></g><g fill="#000000" fill-opacity="1"><g transform="translate(106.709197, 149.579967)"><g><path d="M 58.71875 -43.140625 C 57.007812 -50.179688 52.695312 -53.703125 45.78125 -53.703125 C 42.132812 -53.703125 38.710938 -52.507812 35.515625 -50.125 C 32.316406 -47.75 29.78125 -44.609375 27.90625 -40.703125 C 26.03125 -36.804688 25.09375 -32.832031 25.09375 -28.78125 C 25.09375 -23.738281 26.410156 -19.675781 29.046875 -16.59375 C 31.691406 -13.507812 35.242188 -11.96875 39.703125 -11.96875 C 43.753906 -11.96875 47.15625 -12.992188 49.90625 -15.046875 C 52.664062 -17.109375 54.488281 -19.925781 55.375 -23.5 L 41.28125 -23.5 L 43.484375 -37.0625 L 77.734375 -37.0625 C 76.203125 -27.789062 73.628906 -20.46875 70.015625 -15.09375 C 66.410156 -9.726562 61.835938 -5.503906 56.296875 -2.421875 C 50.753906 0.660156 44.429688 2.203125 37.328125 2.203125 C 28.171875 2.203125 20.816406 -0.378906 15.265625 -5.546875 C 9.722656 -10.710938 6.953125 -17.609375 6.953125 -26.234375 C 6.953125 -33.804688 8.738281 -40.847656 12.3125 -47.359375 C 15.894531 -53.867188 20.914062 -59.03125 27.375 -62.84375 C 33.832031 -66.664062 41.082031 -68.578125 49.125 -68.578125 C 63.144531 -68.578125 72.148438 -62.382812 76.140625 -50 Z M 58.71875 -43.140625 "/></g></g></g><g fill="#000000" fill-opacity="1"><g transform="translate(180.833373, 149.579967)"><g><path d="M 33.359375 -66.375 L 29.3125 -40.765625 L 54.234375 -40.765625 L 58.28125 -66.375 L 75.53125 -66.375 L 65.0625 0 L 47.796875 0 L 52.109375 -27.203125 L 27.203125 -27.203125 L 22.890625 0 L 5.640625 0 L 16.109375 -66.375 Z M 33.359375 -66.375 "/></g></g></g><g fill="#000000" fill-opacity="1"><g transform="translate(251.524242, 149.579967)"><g><path d="M 56.78125 -66.375 L 54.484375 -51.765625 L 40.234375 -51.765625 L 32.046875 0 L 14.796875 0 L 22.96875 -51.765625 L 8.71875 -51.765625 L 11 -66.375 Z M 56.78125 -66.375 "/></g></g></g><g fill="#000000" fill-opacity="1"><g transform="translate(298.446072, 149.579967)"><g><path d="M 33.359375 -66.375 L 29.3125 -40.765625 L 54.234375 -40.765625 L 58.28125 -66.375 L 75.53125 -66.375 L 65.0625 0 L 47.796875 0 L 52.109375 -27.203125 L 27.203125 -27.203125 L 22.890625 0 L 5.640625 0 L 16.109375 -66.375 Z M 33.359375 -66.375 "/></g></g></g><g fill="#000000" fill-opacity="1"><g transform="translate(369.136941, 149.579967)"><g><path d="M 54.484375 -66.375 L 69.015625 0 L 50.625 0 L 48.15625 -11.53125 L 24.390625 -11.53125 L 17.953125 0 L -0.359375 0 L 35.65625 -66.375 Z M 31.25 -24.734375 L 45.59375 -24.734375 L 41.90625 -45.859375 L 41.734375 -45.859375 Z M 31.25 -24.734375 "/></g></g></g><g fill="#000000" fill-opacity="1"><g transform="translate(437.891084, 149.579967)"><g><path d="M 27.109375 -66.375 L 31.875 -23.5 L 32.046875 -23.5 L 52.734375 -66.375 L 66.46875 -66.375 L 72.71875 -23.5 L 72.890625 -23.5 L 92.171875 -66.375 L 110.125 -66.375 L 78.4375 0 L 60.828125 0 L 55.28125 -38.46875 L 55.109375 -38.46875 L 36 0 L 18.484375 0 L 9.15625 -66.375 Z M 27.109375 -66.375 "/></g></g></g><g fill="#000000" fill-opacity="1"><g transform="translate(536.224466, 149.579967)"><g><path d="M 33.359375 -66.375 L 29.046875 -39 L 29.21875 -39 L 54.40625 -66.375 L 75.796875 -66.375 L 44.453125 -34.953125 L 67.703125 0 L 45.34375 0 L 27.640625 -28.78125 L 27.46875 -28.78125 L 22.890625 0 L 5.640625 0 L 16.109375 -66.375 Z M 33.359375 -66.375 "/></g></g></g><g fill="#000000" fill-opacity="1"><g transform="translate(602.953832, 149.579967)"><g><path d="M 58.71875 -43.140625 C 57.007812 -50.179688 52.695312 -53.703125 45.78125 -53.703125 C 42.132812 -53.703125 38.710938 -52.507812 35.515625 -50.125 C 32.316406 -47.75 29.78125 -44.609375 27.90625 -40.703125 C 26.03125 -36.804688 25.09375 -32.832031 25.09375 -28.78125 C 25.09375 -23.738281 26.410156 -19.675781 29.046875 -16.59375 C 31.691406 -13.507812 35.242188 -11.96875 39.703125 -11.96875 C 43.753906 -11.96875 47.15625 -12.992188 49.90625 -15.046875 C 52.664062 -17.109375 54.488281 -19.925781 55.375 -23.5 L 41.28125 -23.5 L 43.484375 -37.0625 L 77.734375 -37.0625 C 76.203125 -27.789062 73.628906 -20.46875 70.015625 -15.09375 C 66.410156 -9.726562 61.835938 -5.503906 56.296875 -2.421875 C 50.753906 0.660156 44.429688 2.203125 37.328125 2.203125 C 28.171875 2.203125 20.816406 -0.378906 15.265625 -5.546875 C 9.722656 -10.710938 6.953125 -17.609375 6.953125 -26.234375 C 6.953125 -33.804688 8.738281 -40.847656 12.3125 -47.359375 C 15.894531 -53.867188 20.914062 -59.03125 27.375 -62.84375 C 33.832031 -66.664062 41.082031 -68.578125 49.125 -68.578125 C 63.144531 -68.578125 72.148438 -62.382812 76.140625 -50 Z M 58.71875 -43.140625 "/></g></g></g><g fill="#000000" fill-opacity="1"><g transform="translate(677.077986, 149.579967)"><g><path d="M 33.015625 -66.375 L 27.546875 -31.34375 C 27.023438 -28.164062 26.765625 -25.582031 26.765625 -23.59375 C 26.765625 -20.25 27.484375 -17.707031 28.921875 -15.96875 C 30.359375 -14.238281 32.835938 -13.375 36.359375 -13.375 C 40.640625 -13.375 43.910156 -14.769531 46.171875 -17.5625 C 48.429688 -20.351562 50 -24.738281 50.875 -30.71875 L 56.421875 -66.375 L 73.6875 -66.375 L 67.703125 -28.171875 C 66.523438 -20.421875 64.5 -14.519531 61.625 -10.46875 C 58.75 -6.425781 54.914062 -3.375 50.125 -1.3125 C 45.34375 0.738281 39.960938 1.765625 33.984375 1.765625 C 25.878906 1.765625 19.65625 0.0195312 15.3125 -3.46875 C 10.96875 -6.96875 8.796875 -12.0625 8.796875 -18.75 C 8.796875 -19.976562 8.851562 -21.328125 8.96875 -22.796875 C 9.09375 -24.265625 11.351562 -38.789062 15.75 -66.375 Z M 33.015625 -66.375 "/></g></g></g><g fill="#000000" fill-opacity="1"><g transform="translate(745.56802, 149.579967)"><g><path d="M 53.875 -66.375 L 51.59375 -51.765625 L 31.078125 -51.765625 L 29.3125 -40.671875 L 48.765625 -40.671875 L 46.484375 -26.0625 L 27.03125 -26.0625 L 25.171875 -14.609375 L 45.6875 -14.609375 L 43.40625 0 L 5.640625 0 L 16.109375 -66.375 Z M 53.875 -66.375 "/></g></g></g><g fill="#000000" fill-opacity="1"><g transform="translate(793.986388, 149.579967)"><g><path d="M 38.90625 -68.140625 C 46.007812 -68.140625 52.671875 -66.316406 58.890625 -62.671875 L 49.90625 -49.296875 C 46.800781 -52.234375 43.222656 -53.703125 39.171875 -53.703125 C 37.054688 -53.703125 35.132812 -53.097656 33.40625 -51.890625 C 31.675781 -50.691406 30.8125 -49.210938 30.8125 -47.453125 C 30.8125 -46.160156 31.425781 -45.03125 32.65625 -44.0625 C 33.894531 -43.09375 36.15625 -42.140625 39.4375 -41.203125 C 43.894531 -39.847656 47.117188 -38.539062 49.109375 -37.28125 C 51.109375 -36.019531 52.664062 -34.460938 53.78125 -32.609375 C 54.894531 -30.765625 55.453125 -28.460938 55.453125 -25.703125 C 55.453125 -21.710938 54.425781 -17.488281 52.375 -13.03125 C 50.320312 -8.570312 46.960938 -5.019531 42.296875 -2.375 C 37.628906 0.257812 32.097656 1.640625 25.703125 1.765625 C 17.484375 1.765625 10.085938 -0.757812 3.515625 -5.8125 L 13.109375 -19.71875 C 17.691406 -15.144531 22.421875 -12.859375 27.296875 -12.859375 C 29.992188 -12.859375 32.265625 -13.5625 34.109375 -14.96875 C 35.960938 -16.375 36.890625 -18.160156 36.890625 -20.328125 C 36.890625 -23.148438 34.070312 -25.320312 28.4375 -26.84375 C 21.625 -28.726562 17.21875 -30.738281 15.21875 -32.875 C 13.226562 -35.019531 12.234375 -37.882812 12.234375 -41.46875 C 12.234375 -48.976562 14.800781 -55.300781 19.9375 -60.4375 C 25.070312 -65.570312 31.394531 -68.140625 38.90625 -68.140625 Z M 38.90625 -68.140625 "/></g></g></g><g fill="#000000" fill-opacity="1"><g transform="translate(848.126926, 149.579967)"><g><path d="M 38.90625 -68.140625 C 46.007812 -68.140625 52.671875 -66.316406 58.890625 -62.671875 L 49.90625 -49.296875 C 46.800781 -52.234375 43.222656 -53.703125 39.171875 -53.703125 C 37.054688 -53.703125 35.132812 -53.097656 33.40625 -51.890625 C 31.675781 -50.691406 30.8125 -49.210938 30.8125 -47.453125 C 30.8125 -46.160156 31.425781 -45.03125 32.65625 -44.0625 C 33.894531 -43.09375 36.15625 -42.140625 39.4375 -41.203125 C 43.894531 -39.847656 47.117188 -38.539062 49.109375 -37.28125 C 51.109375 -36.019531 52.664062 -34.460938 53.78125 -32.609375 C 54.894531 -30.765625 55.453125 -28.460938 55.453125 -25.703125 C 55.453125 -21.710938 54.425781 -17.488281 52.375 -13.03125 C 50.320312 -8.570312 46.960938 -5.019531 42.296875 -2.375 C 37.628906 0.257812 32.097656 1.640625 25.703125 1.765625 C 17.484375 1.765625 10.085938 -0.757812 3.515625 -5.8125 L 13.109375 -19.71875 C 17.691406 -15.144531 22.421875 -12.859375 27.296875 -12.859375 C 29.992188 -12.859375 32.265625 -13.5625 34.109375 -14.96875 C 35.960938 -16.375 36.890625 -18.160156 36.890625 -20.328125 C 36.890625 -23.148438 34.070312 -25.320312 28.4375 -26.84375 C 21.625 -28.726562 17.21875 -30.738281 15.21875 -32.875 C 13.226562 -35.019531 12.234375 -37.882812 12.234375 -41.46875 C 12.234375 -48.976562 14.800781 -55.300781 19.9375 -60.4375 C 25.070312 -65.570312 31.394531 -68.140625 38.90625 -68.140625 Z M 38.90625 -68.140625 "/></g></g></g><g fill="#000000" fill-opacity="1"><g transform="translate(902.267464, 149.579967)"><g><path d="M 42.34375 -66.375 C 48.332031 -66.375 53.128906 -64.960938 56.734375 -62.140625 C 60.347656 -59.328125 62.15625 -55.28125 62.15625 -50 C 62.15625 -44.363281 60.476562 -39.390625 57.125 -35.078125 C 53.78125 -30.765625 49.5 -28.140625 44.28125 -27.203125 L 60.828125 0 L 39.34375 0 L 27.109375 -25.53125 L 26.9375 -25.53125 L 22.890625 0 L 5.640625 0 L 16.109375 -66.375 Z M 28.703125 -36.625 L 31.078125 -36.625 C 35.128906 -36.625 38.269531 -37.472656 40.5 -39.171875 C 42.726562 -40.878906 43.84375 -43.375 43.84375 -46.65625 C 43.84375 -51 40.257812 -53.171875 33.09375 -53.171875 L 31.34375 -53.171875 Z M 28.703125 -36.625 "/></g></g></g></svg>