<svg xmlns="http://www.w3.org/2000/svg" xmlns:xlink="http://www.w3.org/1999/xlink" width="40" zoomAndPan="magnify" viewBox="0 0 30 36.000001" height="48" preserveAspectRatio="xMidYMid meet" version="1.0"><defs><filter x="0%" y="0%" width="100%" height="100%" id="125632bd02"><feColorMatrix values="0 0 0 0 1 0 0 0 0 1 0 0 0 0 1 0 0 0 1 0" color-interpolation-filters="sRGB"/></filter><clipPath id="e059a56719"><path d="M 14.863281 17.347656 L 15.089844 17.347656 L 15.089844 17.351562 L 14.863281 17.351562 Z M 14.863281 17.347656 " clip-rule="nonzero"/></clipPath><clipPath id="a2b1bf1980"><path d="M 0.40625 12.027344 L 29.59375 12.027344 L 29.59375 34.828125 L 0.40625 34.828125 Z M 0.40625 12.027344 " clip-rule="nonzero"/></clipPath><clipPath id="5cfc603e4a"><path d="M 7.703125 12.027344 L 22.296875 12.027344 C 26.328125 12.027344 29.59375 15.292969 29.59375 19.324219 L 29.59375 27.230469 C 29.59375 31.261719 26.328125 34.527344 22.296875 34.527344 L 7.703125 34.527344 C 3.671875 34.527344 0.40625 31.261719 0.40625 27.230469 L 0.40625 19.324219 C 0.40625 15.292969 3.671875 12.027344 7.703125 12.027344 " clip-rule="nonzero"/></clipPath><clipPath id="9cc2adf295"><path d="M 3.582031 0 L 26.601562 0 L 26.601562 23.019531 L 3.582031 23.019531 Z M 3.582031 0 " clip-rule="nonzero"/></clipPath><clipPath id="206e0d4a89"><path d="M 15.089844 0 C 8.734375 0 3.582031 5.152344 3.582031 11.507812 C 3.582031 17.867188 8.734375 23.019531 15.089844 23.019531 C 21.449219 23.019531 26.601562 17.867188 26.601562 11.507812 C 26.601562 5.152344 21.449219 0 15.089844 0 " clip-rule="nonzero"/></clipPath><mask id="1aa74aac64"><g filter="url(#125632bd02)"><rect x="-3" width="36" fill="#000000" y="-3.6" height="43.200001" fill-opacity="0.498"/></g></mask><clipPath id="259ebe7407"><path d="M 0.492188 0.769531 L 9.507812 0.769531 L 9.507812 9.785156 L 0.492188 9.785156 Z M 0.492188 0.769531 " clip-rule="nonzero"/></clipPath><clipPath id="551fd4c164"><path d="M 5 0.769531 C 2.507812 0.769531 0.492188 2.785156 0.492188 5.277344 C 0.492188 7.769531 2.507812 9.785156 5 9.785156 C 7.492188 9.785156 9.507812 7.769531 9.507812 5.277344 C 9.507812 2.785156 7.492188 0.769531 5 0.769531 " clip-rule="nonzero"/></clipPath><clipPath id="88bb30b5d1"><rect x="0" width="10" y="0" height="10"/></clipPath></defs><g clip-path="url(#e059a56719)"><path fill="#545454" d="M 14.863281 17.347656 L 15.089844 17.347656 L 15.089844 17.351562 L 14.863281 17.351562 Z M 14.863281 17.347656 " fill-opacity="1" fill-rule="nonzero"/></g><g clip-path="url(#a2b1bf1980)"><g clip-path="url(#5cfc603e4a)"><path fill="#545454" d="M 0.40625 12.027344 L 29.59375 12.027344 L 29.59375 34.375 L 0.40625 34.375 Z M 0.40625 12.027344 " fill-opacity="1" fill-rule="nonzero"/></g></g><g clip-path="url(#9cc2adf295)"><g clip-path="url(#206e0d4a89)"><path stroke-linecap="butt" transform="matrix(1.451472, 0, 0, 1.451472, 3.581749, 0.00000194595)" fill="none" stroke-linejoin="miter" d="M 7.928568 -0.00000134067 C 3.549931 -0.00000134067 0.000194371 3.549735 0.000194371 7.928372 C 0.000194371 12.3097 3.549931 15.859436 7.928568 15.859436 C 12.309895 15.859436 15.859632 12.3097 15.859632 7.928372 C 15.859632 3.549735 12.309895 -0.00000134067 7.928568 -0.00000134067 " stroke="#545454" stroke-width="6.086513" stroke-opacity="1" stroke-miterlimit="4"/></g></g><g mask="url(#1aa74aac64)"><g transform="matrix(1, 0, 0, 1, 10, 18)"><g clip-path="url(#88bb30b5d1)"><g clip-path="url(#259ebe7407)"><g clip-path="url(#551fd4c164)"><path fill="#ffffff" d="M 0.492188 0.769531 L 9.507812 0.769531 L 9.507812 9.785156 L 0.492188 9.785156 Z M 0.492188 0.769531 " fill-opacity="1" fill-rule="nonzero"/></g></g></g></g></g></svg>