<svg xmlns="http://www.w3.org/2000/svg" xmlns:xlink="http://www.w3.org/1999/xlink" width="42" zoomAndPan="magnify" viewBox="0 0 31.5 52.499999" height="70" preserveAspectRatio="xMidYMid meet" version="1.0"><defs><clipPath id="e6ef4de843"><path d="M 0 0.164062 L 31.007812 0.164062 L 31.007812 32 L 0 32 Z M 0 0.164062 " clip-rule="nonzero"/></clipPath><clipPath id="d392b8fcd3"><path d="M 0.296875 0.203125 L 31.5 0.5 L 31.203125 31.703125 L 0 31.402344 Z M 0.296875 0.203125 " clip-rule="nonzero"/></clipPath><clipPath id="466ddb5f63"><path d="M 15.898438 0.351562 C 7.28125 0.269531 0.230469 7.1875 0.148438 15.800781 C 0.0664062 24.417969 6.984375 31.46875 15.601562 31.550781 C 24.21875 31.632812 31.269531 24.714844 31.351562 16.101562 C 31.433594 7.484375 24.515625 0.433594 15.898438 0.351562 " clip-rule="nonzero"/></clipPath><clipPath id="7eadd65f44"><path d="M 6 25 L 26 25 L 26 51.84375 L 6 51.84375 Z M 6 25 " clip-rule="nonzero"/></clipPath><clipPath id="5426a1c98e"><path d="M 25.042969 52.515625 L 5.539062 52.328125 L 5.800781 25.027344 L 25.300781 25.210938 Z M 25.042969 52.515625 " clip-rule="nonzero"/></clipPath><clipPath id="e0e5074f2c"><path d="M 15.394531 52.421875 L 6.007812 25.027344 L 25.300781 25.210938 L 15.394531 52.421875 " clip-rule="nonzero"/></clipPath><clipPath id="372ed8a5dc"><path d="M 6 6 L 26 6 L 26 26 L 6 26 Z M 6 6 " clip-rule="nonzero"/></clipPath><clipPath id="e5de7aec52"><path d="M 6.195312 6.214844 L 25.488281 6.398438 L 25.304688 25.6875 L 6.011719 25.503906 Z M 6.195312 6.214844 " clip-rule="nonzero"/></clipPath><clipPath id="95ef0ed0fb"><path d="M 15.84375 6.304688 C 10.515625 6.253906 6.15625 10.53125 6.105469 15.859375 C 6.054688 21.1875 10.332031 25.546875 15.65625 25.597656 C 20.984375 25.648438 25.34375 21.371094 25.394531 16.042969 C 25.445312 10.714844 21.167969 6.355469 15.84375 6.304688 " clip-rule="nonzero"/></clipPath></defs><g clip-path="url(#e6ef4de843)"><g clip-path="url(#d392b8fcd3)"><g clip-path="url(#466ddb5f63)"><path fill="#3793cb" d="M 0.296875 0.203125 L 31.5 0.5 L 31.203125 31.703125 L 0 31.402344 Z M 0.296875 0.203125 " fill-opacity="1" fill-rule="nonzero"/></g></g></g><g clip-path="url(#7eadd65f44)"><g clip-path="url(#5426a1c98e)"><g clip-path="url(#e0e5074f2c)"><path fill="#3793cb" d="M 25.042969 52.515625 L 5.539062 52.328125 L 5.800781 25.027344 L 25.300781 25.210938 Z M 25.042969 52.515625 " fill-opacity="1" fill-rule="nonzero"/></g></g></g><g clip-path="url(#372ed8a5dc)"><g clip-path="url(#e5de7aec52)"><g clip-path="url(#95ef0ed0fb)"><path fill="#f4faf8" d="M 6.195312 6.214844 L 25.488281 6.398438 L 25.304688 25.6875 L 6.011719 25.503906 Z M 6.195312 6.214844 " fill-opacity="1" fill-rule="nonzero"/></g></g></g></svg>