<svg xmlns="http://www.w3.org/2000/svg" xmlns:xlink="http://www.w3.org/1999/xlink" width="486" zoomAndPan="magnify" viewBox="0 0 364.5 66" height="88" preserveAspectRatio="xMidYMid meet" version="1.0"><defs><filter x="0%" y="0%" width="100%" height="100%" id="01be3b4ee7"><feColorMatrix values="0 0 0 0 1 0 0 0 0 1 0 0 0 0 1 0 0 0 1 0" color-interpolation-filters="sRGB"/></filter><g/><clipPath id="dba27d2701"><path d="M 0 0.046875 L 364 0.046875 L 364 65.953125 L 0 65.953125 Z M 0 0.046875 " clip-rule="nonzero"/></clipPath><mask id="bbb97d844a"><g filter="url(#01be3b4ee7)"><rect x="-36.45" width="437.4" fill="#000000" y="-6.6" height="79.2" fill-opacity="0.698"/></g></mask><clipPath id="d9ab3f01f9"><path d="M 0 0.046875 L 364 0.046875 L 364 65.921875 L 0 65.921875 Z M 0 0.046875 " clip-rule="nonzero"/></clipPath><clipPath id="fc366ff4ab"><path d="M 30.75 0.046875 L 333.75 0.046875 C 350.734375 0.046875 364.5 13.8125 364.5 30.796875 L 364.5 34.902344 C 364.5 51.882812 350.734375 65.652344 333.75 65.652344 L 30.75 65.652344 C 13.765625 65.652344 0 51.882812 0 34.902344 L 0 30.796875 C 0 13.8125 13.765625 0.046875 30.75 0.046875 " clip-rule="nonzero"/></clipPath><clipPath id="2ef8a5ab9e"><rect x="0" width="364" y="0" height="66"/></clipPath></defs><g clip-path="url(#dba27d2701)"><g mask="url(#bbb97d844a)"><g transform="matrix(1, 0, 0, 1, 0, 0.000000000000019422)"><g clip-path="url(#2ef8a5ab9e)"><g clip-path="url(#d9ab3f01f9)"><g clip-path="url(#fc366ff4ab)"><path fill="#f3f3f3" d="M 0 0.046875 L 364.804688 0.046875 L 364.804688 65.921875 L 0 65.921875 Z M 0 0.046875 " fill-opacity="1" fill-rule="nonzero"/></g></g><g fill="#000000" fill-opacity="1"><g transform="translate(110.343749, 39.045207)"><g><path d="M 9.75 -15.0625 C 11.207031 -15.0625 12.351562 -14.734375 13.1875 -14.078125 C 14.03125 -13.429688 14.453125 -12.476562 14.453125 -11.21875 C 14.453125 -10.21875 14.226562 -9.191406 13.78125 -8.140625 C 13.34375 -7.085938 12.628906 -6.289062 11.640625 -5.75 C 10.660156 -5.21875 9.554688 -4.96875 8.328125 -5 L 6 -5 L 5.203125 0 L 1.28125 0 L 3.65625 -15.0625 Z M 7.078125 -11.90625 L 6.5 -8.15625 L 7.453125 -8.15625 C 8.554688 -8.15625 9.304688 -8.351562 9.703125 -8.75 C 10.097656 -9.15625 10.296875 -9.753906 10.296875 -10.546875 C 10.296875 -11.046875 10.128906 -11.394531 9.796875 -11.59375 C 9.472656 -11.800781 8.953125 -11.90625 8.234375 -11.90625 Z M 7.078125 -11.90625 "/></g></g></g><g fill="#000000" fill-opacity="1"><g transform="translate(123.550849, 39.045207)"><g><path d="M 7.578125 -15.0625 L 5.71875 -3.3125 L 10.40625 -3.3125 L 9.890625 0 L 1.28125 0 L 3.65625 -15.0625 Z M 7.578125 -15.0625 "/></g></g></g><g fill="#000000" fill-opacity="1"><g transform="translate(133.441188, 39.045207)"><g><path d="M 12.375 -15.0625 L 15.671875 0 L 11.484375 0 L 10.9375 -2.625 L 5.53125 -2.625 L 4.078125 0 L -0.078125 0 L 8.09375 -15.0625 Z M 7.09375 -5.609375 L 10.359375 -5.609375 L 9.515625 -10.40625 L 9.46875 -10.40625 Z M 7.09375 -5.609375 "/></g></g></g><g fill="#000000" fill-opacity="1"><g transform="translate(149.045951, 39.045207)"><g><path d="M 6.6875 -15.0625 L 8.875 -10.96875 L 12.328125 -15.0625 L 17.03125 -15.0625 L 10.234375 -7.234375 L 9.09375 0 L 5.171875 0 L 6.3125 -7.234375 L 2 -15.0625 Z M 6.6875 -15.0625 "/></g></g></g><g fill="#000000" fill-opacity="1"><g transform="translate(163.312018, 39.045207)"><g/></g></g><g fill="#000000" fill-opacity="1"><g transform="translate(170.165324, 39.045207)"><g><path d="M 12.375 -15.0625 L 15.671875 0 L 11.484375 0 L 10.9375 -2.625 L 5.53125 -2.625 L 4.078125 0 L -0.078125 0 L 8.09375 -15.0625 Z M 7.09375 -5.609375 L 10.359375 -5.609375 L 9.515625 -10.40625 L 9.46875 -10.40625 Z M 7.09375 -5.609375 "/></g></g></g><g fill="#000000" fill-opacity="1"><g transform="translate(185.770087, 39.045207)"><g><path d="M 13.328125 -9.796875 C 12.941406 -11.390625 11.960938 -12.1875 10.390625 -12.1875 C 9.566406 -12.1875 8.789062 -11.914062 8.0625 -11.375 C 7.332031 -10.84375 6.753906 -10.128906 6.328125 -9.234375 C 5.910156 -8.347656 5.703125 -7.445312 5.703125 -6.53125 C 5.703125 -5.382812 6 -4.460938 6.59375 -3.765625 C 7.195312 -3.066406 8.003906 -2.71875 9.015625 -2.71875 C 9.929688 -2.71875 10.703125 -2.945312 11.328125 -3.40625 C 11.953125 -3.875 12.363281 -4.515625 12.5625 -5.328125 L 9.375 -5.328125 L 9.875 -8.40625 L 17.640625 -8.40625 C 17.296875 -6.300781 16.710938 -4.640625 15.890625 -3.421875 C 15.078125 -2.203125 14.039062 -1.242188 12.78125 -0.546875 C 11.519531 0.148438 10.082031 0.5 8.46875 0.5 C 6.394531 0.5 4.726562 -0.0820312 3.46875 -1.25 C 2.207031 -2.425781 1.578125 -3.992188 1.578125 -5.953125 C 1.578125 -7.671875 1.984375 -9.269531 2.796875 -10.75 C 3.609375 -12.226562 4.742188 -13.398438 6.203125 -14.265625 C 7.671875 -15.128906 9.320312 -15.5625 11.15625 -15.5625 C 14.332031 -15.5625 16.375 -14.15625 17.28125 -11.34375 Z M 13.328125 -9.796875 "/></g></g></g><g fill="#000000" fill-opacity="1"><g transform="translate(202.593657, 39.045207)"><g><path d="M 12.375 -15.0625 L 15.671875 0 L 11.484375 0 L 10.9375 -2.625 L 5.53125 -2.625 L 4.078125 0 L -0.078125 0 L 8.09375 -15.0625 Z M 7.09375 -5.609375 L 10.359375 -5.609375 L 9.515625 -10.40625 L 9.46875 -10.40625 Z M 7.09375 -5.609375 "/></g></g></g><g fill="#000000" fill-opacity="1"><g transform="translate(218.19842, 39.045207)"><g><path d="M 7.578125 -15.0625 L 5.203125 0 L 1.28125 0 L 3.65625 -15.0625 Z M 7.578125 -15.0625 "/></g></g></g><g fill="#000000" fill-opacity="1"><g transform="translate(224.672103, 39.045207)"><g><path d="M 7.578125 -15.0625 L 13.296875 -5.859375 L 13.328125 -5.859375 L 14.78125 -15.0625 L 18.703125 -15.0625 L 16.328125 0 L 12.40625 0 L 6.6875 -9.234375 L 6.65625 -9.234375 L 5.203125 0 L 1.28125 0 L 3.65625 -15.0625 Z M 7.578125 -15.0625 "/></g></g></g><g fill="#000000" fill-opacity="1"><g transform="translate(242.274912, 39.045207)"><g><path d="M 3.5625 -1.578125 C 3.5625 -2.285156 3.835938 -2.910156 4.390625 -3.453125 C 4.941406 -4.003906 5.578125 -4.28125 6.296875 -4.28125 C 6.867188 -4.28125 7.34375 -4.09375 7.71875 -3.71875 C 8.09375 -3.34375 8.28125 -2.875 8.28125 -2.3125 C 8.28125 -1.582031 8.003906 -0.945312 7.453125 -0.40625 C 6.910156 0.132812 6.28125 0.40625 5.5625 0.40625 C 4.988281 0.40625 4.507812 0.21875 4.125 -0.15625 C 3.75 -0.53125 3.5625 -1.003906 3.5625 -1.578125 Z M 4.515625 -5.03125 L 5.140625 -8.90625 C 5.472656 -8.84375 5.742188 -8.8125 5.953125 -8.8125 C 6.710938 -8.820312 7.390625 -9.039062 7.984375 -9.46875 C 8.578125 -9.894531 8.875 -10.414062 8.875 -11.03125 C 8.875 -11.40625 8.753906 -11.707031 8.515625 -11.9375 C 8.273438 -12.175781 7.984375 -12.296875 7.640625 -12.296875 C 7.222656 -12.296875 6.863281 -12.164062 6.5625 -11.90625 C 6.257812 -11.65625 6.0625 -11.273438 5.96875 -10.765625 L 2 -10.765625 C 2.226562 -12.140625 2.929688 -13.265625 4.109375 -14.140625 C 5.296875 -15.023438 6.664062 -15.46875 8.21875 -15.46875 C 9.5625 -15.46875 10.648438 -15.066406 11.484375 -14.265625 C 12.328125 -13.460938 12.75 -12.488281 12.75 -11.34375 C 12.75 -10.707031 12.582031 -10.054688 12.25 -9.390625 C 11.925781 -8.734375 11.421875 -8.140625 10.734375 -7.609375 C 10.054688 -7.085938 9.273438 -6.703125 8.390625 -6.453125 L 8.171875 -5.03125 Z M 4.515625 -5.03125 "/></g></g></g></g></g></g></g></svg>