<svg xmlns="http://www.w3.org/2000/svg" xmlns:xlink="http://www.w3.org/1999/xlink" width="1024" zoomAndPan="magnify" viewBox="0 0 768 767.999994" height="1024" preserveAspectRatio="xMidYMid meet" version="1.0"><defs><clipPath id="22c2e6abed"><path d="M 384 0 C 171.921875 0 0 171.921875 0 384 C 0 596.078125 171.921875 768 384 768 C 596.078125 768 768 596.078125 768 384 C 768 171.921875 596.078125 0 384 0 " clip-rule="nonzero"/></clipPath><clipPath id="bf9f6804a2"><path d="M 93.761719 93.761719 L 674.238281 93.761719 L 674.238281 674.238281 L 93.761719 674.238281 Z M 93.761719 93.761719 " clip-rule="nonzero"/></clipPath><clipPath id="3af213f8f5"><path d="M 384 93.761719 C 223.707031 93.761719 93.761719 223.707031 93.761719 384 C 93.761719 544.292969 223.707031 674.238281 384 674.238281 C 544.292969 674.238281 674.238281 544.292969 674.238281 384 C 674.238281 223.707031 544.292969 93.761719 384 93.761719 " clip-rule="nonzero"/></clipPath><clipPath id="11df9f14ee"><path d="M 262.738281 163.074219 L 505.261719 163.074219 L 505.261719 405.601562 L 262.738281 405.601562 Z M 262.738281 163.074219 " clip-rule="nonzero"/></clipPath><clipPath id="c7a63f4983"><path d="M 384 163.074219 C 317.027344 163.074219 262.738281 217.367188 262.738281 284.335938 C 262.738281 351.308594 317.027344 405.601562 384 405.601562 C 450.972656 405.601562 505.261719 351.308594 505.261719 284.335938 C 505.261719 217.367188 450.972656 163.074219 384 163.074219 " clip-rule="nonzero"/></clipPath><clipPath id="57d6ccdfb7"><path d="M 210.664062 371.292969 L 556 371.292969 L 556 605 L 210.664062 605 Z M 210.664062 371.292969 " clip-rule="nonzero"/></clipPath><clipPath id="b5202e74ef"><path d="M 214.414062 371.292969 L 553.585938 371.292969 C 554.578125 371.292969 555.53125 371.6875 556.234375 372.390625 C 556.9375 373.09375 557.335938 374.046875 557.335938 375.042969 L 557.335938 601.175781 C 557.335938 602.171875 556.9375 603.125 556.234375 603.828125 C 555.53125 604.53125 554.578125 604.925781 553.585938 604.925781 L 214.414062 604.925781 C 213.421875 604.925781 212.46875 604.53125 211.765625 603.828125 C 211.0625 603.125 210.664062 602.171875 210.664062 601.175781 L 210.664062 375.042969 C 210.664062 374.046875 211.0625 373.09375 211.765625 372.390625 C 212.46875 371.6875 213.421875 371.292969 214.414062 371.292969 " clip-rule="nonzero"/></clipPath></defs><g clip-path="url(#22c2e6abed)"><rect x="-76.8" width="921.6" fill="#435c5f" y="-76.799999" height="921.599993" fill-opacity="1"/></g><g clip-path="url(#bf9f6804a2)"><g clip-path="url(#3af213f8f5)"><path fill="#f4faf8" d="M 93.761719 93.761719 L 674.238281 93.761719 L 674.238281 674.238281 L 93.761719 674.238281 Z M 93.761719 93.761719 " fill-opacity="1" fill-rule="nonzero"/></g></g><g clip-path="url(#11df9f14ee)"><g clip-path="url(#c7a63f4983)"><path fill="#435c5f" d="M 262.738281 163.074219 L 505.261719 163.074219 L 505.261719 405.601562 L 262.738281 405.601562 Z M 262.738281 163.074219 " fill-opacity="1" fill-rule="nonzero"/></g></g><g clip-path="url(#57d6ccdfb7)"><g clip-path="url(#b5202e74ef)"><path fill="#435c5f" d="M 210.664062 371.292969 L 555.082031 371.292969 L 555.082031 605.496094 L 210.664062 605.496094 Z M 210.664062 371.292969 " fill-opacity="1" fill-rule="nonzero"/></g></g></svg>