<svg xmlns="http://www.w3.org/2000/svg" xmlns:xlink="http://www.w3.org/1999/xlink" width="150" zoomAndPan="magnify" viewBox="0 0 112.5 66.749998" height="89" preserveAspectRatio="xMidYMid meet" version="1.0"><defs><filter x="0%" y="0%" width="100%" height="100%" id="6900d6623d"><feColorMatrix values="0 0 0 0 1 0 0 0 0 1 0 0 0 0 1 0 0 0 1 0" color-interpolation-filters="sRGB"/></filter><clipPath id="5cdbe9b449"><path d="M 0 0.0234375 L 112.003906 0.0234375 L 112.003906 66.476562 L 0 66.476562 Z M 0 0.0234375 " clip-rule="nonzero"/></clipPath><mask id="dc6415f5bb"><g filter="url(#6900d6623d)"><rect x="-11.25" width="135" fill="#000000" y="-6.675" height="80.099998" fill-opacity="0.749"/></g></mask><clipPath id="a37dc6ccde"><path d="M 8 2.023438 L 112.003906 2.023438 L 112.003906 64 L 8 64 Z M 8 2.023438 " clip-rule="nonzero"/></clipPath><clipPath id="7f08e86a8e"><path d="M 10.78125 30.148438 L 101.707031 3.214844 C 104.25 2.460938 106.996094 2.949219 109.121094 4.535156 C 111.242188 6.121094 112.496094 8.617188 112.496094 11.269531 L 112.496094 55.421875 C 112.496094 58.074219 111.242188 60.570312 109.121094 62.152344 C 106.996094 63.738281 104.25 64.230469 101.707031 63.476562 L 10.78125 36.539062 C 9.367188 36.121094 8.394531 34.820312 8.394531 33.34375 C 8.394531 31.871094 9.367188 30.570312 10.78125 30.148438 " clip-rule="nonzero"/></clipPath><clipPath id="01ddebd301"><rect x="0" width="113" y="0" height="67"/></clipPath></defs><g clip-path="url(#5cdbe9b449)"><g mask="url(#dc6415f5bb)"><g transform="matrix(1, 0, 0, 1, 0, 0.000000000000005614)"><g clip-path="url(#01ddebd301)"><g clip-path="url(#a37dc6ccde)"><g clip-path="url(#7f08e86a8e)"><path fill="#435c5f" d="M -0.00390625 66.671875 L -0.00390625 0.0664062 L 112.3125 0.0664062 L 112.3125 66.671875 Z M -0.00390625 66.671875 " fill-opacity="1" fill-rule="nonzero"/></g></g></g></g></g></g></svg>