<svg xmlns="http://www.w3.org/2000/svg" xmlns:xlink="http://www.w3.org/1999/xlink" width="600" zoomAndPan="magnify" viewBox="0 0 450 663.750002" height="885" preserveAspectRatio="xMidYMid meet" version="1.0"><defs><filter x="0%" y="0%" width="100%" height="100%" id="b26932f678"><feColorMatrix values="0 0 0 0 1 0 0 0 0 1 0 0 0 0 1 0 0 0 1 0" color-interpolation-filters="sRGB"/></filter><g/><clipPath id="4ed244ae95"><path d="M 0.0859375 0 L 449.914062 0 L 449.914062 663.5 L 0.0859375 663.5 Z M 0.0859375 0 " clip-rule="nonzero"/></clipPath><mask id="cc1a0a68e1"><g filter="url(#b26932f678)"><rect x="-45" width="540" fill="#000000" y="-66.375" height="796.500003" fill-opacity="0.498"/></g></mask><clipPath id="a993fe2c38"><path d="M 0.0859375 0 L 449.914062 0 L 449.914062 663.5 L 0.0859375 663.5 Z M 0.0859375 0 " clip-rule="nonzero"/></clipPath><clipPath id="c7b9ed4927"><path d="M 38.320312 0 L 411.679688 0 C 432.796875 0 449.914062 17.117188 449.914062 38.234375 L 449.914062 625.515625 C 449.914062 646.632812 432.796875 663.75 411.679688 663.75 L 38.320312 663.75 C 17.203125 663.75 0.0859375 646.632812 0.0859375 625.515625 L 0.0859375 38.234375 C 0.0859375 17.117188 17.203125 0 38.320312 0 " clip-rule="nonzero"/></clipPath><clipPath id="2eedbd381d"><rect x="0" width="450" y="0" height="664"/></clipPath></defs><g clip-path="url(#4ed244ae95)"><g mask="url(#cc1a0a68e1)"><g transform="matrix(1, 0, 0, 1, 0, -0.00000000000001526)"><g clip-path="url(#2eedbd381d)"><g clip-path="url(#a993fe2c38)"><g clip-path="url(#c7b9ed4927)"><path fill="#ffffff" d="M 0.0859375 0 L 451.78125 0 L 451.78125 664.257812 L 0.0859375 664.257812 Z M 0.0859375 0 " fill-opacity="1" fill-rule="nonzero"/></g></g></g></g></g></g><g fill="#000000" fill-opacity="1"><g transform="translate(157.051698, 88.923841)"><g><path d="M 16.46875 -18.640625 C 16.363281 -19.671875 15.921875 -20.472656 15.140625 -21.046875 C 14.367188 -21.617188 13.320312 -21.90625 12 -21.90625 C 10.644531 -21.90625 9.601562 -21.625 8.875 -21.0625 C 8.15625 -20.507812 7.796875 -19.8125 7.796875 -18.96875 C 7.773438 -18.039062 8.175781 -17.332031 9 -16.84375 C 9.820312 -16.363281 10.800781 -15.992188 11.9375 -15.734375 L 14.28125 -15.171875 C 15.800781 -14.828125 17.148438 -14.332031 18.328125 -13.6875 C 19.503906 -13.039062 20.429688 -12.207031 21.109375 -11.1875 C 21.785156 -10.164062 22.125 -8.925781 22.125 -7.46875 C 22.125 -5.082031 21.226562 -3.175781 19.4375 -1.75 C 17.65625 -0.332031 15.164062 0.375 11.96875 0.375 C 8.789062 0.375 6.253906 -0.347656 4.359375 -1.796875 C 2.472656 -3.242188 1.5 -5.382812 1.4375 -8.21875 L 6.78125 -8.21875 C 6.875 -6.90625 7.390625 -5.914062 8.328125 -5.25 C 9.273438 -4.59375 10.46875 -4.265625 11.90625 -4.265625 C 13.3125 -4.265625 14.429688 -4.5625 15.265625 -5.15625 C 16.109375 -5.757812 16.535156 -6.535156 16.546875 -7.484375 C 16.535156 -8.367188 16.144531 -9.050781 15.375 -9.53125 C 14.613281 -10.007812 13.519531 -10.421875 12.09375 -10.765625 L 9.25 -11.46875 C 7.039062 -12 5.296875 -12.835938 4.015625 -13.984375 C 2.742188 -15.140625 2.113281 -16.679688 2.125 -18.609375 C 2.113281 -20.191406 2.535156 -21.578125 3.390625 -22.765625 C 4.242188 -23.953125 5.421875 -24.875 6.921875 -25.53125 C 8.421875 -26.195312 10.125 -26.53125 12.03125 -26.53125 C 13.976562 -26.53125 15.675781 -26.195312 17.125 -25.53125 C 18.582031 -24.863281 19.710938 -23.9375 20.515625 -22.75 C 21.328125 -21.570312 21.75 -20.203125 21.78125 -18.640625 Z M 16.46875 -18.640625 "/></g></g></g><g fill="#000000" fill-opacity="1"><g transform="translate(180.618685, 88.923841)"><g><path d="M 2.171875 0 L 2.171875 -19.625 L 7.609375 -19.625 L 7.609375 0 Z M 4.90625 -22.15625 C 4.101562 -22.15625 3.410156 -22.425781 2.828125 -22.96875 C 2.253906 -23.507812 1.96875 -24.160156 1.96875 -24.921875 C 1.96875 -25.679688 2.253906 -26.328125 2.828125 -26.859375 C 3.410156 -27.398438 4.101562 -27.671875 4.90625 -27.671875 C 5.71875 -27.671875 6.410156 -27.398438 6.984375 -26.859375 C 7.566406 -26.328125 7.859375 -25.679688 7.859375 -24.921875 C 7.859375 -24.160156 7.566406 -23.507812 6.984375 -22.96875 C 6.410156 -22.425781 5.71875 -22.15625 4.90625 -22.15625 Z M 4.90625 -22.15625 "/></g></g></g><g fill="#000000" fill-opacity="1"><g transform="translate(190.408443, 88.923841)"><g><path d="M 11.015625 7.640625 C 8.367188 7.640625 6.289062 7.117188 4.78125 6.078125 C 3.28125 5.046875 2.367188 3.785156 2.046875 2.296875 L 7.078125 1.625 C 7.296875 2.15625 7.726562 2.640625 8.375 3.078125 C 9.019531 3.515625 9.941406 3.734375 11.140625 3.734375 C 12.328125 3.734375 13.304688 3.453125 14.078125 2.890625 C 14.847656 2.328125 15.234375 1.398438 15.234375 0.109375 L 15.234375 -3.46875 L 15 -3.46875 C 14.644531 -2.664062 14.015625 -1.929688 13.109375 -1.265625 C 12.203125 -0.609375 10.96875 -0.28125 9.40625 -0.28125 C 7.925781 -0.28125 6.582031 -0.625 5.375 -1.3125 C 4.175781 -2 3.21875 -3.050781 2.5 -4.46875 C 1.789062 -5.882812 1.4375 -7.679688 1.4375 -9.859375 C 1.4375 -12.085938 1.800781 -13.941406 2.53125 -15.421875 C 3.257812 -16.898438 4.226562 -18.015625 5.4375 -18.765625 C 6.644531 -19.515625 7.960938 -19.890625 9.390625 -19.890625 C 10.492188 -19.890625 11.414062 -19.703125 12.15625 -19.328125 C 12.894531 -18.953125 13.492188 -18.492188 13.953125 -17.953125 C 14.410156 -17.410156 14.757812 -16.867188 15 -16.328125 L 15.203125 -16.328125 L 15.203125 -19.625 L 20.609375 -19.625 L 20.609375 0.1875 C 20.609375 1.8125 20.195312 3.175781 19.375 4.28125 C 18.550781 5.394531 17.421875 6.234375 15.984375 6.796875 C 14.546875 7.359375 12.890625 7.640625 11.015625 7.640625 Z M 11.125 -4.375 C 12.4375 -4.375 13.453125 -4.859375 14.171875 -5.828125 C 14.890625 -6.796875 15.25 -8.144531 15.25 -9.875 C 15.25 -11.59375 14.890625 -12.96875 14.171875 -14 C 13.460938 -15.03125 12.445312 -15.546875 11.125 -15.546875 C 9.78125 -15.546875 8.753906 -15.015625 8.046875 -13.953125 C 7.347656 -12.898438 7 -11.539062 7 -9.875 C 7 -8.175781 7.351562 -6.832031 8.0625 -5.84375 C 8.769531 -4.863281 9.789062 -4.375 11.125 -4.375 Z M 11.125 -4.375 "/></g></g></g><g fill="#000000" fill-opacity="1"><g transform="translate(213.195824, 88.923841)"><g><path d="M 7.609375 -11.34375 L 7.609375 0 L 2.171875 0 L 2.171875 -19.625 L 7.359375 -19.625 L 7.359375 -16.171875 L 7.59375 -16.171875 C 8.03125 -17.304688 8.757812 -18.207031 9.78125 -18.875 C 10.800781 -19.550781 12.039062 -19.890625 13.5 -19.890625 C 15.539062 -19.890625 17.175781 -19.226562 18.40625 -17.90625 C 19.644531 -16.59375 20.265625 -14.789062 20.265625 -12.5 L 20.265625 0 L 14.828125 0 L 14.828125 -11.53125 C 14.828125 -12.726562 14.515625 -13.664062 13.890625 -14.34375 C 13.273438 -15.019531 12.421875 -15.359375 11.328125 -15.359375 C 10.234375 -15.359375 9.34375 -15.003906 8.65625 -14.296875 C 7.96875 -13.597656 7.617188 -12.613281 7.609375 -11.34375 Z M 7.609375 -11.34375 "/></g></g></g><g fill="#000000" fill-opacity="1"><g transform="translate(235.574233, 88.923841)"><g/></g></g><g fill="#000000" fill-opacity="1"><g transform="translate(243.919806, 88.923841)"><g><path d="M 18.484375 -26.171875 L 23.96875 -26.171875 L 23.96875 -8.875 C 23.96875 -6.894531 23.503906 -5.21875 22.578125 -3.84375 C 21.648438 -2.46875 20.367188 -1.421875 18.734375 -0.703125 C 17.109375 0.015625 15.238281 0.375 13.125 0.375 C 11.007812 0.375 9.132812 0.015625 7.5 -0.703125 C 5.863281 -1.421875 4.582031 -2.46875 3.65625 -3.84375 C 2.738281 -5.21875 2.28125 -6.894531 2.28125 -8.875 L 2.28125 -26.171875 L 7.8125 -26.171875 L 7.8125 -9.0625 C 7.8125 -7.664062 8.316406 -6.566406 9.328125 -5.765625 C 10.335938 -4.960938 11.601562 -4.5625 13.125 -4.5625 C 14.675781 -4.5625 15.957031 -4.960938 16.96875 -5.765625 C 17.976562 -6.566406 18.484375 -7.664062 18.484375 -9.0625 Z M 18.484375 -26.171875 "/></g></g></g><g fill="#000000" fill-opacity="1"><g transform="translate(270.170672, 88.923841)"><g><path d="M 2.171875 7.359375 L 2.171875 -19.625 L 7.546875 -19.625 L 7.546875 -16.328125 L 7.78125 -16.328125 C 8.03125 -16.867188 8.378906 -17.410156 8.828125 -17.953125 C 9.273438 -18.492188 9.867188 -18.953125 10.609375 -19.328125 C 11.359375 -19.703125 12.273438 -19.890625 13.359375 -19.890625 C 14.804688 -19.890625 16.128906 -19.515625 17.328125 -18.765625 C 18.523438 -18.015625 19.488281 -16.890625 20.21875 -15.390625 C 20.945312 -13.898438 21.3125 -12.03125 21.3125 -9.78125 C 21.3125 -7.59375 20.957031 -5.75 20.25 -4.25 C 19.539062 -2.75 18.585938 -1.613281 17.390625 -0.84375 C 16.191406 -0.0703125 14.847656 0.3125 13.359375 0.3125 C 12.296875 0.3125 11.394531 0.140625 10.65625 -0.203125 C 9.925781 -0.554688 9.328125 -1 8.859375 -1.53125 C 8.398438 -2.0625 8.039062 -2.597656 7.78125 -3.140625 L 7.609375 -3.140625 L 7.609375 7.359375 Z M 7.5 -9.8125 C 7.5 -8.0625 7.859375 -6.65625 8.578125 -5.59375 C 9.296875 -4.539062 10.3125 -4.015625 11.625 -4.015625 C 12.96875 -4.015625 13.988281 -4.550781 14.6875 -5.625 C 15.394531 -6.707031 15.75 -8.101562 15.75 -9.8125 C 15.75 -11.519531 15.394531 -12.898438 14.6875 -13.953125 C 13.988281 -15.015625 12.96875 -15.546875 11.625 -15.546875 C 10.300781 -15.546875 9.28125 -15.03125 8.5625 -14 C 7.851562 -12.96875 7.5 -11.570312 7.5 -9.8125 Z M 7.5 -9.8125 "/></g></g></g></svg>