<svg xmlns="http://www.w3.org/2000/svg" xmlns:xlink="http://www.w3.org/1999/xlink" width="400" zoomAndPan="magnify" viewBox="0 0 300 35.25" height="47" preserveAspectRatio="xMidYMid meet" version="1.0"><defs><g/><clipPath id="9acf99c0b2"><path d="M 3.125 0 L 296.773438 0 L 296.773438 34.515625 L 3.125 34.515625 Z M 3.125 0 " clip-rule="nonzero"/></clipPath><clipPath id="3232007f49"><path d="M 296.773438 17.109375 C 296.773438 26.558594 289.113281 34.21875 279.664062 34.21875 L 20.234375 34.21875 C 10.785156 34.21875 3.125 26.558594 3.125 17.109375 C 3.125 7.660156 10.785156 0 20.234375 0 L 279.664062 0 C 289.113281 0 296.773438 7.660156 296.773438 17.109375 " clip-rule="nonzero"/></clipPath></defs><g clip-path="url(#9acf99c0b2)"><g clip-path="url(#3232007f49)"><path fill="#435c5f" d="M 296.773438 0 L 296.773438 34.648438 L 2.25 34.648438 L 2.25 0 Z M 296.773438 0 " fill-opacity="1" fill-rule="nonzero"/></g></g><g fill="#f4faf8" fill-opacity="1"><g transform="translate(56.735369, 20.633911)"><g><path d="M 5.734375 -8.859375 C 6.585938 -8.859375 7.257812 -8.664062 7.75 -8.28125 C 8.25 -7.894531 8.5 -7.332031 8.5 -6.59375 C 8.5 -6 8.367188 -5.394531 8.109375 -4.78125 C 7.847656 -4.164062 7.425781 -3.695312 6.84375 -3.375 C 6.269531 -3.0625 5.625 -2.914062 4.90625 -2.9375 L 3.53125 -2.9375 L 3.0625 0 L 0.75 0 L 2.15625 -8.859375 Z M 4.15625 -7 L 3.8125 -4.796875 L 4.375 -4.796875 C 5.03125 -4.796875 5.472656 -4.910156 5.703125 -5.140625 C 5.929688 -5.378906 6.046875 -5.734375 6.046875 -6.203125 C 6.046875 -6.492188 5.945312 -6.695312 5.75 -6.8125 C 5.5625 -6.9375 5.257812 -7 4.84375 -7 Z M 4.15625 -7 "/></g></g></g><g fill="#f4faf8" fill-opacity="1"><g transform="translate(64.50211, 20.633911)"><g><path d="M 4.453125 -8.859375 L 3.359375 -1.953125 L 6.125 -1.953125 L 5.8125 0 L 0.75 0 L 2.15625 -8.859375 Z M 4.453125 -8.859375 "/></g></g></g><g fill="#f4faf8" fill-opacity="1"><g transform="translate(70.318356, 20.633911)"><g><path d="M 7.265625 -8.859375 L 9.21875 0 L 6.75 0 L 6.421875 -1.546875 L 3.25 -1.546875 L 2.390625 0 L -0.046875 0 L 4.765625 -8.859375 Z M 4.171875 -3.296875 L 6.09375 -3.296875 L 5.59375 -6.125 L 5.5625 -6.125 Z M 4.171875 -3.296875 "/></g></g></g><g fill="#f4faf8" fill-opacity="1"><g transform="translate(79.495094, 20.633911)"><g><path d="M 8.015625 -5.890625 C 7.835938 -6.203125 7.582031 -6.441406 7.25 -6.609375 C 6.914062 -6.773438 6.546875 -6.859375 6.140625 -6.859375 C 5.398438 -6.859375 4.75 -6.570312 4.1875 -6 C 3.632812 -5.425781 3.359375 -4.75 3.359375 -3.96875 C 3.359375 -3.382812 3.546875 -2.910156 3.921875 -2.546875 C 4.296875 -2.179688 4.796875 -2 5.421875 -2 C 5.796875 -2 6.171875 -2.082031 6.546875 -2.25 C 6.929688 -2.414062 7.269531 -2.644531 7.5625 -2.9375 L 7.109375 -0.171875 C 6.941406 -0.117188 6.648438 -0.0390625 6.234375 0.0625 C 5.828125 0.175781 5.421875 0.234375 5.015625 0.234375 C 4.304688 0.234375 3.640625 0.0820312 3.015625 -0.21875 C 2.398438 -0.53125 1.898438 -0.96875 1.515625 -1.53125 C 1.140625 -2.09375 0.945312 -2.742188 0.9375 -3.484375 C 0.9375 -4.492188 1.179688 -5.421875 1.671875 -6.265625 C 2.171875 -7.117188 2.859375 -7.800781 3.734375 -8.3125 C 4.609375 -8.832031 5.503906 -9.09375 6.421875 -9.09375 C 7.085938 -9.09375 7.765625 -8.941406 8.453125 -8.640625 Z M 8.015625 -5.890625 "/></g></g></g><g fill="#f4faf8" fill-opacity="1"><g transform="translate(87.250083, 20.633911)"><g><path d="M 7.1875 -8.859375 L 6.890625 -6.90625 L 4.140625 -6.90625 L 3.90625 -5.421875 L 6.515625 -5.421875 L 6.203125 -3.484375 L 3.609375 -3.484375 L 3.359375 -1.953125 L 6.09375 -1.953125 L 5.796875 0 L 0.75 0 L 2.15625 -8.859375 Z M 7.1875 -8.859375 "/></g></g></g><g fill="#f4faf8" fill-opacity="1"><g transform="translate(93.712574, 20.633911)"><g/></g></g><g fill="#f4faf8" fill-opacity="1"><g transform="translate(97.742824, 20.633911)"><g><path d="M 3.9375 -8.859375 L 5.21875 -6.453125 L 7.25 -8.859375 L 10.015625 -8.859375 L 6.015625 -4.25 L 5.34375 0 L 3.046875 0 L 3.71875 -4.25 L 1.171875 -8.859375 Z M 3.9375 -8.859375 "/></g></g></g><g fill="#f4faf8" fill-opacity="1"><g transform="translate(106.132314, 20.633911)"><g><path d="M 10.890625 -5.28125 C 10.890625 -4.425781 10.640625 -3.539062 10.140625 -2.625 C 9.648438 -1.707031 8.953125 -0.988281 8.046875 -0.46875 C 7.148438 0.0390625 6.1875 0.296875 5.15625 0.296875 C 3.914062 0.296875 2.90625 -0.0664062 2.125 -0.796875 C 1.351562 -1.535156 0.96875 -2.503906 0.96875 -3.703125 C 0.96875 -4.691406 1.226562 -5.601562 1.75 -6.4375 C 2.269531 -7.269531 2.976562 -7.929688 3.875 -8.421875 C 4.769531 -8.910156 5.695312 -9.15625 6.65625 -9.15625 C 7.414062 -9.15625 8.125 -8.988281 8.78125 -8.65625 C 9.445312 -8.332031 9.960938 -7.878906 10.328125 -7.296875 C 10.703125 -6.710938 10.890625 -6.039062 10.890625 -5.28125 Z M 5.515625 -1.9375 C 6.046875 -1.9375 6.535156 -2.082031 6.984375 -2.375 C 7.429688 -2.664062 7.785156 -3.046875 8.046875 -3.515625 C 8.316406 -3.984375 8.453125 -4.445312 8.453125 -4.90625 C 8.453125 -5.46875 8.238281 -5.941406 7.8125 -6.328125 C 7.382812 -6.722656 6.875 -6.921875 6.28125 -6.921875 C 5.820312 -6.921875 5.363281 -6.796875 4.90625 -6.546875 C 4.457031 -6.296875 4.09375 -5.957031 3.8125 -5.53125 C 3.53125 -5.113281 3.390625 -4.644531 3.390625 -4.125 C 3.390625 -3.488281 3.585938 -2.960938 3.984375 -2.546875 C 4.378906 -2.140625 4.890625 -1.9375 5.515625 -1.9375 Z M 5.515625 -1.9375 "/></g></g></g><g fill="#f4faf8" fill-opacity="1"><g transform="translate(116.554558, 20.633911)"><g><path d="M 4.40625 -8.859375 L 3.671875 -4.1875 C 3.609375 -3.757812 3.578125 -3.414062 3.578125 -3.15625 C 3.578125 -2.707031 3.671875 -2.363281 3.859375 -2.125 C 4.046875 -1.894531 4.378906 -1.78125 4.859375 -1.78125 C 5.421875 -1.78125 5.851562 -1.96875 6.15625 -2.34375 C 6.457031 -2.71875 6.671875 -3.300781 6.796875 -4.09375 L 7.53125 -8.859375 L 9.828125 -8.859375 L 9.03125 -3.765625 C 8.875 -2.722656 8.601562 -1.929688 8.21875 -1.390625 C 7.84375 -0.859375 7.332031 -0.453125 6.6875 -0.171875 C 6.050781 0.0976562 5.332031 0.234375 4.53125 0.234375 C 3.445312 0.234375 2.613281 0.00390625 2.03125 -0.453125 C 1.457031 -0.921875 1.171875 -1.601562 1.171875 -2.5 C 1.171875 -2.664062 1.175781 -2.847656 1.1875 -3.046875 C 1.207031 -3.242188 1.515625 -5.179688 2.109375 -8.859375 Z M 4.40625 -8.859375 "/></g></g></g><g fill="#f4faf8" fill-opacity="1"><g transform="translate(125.696047, 20.633911)"><g><path d="M 5.65625 -8.859375 C 6.445312 -8.859375 7.082031 -8.671875 7.5625 -8.296875 C 8.050781 -7.921875 8.296875 -7.378906 8.296875 -6.671875 C 8.296875 -5.921875 8.070312 -5.253906 7.625 -4.671875 C 7.175781 -4.097656 6.601562 -3.75 5.90625 -3.625 L 8.125 0 L 5.25 0 L 3.625 -3.40625 L 3.59375 -3.40625 L 3.0625 0 L 0.75 0 L 2.15625 -8.859375 Z M 3.828125 -4.890625 L 4.140625 -4.890625 C 4.679688 -4.890625 5.097656 -5 5.390625 -5.21875 C 5.691406 -5.445312 5.84375 -5.785156 5.84375 -6.234375 C 5.84375 -6.804688 5.367188 -7.09375 4.421875 -7.09375 L 4.1875 -7.09375 Z M 3.828125 -4.890625 "/></g></g></g><g fill="#f4faf8" fill-opacity="1"><g transform="translate(133.686041, 20.633911)"><g/></g></g><g fill="#f4faf8" fill-opacity="1"><g transform="translate(137.716291, 20.633911)"><g><path d="M 5.734375 -8.859375 C 6.585938 -8.859375 7.257812 -8.664062 7.75 -8.28125 C 8.25 -7.894531 8.5 -7.332031 8.5 -6.59375 C 8.5 -6 8.367188 -5.394531 8.109375 -4.78125 C 7.847656 -4.164062 7.425781 -3.695312 6.84375 -3.375 C 6.269531 -3.0625 5.625 -2.914062 4.90625 -2.9375 L 3.53125 -2.9375 L 3.0625 0 L 0.75 0 L 2.15625 -8.859375 Z M 4.15625 -7 L 3.8125 -4.796875 L 4.375 -4.796875 C 5.03125 -4.796875 5.472656 -4.910156 5.703125 -5.140625 C 5.929688 -5.378906 6.046875 -5.734375 6.046875 -6.203125 C 6.046875 -6.492188 5.945312 -6.695312 5.75 -6.8125 C 5.5625 -6.9375 5.257812 -7 4.84375 -7 Z M 4.15625 -7 "/></g></g></g><g fill="#f4faf8" fill-opacity="1"><g transform="translate(145.483033, 20.633911)"><g><path d="M 4.453125 -8.859375 L 3.0625 0 L 0.75 0 L 2.15625 -8.859375 Z M 4.453125 -8.859375 "/></g></g></g><g fill="#f4faf8" fill-opacity="1"><g transform="translate(149.29003, 20.633911)"><g><path d="M 4.453125 -8.859375 L 7.8125 -3.4375 L 7.84375 -3.4375 L 8.6875 -8.859375 L 11 -8.859375 L 9.59375 0 L 7.296875 0 L 3.9375 -5.421875 L 3.90625 -5.421875 L 3.0625 0 L 0.75 0 L 2.15625 -8.859375 Z M 4.453125 -8.859375 "/></g></g></g><g fill="#f4faf8" fill-opacity="1"><g transform="translate(159.641768, 20.633911)"><g/></g></g><g fill="#f4faf8" fill-opacity="1"><g transform="translate(163.672018, 20.633911)"><g><path d="M 10.890625 -5.28125 C 10.890625 -4.425781 10.640625 -3.539062 10.140625 -2.625 C 9.648438 -1.707031 8.953125 -0.988281 8.046875 -0.46875 C 7.148438 0.0390625 6.1875 0.296875 5.15625 0.296875 C 3.914062 0.296875 2.90625 -0.0664062 2.125 -0.796875 C 1.351562 -1.535156 0.96875 -2.503906 0.96875 -3.703125 C 0.96875 -4.691406 1.226562 -5.601562 1.75 -6.4375 C 2.269531 -7.269531 2.976562 -7.929688 3.875 -8.421875 C 4.769531 -8.910156 5.695312 -9.15625 6.65625 -9.15625 C 7.414062 -9.15625 8.125 -8.988281 8.78125 -8.65625 C 9.445312 -8.332031 9.960938 -7.878906 10.328125 -7.296875 C 10.703125 -6.710938 10.890625 -6.039062 10.890625 -5.28125 Z M 5.515625 -1.9375 C 6.046875 -1.9375 6.535156 -2.082031 6.984375 -2.375 C 7.429688 -2.664062 7.785156 -3.046875 8.046875 -3.515625 C 8.316406 -3.984375 8.453125 -4.445312 8.453125 -4.90625 C 8.453125 -5.46875 8.238281 -5.941406 7.8125 -6.328125 C 7.382812 -6.722656 6.875 -6.921875 6.28125 -6.921875 C 5.820312 -6.921875 5.363281 -6.796875 4.90625 -6.546875 C 4.457031 -6.296875 4.09375 -5.957031 3.8125 -5.53125 C 3.53125 -5.113281 3.390625 -4.644531 3.390625 -4.125 C 3.390625 -3.488281 3.585938 -2.960938 3.984375 -2.546875 C 4.378906 -2.140625 4.890625 -1.9375 5.515625 -1.9375 Z M 5.515625 -1.9375 "/></g></g></g><g fill="#f4faf8" fill-opacity="1"><g transform="translate(174.094262, 20.633911)"><g><path d="M 4.453125 -8.859375 L 7.8125 -3.4375 L 7.84375 -3.4375 L 8.6875 -8.859375 L 11 -8.859375 L 9.59375 0 L 7.296875 0 L 3.9375 -5.421875 L 3.90625 -5.421875 L 3.0625 0 L 0.75 0 L 2.15625 -8.859375 Z M 4.453125 -8.859375 "/></g></g></g><g fill="#f4faf8" fill-opacity="1"><g transform="translate(184.445999, 20.633911)"><g/></g></g><g fill="#f4faf8" fill-opacity="1"><g transform="translate(188.47625, 20.633911)"><g><path d="M 7.578125 -8.859375 L 7.265625 -6.90625 L 5.375 -6.90625 L 4.28125 0 L 1.96875 0 L 3.0625 -6.90625 L 1.15625 -6.90625 L 1.46875 -8.859375 Z M 7.578125 -8.859375 "/></g></g></g><g fill="#f4faf8" fill-opacity="1"><g transform="translate(194.738993, 20.633911)"><g><path d="M 4.453125 -8.859375 L 3.90625 -5.4375 L 7.234375 -5.4375 L 7.78125 -8.859375 L 10.078125 -8.859375 L 8.6875 0 L 6.375 0 L 6.953125 -3.625 L 3.625 -3.625 L 3.0625 0 L 0.75 0 L 2.15625 -8.859375 Z M 4.453125 -8.859375 "/></g></g></g><g fill="#f4faf8" fill-opacity="1"><g transform="translate(204.174232, 20.633911)"><g><path d="M 7.1875 -8.859375 L 6.890625 -6.90625 L 4.140625 -6.90625 L 3.90625 -5.421875 L 6.515625 -5.421875 L 6.203125 -3.484375 L 3.609375 -3.484375 L 3.359375 -1.953125 L 6.09375 -1.953125 L 5.796875 0 L 0.75 0 L 2.15625 -8.859375 Z M 7.1875 -8.859375 "/></g></g><g transform="translate(210.636732, 20.633911)"><g/></g></g><g fill="#f4faf8" fill-opacity="1"><g transform="translate(214.666973, 20.633911)"><g><path d="M 5.390625 -8.859375 L 6.453125 -4.125 L 9.09375 -8.859375 L 11.390625 -8.859375 L 11.328125 0 L 9.03125 0 L 9.1875 -5.09375 L 9.171875 -5.09375 L 6.234375 0 L 5.3125 0 L 4.09375 -5.09375 L 4.0625 -5.09375 L 2.515625 0 L 0.21875 0 L 3.125 -8.859375 Z M 5.390625 -8.859375 "/></g></g></g><g fill="#f4faf8" fill-opacity="1"><g transform="translate(226.217206, 20.633911)"><g><path d="M 7.265625 -8.859375 L 9.21875 0 L 6.75 0 L 6.421875 -1.546875 L 3.25 -1.546875 L 2.390625 0 L -0.046875 0 L 4.765625 -8.859375 Z M 4.171875 -3.296875 L 6.09375 -3.296875 L 5.59375 -6.125 L 5.5625 -6.125 Z M 4.171875 -3.296875 "/></g></g></g><g fill="#f4faf8" fill-opacity="1"><g transform="translate(235.393953, 20.633911)"><g><path d="M 5.734375 -8.859375 C 6.585938 -8.859375 7.257812 -8.664062 7.75 -8.28125 C 8.25 -7.894531 8.5 -7.332031 8.5 -6.59375 C 8.5 -6 8.367188 -5.394531 8.109375 -4.78125 C 7.847656 -4.164062 7.425781 -3.695312 6.84375 -3.375 C 6.269531 -3.0625 5.625 -2.914062 4.90625 -2.9375 L 3.53125 -2.9375 L 3.0625 0 L 0.75 0 L 2.15625 -8.859375 Z M 4.15625 -7 L 3.8125 -4.796875 L 4.375 -4.796875 C 5.03125 -4.796875 5.472656 -4.910156 5.703125 -5.140625 C 5.929688 -5.378906 6.046875 -5.734375 6.046875 -6.203125 C 6.046875 -6.492188 5.945312 -6.695312 5.75 -6.8125 C 5.5625 -6.9375 5.257812 -7 4.84375 -7 Z M 4.15625 -7 "/></g></g></g></svg>