<svg xmlns="http://www.w3.org/2000/svg" xmlns:xlink="http://www.w3.org/1999/xlink" width="145" zoomAndPan="magnify" viewBox="0 0 108.75 37.5" height="50" preserveAspectRatio="xMidYMid meet" version="1.0"><defs><filter x="0%" y="0%" width="100%" height="100%" id="71a7343af5"><feColorMatrix values="0 0 0 0 1 0 0 0 0 1 0 0 0 0 1 0 0 0 1 0" color-interpolation-filters="sRGB"/></filter><clipPath id="e26de874e5"><path d="M 0.59375 0 L 107.910156 0 L 107.910156 37.007812 L 0.59375 37.007812 Z M 0.59375 0 " clip-rule="nonzero"/></clipPath><mask id="09cf98701b"><g filter="url(#71a7343af5)"><rect x="-10.875" width="130.5" fill="#000000" y="-3.75" height="45" fill-opacity="0.749"/></g></mask><clipPath id="2d318337f3"><path d="M 8 0 L 100.839844 0 L 100.839844 34 L 8 34 Z M 8 0 " clip-rule="nonzero"/></clipPath><clipPath id="7ddcf518d7"><path d="M 45.210938 30.753906 L 9.753906 6.316406 C 8.503906 5.453125 7.960938 3.882812 8.414062 2.433594 C 8.863281 0.984375 10.203125 0 11.71875 0 L 97.03125 0 C 98.546875 0 99.886719 0.984375 100.335938 2.433594 C 100.789062 3.882812 100.246094 5.453125 98.996094 6.316406 L 63.539062 30.753906 C 58.019531 34.554688 50.730469 34.554688 45.210938 30.753906 " clip-rule="nonzero"/></clipPath><clipPath id="8dbea63257"><rect x="0" width="108" y="0" height="38"/></clipPath></defs><g clip-path="url(#e26de874e5)"><g mask="url(#09cf98701b)"><g transform="matrix(1, 0, 0, 1, 0.000000000000000111, -0.000000000000001478)"><g clip-path="url(#8dbea63257)"><g clip-path="url(#2d318337f3)"><g clip-path="url(#7ddcf518d7)"><path fill="#435c5f" d="M 108.15625 37.070312 L 0.609375 37.070312 L 0.609375 -0.09375 L 108.15625 -0.09375 Z M 108.15625 37.070312 " fill-opacity="1" fill-rule="nonzero"/></g></g></g></g></g></g></svg>