<svg xmlns="http://www.w3.org/2000/svg" xmlns:xlink="http://www.w3.org/1999/xlink" width="175" zoomAndPan="magnify" viewBox="0 0 131.25 66.749998" height="89" preserveAspectRatio="xMidYMid meet" version="1.0"><defs><filter x="0%" y="0%" width="100%" height="100%" id="fb5f24b5ff"><feColorMatrix values="0 0 0 0 1 0 0 0 0 1 0 0 0 0 1 0 0 0 1 0" color-interpolation-filters="sRGB"/></filter><g/><clipPath id="a86f14c402"><path d="M 0 0.0664062 L 130.503906 0.0664062 L 130.503906 66 L 0 66 Z M 0 0.0664062 " clip-rule="nonzero"/></clipPath><mask id="c459169ae3"><g filter="url(#fb5f24b5ff)"><rect x="-13.125" width="157.5" fill="#000000" y="-6.675" height="80.099998" fill-opacity="0.698"/></g></mask><clipPath id="b2e8f352f0"><path d="M 0 0.0664062 L 130.503906 0.0664062 L 130.503906 65.601562 L 0 65.601562 Z M 0 0.0664062 " clip-rule="nonzero"/></clipPath><clipPath id="89399ae3d4"><path d="M 30.574219 0.0664062 L 99.824219 0.0664062 C 107.933594 0.0664062 115.710938 3.285156 121.445312 9.019531 C 127.179688 14.753906 130.398438 22.53125 130.398438 30.640625 L 130.398438 34.753906 C 130.398438 42.863281 127.179688 50.640625 121.445312 56.375 C 115.710938 62.109375 107.933594 65.332031 99.824219 65.332031 L 30.574219 65.332031 C 22.464844 65.332031 14.6875 62.109375 8.957031 56.375 C 3.222656 50.640625 0 42.863281 0 34.753906 L 0 30.640625 C 0 22.53125 3.222656 14.753906 8.957031 9.019531 C 14.6875 3.285156 22.464844 0.0664062 30.574219 0.0664062 " clip-rule="nonzero"/></clipPath><clipPath id="b83eeb0070"><rect x="0" width="131" y="0" height="66"/></clipPath></defs><g clip-path="url(#a86f14c402)"><g mask="url(#c459169ae3)"><g transform="matrix(1, 0, 0, 1, 0, 0.000000000000002442)"><g clip-path="url(#b83eeb0070)"><g clip-path="url(#b2e8f352f0)"><g clip-path="url(#89399ae3d4)"><path fill="#f3f3f3" d="M 0 0.0664062 L 130.363281 0.0664062 L 130.363281 65.601562 L 0 65.601562 Z M 0 0.0664062 " fill-opacity="1" fill-rule="nonzero"/></g></g><g fill="#000000" fill-opacity="1"><g transform="translate(37.834582, 38.843747)"><g><path d="M 7.53125 -14.984375 L 13.21875 -5.828125 L 13.25 -5.828125 L 14.703125 -14.984375 L 18.609375 -14.984375 L 16.234375 0 L 12.34375 0 L 6.65625 -9.1875 L 6.625 -9.1875 L 5.171875 0 L 1.265625 0 L 3.640625 -14.984375 Z M 7.53125 -14.984375 "/></g></g></g><g fill="#000000" fill-opacity="1"><g transform="translate(55.34756, 38.843747)"><g><path d="M 12.15625 -14.984375 L 11.640625 -11.6875 L 7.015625 -11.6875 L 6.625 -9.1875 L 11.015625 -9.1875 L 10.5 -5.890625 L 6.109375 -5.890625 L 5.6875 -3.296875 L 10.3125 -3.296875 L 9.796875 0 L 1.265625 0 L 3.640625 -14.984375 Z M 12.15625 -14.984375 "/></g></g></g><g fill="#000000" fill-opacity="1"><g transform="translate(66.28075, 38.843747)"><g><path d="M 8.0625 -14.984375 L 9.765625 -11.109375 L 12.640625 -14.984375 L 17.4375 -14.984375 L 11.546875 -8.015625 L 15.828125 0 L 11.125 0 L 8.765625 -4.890625 L 4.546875 0 L -0.15625 0 L 6.96875 -8.015625 L 3.28125 -14.984375 Z M 8.0625 -14.984375 "/></g></g></g><g fill="#000000" fill-opacity="1"><g transform="translate(81.964907, 38.843747)"><g><path d="M 12.8125 -14.984375 L 12.296875 -11.6875 L 9.078125 -11.6875 L 7.234375 0 L 3.34375 0 L 5.1875 -11.6875 L 1.96875 -11.6875 L 2.484375 -14.984375 Z M 12.8125 -14.984375 "/></g></g></g></g></g></g></g></svg>