<svg xmlns="http://www.w3.org/2000/svg" xmlns:xlink="http://www.w3.org/1999/xlink" width="1389" zoomAndPan="magnify" viewBox="0 0 1041.75 525.000007" height="700" preserveAspectRatio="xMidYMid meet" version="1.0"><defs><filter x="0%" y="0%" width="100%" height="100%" id="195822de9f"><feColorMatrix values="0 0 0 0 1 0 0 0 0 1 0 0 0 0 1 0 0 0 1 0" color-interpolation-filters="sRGB"/></filter><clipPath id="b095290fa5"><path d="M 0.867188 0 L 1040.636719 0 L 1040.636719 524 L 0.867188 524 Z M 0.867188 0 " clip-rule="nonzero"/></clipPath><mask id="0e118b63d0"><g filter="url(#195822de9f)"><rect x="-104.175" width="1250.1" fill="#000000" y="-52.500001" height="630.000008" fill-opacity="0.749"/></g></mask><clipPath id="a302dcb9b7"><path d="M 0.867188 0 L 1040.636719 0 L 1040.636719 524 L 0.867188 524 Z M 0.867188 0 " clip-rule="nonzero"/></clipPath><clipPath id="6036ef2bbd"><path d="M 31.5625 0 L 1011.382812 0 C 1028.339844 0 1042.082031 13.746094 1042.082031 30.699219 L 1042.082031 496.421875 C 1042.082031 513.378906 1028.339844 527.121094 1011.382812 527.121094 L 31.5625 527.121094 C 14.609375 527.121094 0.867188 513.378906 0.867188 496.421875 L 0.867188 30.699219 C 0.867188 13.746094 14.609375 0 31.5625 0 " clip-rule="nonzero"/></clipPath><clipPath id="1b67947d6b"><rect x="0" width="1041" y="0" height="524"/></clipPath></defs><g clip-path="url(#b095290fa5)"><g mask="url(#0e118b63d0)"><g transform="matrix(1, 0, 0, 1, 0, 0.000000000000109615)"><g clip-path="url(#1b67947d6b)"><g clip-path="url(#a302dcb9b7)"><g clip-path="url(#6036ef2bbd)"><path fill="#3793cb" d="M 0.867188 0 L 1042.285156 0 L 1042.285156 527.171875 L 0.867188 527.171875 Z M 0.867188 0 " fill-opacity="1" fill-rule="nonzero"/></g></g></g></g></g></g></svg>