<svg xmlns="http://www.w3.org/2000/svg" xmlns:xlink="http://www.w3.org/1999/xlink" width="40" zoomAndPan="magnify" viewBox="0 0 30 36.000001" height="48" preserveAspectRatio="xMidYMid meet" version="1.0"><defs><clipPath id="c62f9c9da1"><path d="M 14.863281 17.347656 L 15.089844 17.347656 L 15.089844 17.351562 L 14.863281 17.351562 Z M 14.863281 17.347656 " clip-rule="nonzero"/></clipPath><clipPath id="c4cf0eef87"><path d="M 0.40625 18.503906 L 29.59375 18.503906 L 29.59375 34.742188 L 0.40625 34.742188 Z M 0.40625 18.503906 " clip-rule="nonzero"/></clipPath><clipPath id="0e0e0ff2aa"><path d="M 7.703125 18.503906 L 22.296875 18.503906 C 26.328125 18.503906 29.59375 21.769531 29.59375 25.800781 L 29.59375 27.230469 C 29.59375 31.261719 26.328125 34.527344 22.296875 34.527344 L 7.703125 34.527344 C 3.671875 34.527344 0.40625 31.261719 0.40625 27.230469 L 0.40625 25.800781 C 0.40625 21.769531 3.671875 18.503906 7.703125 18.503906 " clip-rule="nonzero"/></clipPath><clipPath id="4408c37f14"><path d="M 6.867188 0 L 23.132812 0 L 23.132812 16.261719 L 6.867188 16.261719 Z M 6.867188 0 " clip-rule="nonzero"/></clipPath><clipPath id="89fdf8c3c4"><path d="M 15 0 C 10.507812 0 6.867188 3.640625 6.867188 8.132812 C 6.867188 12.621094 10.507812 16.261719 15 16.261719 C 19.492188 16.261719 23.132812 12.621094 23.132812 8.132812 C 23.132812 3.640625 19.492188 0 15 0 " clip-rule="nonzero"/></clipPath><clipPath id="56cfded1fe"><path d="M 6.867188 0 L 22.695312 0 L 22.695312 15.824219 L 6.867188 15.824219 Z M 6.867188 0 " clip-rule="nonzero"/></clipPath><clipPath id="3a939eefdc"><path d="M 14.78125 0 C 10.410156 0 6.867188 3.542969 6.867188 7.914062 C 6.867188 12.28125 10.410156 15.824219 14.78125 15.824219 C 19.152344 15.824219 22.695312 12.28125 22.695312 7.914062 C 22.695312 3.542969 19.152344 0 14.78125 0 " clip-rule="nonzero"/></clipPath></defs><g clip-path="url(#c62f9c9da1)"><path fill="#545454" d="M 14.863281 17.347656 L 15.089844 17.347656 L 15.089844 17.351562 L 14.863281 17.351562 Z M 14.863281 17.347656 " fill-opacity="1" fill-rule="nonzero"/></g><g clip-path="url(#c4cf0eef87)"><g clip-path="url(#0e0e0ff2aa)"><path fill="#545454" d="M 0.40625 18.503906 L 29.636719 18.503906 L 29.636719 34.417969 L 0.40625 34.417969 Z M 0.40625 18.503906 " fill-opacity="1" fill-rule="nonzero"/></g></g><g clip-path="url(#4408c37f14)"><g clip-path="url(#89fdf8c3c4)"><path fill="#545454" d="M 6.867188 0 L 23.132812 0 L 23.132812 16.261719 L 6.867188 16.261719 Z M 6.867188 0 " fill-opacity="1" fill-rule="nonzero"/></g></g><g clip-path="url(#56cfded1fe)"><g clip-path="url(#3a939eefdc)"><path stroke-linecap="butt" transform="matrix(1.400906, 0, 0, 1.400906, 6.868305, 0.00000194595)" fill="none" stroke-linejoin="miter" d="M 5.648446 -0.00000138906 C 2.528256 -0.00000138906 -0.000797995 2.529053 -0.000797995 5.649243 C -0.000797995 8.766644 2.528256 11.295698 5.648446 11.295698 C 8.768636 11.295698 11.29769 8.766644 11.29769 5.649243 C 11.29769 2.529053 8.768636 -0.00000138906 5.648446 -0.00000138906 " stroke="#545454" stroke-width="3.043256" stroke-opacity="1" stroke-miterlimit="4"/></g></g></svg>